<svg width="24" height="42" viewBox="0 0 24 42" fill="none" xmlns="http://www.w3.org/2000/svg">
<mask id="path-1-outside-1_760_244" maskUnits="userSpaceOnUse" x="-0.197266" y="0" width="24" height="42" fill="black">
<rect fill="white" x="-0.197266" width="24" height="42"/>
<path fill-rule="evenodd" clip-rule="evenodd" d="M2.29309 2.2929C1.90256 2.68342 1.90257 3.31659 2.29309 3.70711L19.3885 20.8024L2.29309 37.898C1.90256 38.2885 1.90257 38.9217 2.29309 39.3122C2.68362 39.7027 3.31678 39.7027 3.7073 39.3122L21.5098 21.5095C21.6974 21.322 21.8027 21.0676 21.8027 20.8024C21.8027 20.5372 21.6974 20.2828 21.5098 20.0953L3.7073 2.29289C3.31677 1.90237 2.68361 1.90237 2.29309 2.2929Z"/>
</mask>
<path fill-rule="evenodd" clip-rule="evenodd" d="M2.29309 2.2929C1.90256 2.68342 1.90257 3.31659 2.29309 3.70711L19.3885 20.8024L2.29309 37.898C1.90256 38.2885 1.90257 38.9217 2.29309 39.3122C2.68362 39.7027 3.31678 39.7027 3.7073 39.3122L21.5098 21.5095C21.6974 21.322 21.8027 21.0676 21.8027 20.8024C21.8027 20.5372 21.6974 20.2828 21.5098 20.0953L3.7073 2.29289C3.31677 1.90237 2.68361 1.90237 2.29309 2.2929Z" fill="#1A0B02"/>
<path d="M2.29309 3.70711L0.878881 5.12133L2.29309 3.70711ZM2.29309 2.2929L3.7073 3.7071L2.29309 2.2929ZM19.3885 20.8024L20.8027 22.2166L22.2169 20.8024L20.8027 19.3882L19.3885 20.8024ZM2.29309 37.898L3.7073 39.3122L2.29309 37.898ZM2.29309 39.3122L3.7073 37.898L2.29309 39.3122ZM3.7073 39.3122L5.12152 40.7264L3.7073 39.3122ZM21.5098 21.5095L22.9241 22.9237L22.9241 22.9237L21.5098 21.5095ZM21.5098 20.0953L20.0956 21.5095H20.0956L21.5098 20.0953ZM3.7073 2.29289L2.29309 3.70711L3.7073 2.29289ZM3.7073 2.29289C4.09782 2.68341 4.09783 3.31658 3.7073 3.7071L0.878866 0.878688C-0.292704 2.05027 -0.292696 3.94976 0.878881 5.12133L3.7073 2.29289ZM20.8027 19.3882L3.7073 2.29289L0.878881 5.12133L17.9743 22.2166L20.8027 19.3882ZM3.7073 39.3122L20.8027 22.2166L17.9743 19.3882L0.878866 36.4838L3.7073 39.3122ZM3.7073 37.898C4.09782 38.2885 4.09783 38.9217 3.7073 39.3122L0.878866 36.4838C-0.292707 37.6553 -0.292692 39.5548 0.878881 40.7264L3.7073 37.898ZM2.29309 37.898C2.68361 37.5075 3.31677 37.5074 3.7073 37.898L0.878881 40.7264C2.05046 41.898 3.94995 41.898 5.12152 40.7264L2.29309 37.898ZM20.0956 20.0953L2.29309 37.898L5.12152 40.7264L22.9241 22.9237L20.0956 20.0953ZM19.8027 20.8024C19.8027 20.5372 19.9081 20.2828 20.0956 20.0953L22.9241 22.9237C23.4867 22.3611 23.8027 21.598 23.8027 20.8024L19.8027 20.8024ZM20.0956 21.5095C19.9081 21.322 19.8027 21.0676 19.8027 20.8024L23.8027 20.8024C23.8027 20.0067 23.4867 19.2437 22.924 18.6811L20.0956 21.5095ZM2.29309 3.70711L20.0956 21.5095L22.924 18.6811L5.12151 0.878671L2.29309 3.70711ZM3.7073 3.7071C3.31678 4.09763 2.68362 4.09763 2.29309 3.70711L5.12151 0.878671C3.94993 -0.292897 2.05043 -0.292889 0.878866 0.878688L3.7073 3.7071Z" fill="#1A0B02" mask="url(#path-1-outside-1_760_244)"/>
</svg>
