<svg width="40" height="69" viewBox="0 0 40 69" fill="none" xmlns="http://www.w3.org/2000/svg">
<mask id="path-1-outside-1_688_107" maskUnits="userSpaceOnUse" x="0" y="0.765625" width="40" height="69" fill="black">
<rect fill="white" y="0.765625" width="40" height="69"/>
<path fill-rule="evenodd" clip-rule="evenodd" d="M5.17525 5.05852C4.78472 5.44905 4.78473 6.08221 5.17525 6.47273L33.5858 34.883L5.17525 63.2938C4.78472 63.6843 4.78473 64.3175 5.17525 64.708C5.56578 65.0985 6.19894 65.0985 6.58946 64.708L35.7071 35.5901C35.8946 35.4026 36 35.1483 36 34.883C36 34.6178 35.8946 34.3635 35.7071 34.1759L6.58946 5.05852C6.19893 4.66799 5.56577 4.668 5.17525 5.05852Z"/>
</mask>
<path fill-rule="evenodd" clip-rule="evenodd" d="M5.17525 5.05852C4.78472 5.44905 4.78473 6.08221 5.17525 6.47273L33.5858 34.883L5.17525 63.2938C4.78472 63.6843 4.78473 64.3175 5.17525 64.708C5.56578 65.0985 6.19894 65.0985 6.58946 64.708L35.7071 35.5901C35.8946 35.4026 36 35.1483 36 34.883C36 34.6178 35.8946 34.3635 35.7071 34.1759L6.58946 5.05852C6.19893 4.66799 5.56577 4.668 5.17525 5.05852Z" fill="#FCF8F2"/>
<path d="M5.17525 6.47273L2.34684 9.30117L5.17525 6.47273ZM5.17525 5.05852L8.00368 7.88694L5.17525 5.05852ZM33.5858 34.883L36.4142 37.7115L39.2426 34.883L36.4142 32.0546L33.5858 34.883ZM5.17525 63.2938L8.00367 66.1222L8.00368 66.1222L5.17525 63.2938ZM5.17525 64.708L2.34682 67.5365L2.34684 67.5365L5.17525 64.708ZM6.58946 64.708L9.41789 67.5364L9.4179 67.5364L6.58946 64.708ZM35.7071 35.5901L32.8787 32.7617L32.8787 32.7617L35.7071 35.5901ZM36 34.883L40 34.883L36 34.883ZM35.7071 34.1759L38.5355 31.3475H38.5355L35.7071 34.1759ZM6.58946 5.05852L3.76104 7.88695L6.58946 5.05852ZM8.00367 3.6443C9.17524 4.81586 9.17525 6.71536 8.00368 7.88694L2.34681 2.2301C0.394192 4.18273 0.394207 7.34856 2.34684 9.30117L8.00367 3.6443ZM36.4142 32.0546L8.00367 3.6443L2.34684 9.30117L30.7574 37.7115L36.4142 32.0546ZM8.00368 66.1222L36.4142 37.7115L30.7573 32.0546L2.34681 60.4654L8.00368 66.1222ZM8.00368 61.8796C9.17522 63.0511 9.17527 64.9506 8.00367 66.1222L2.34682 60.4654C0.394169 62.418 0.39423 65.5839 2.34682 67.5365L8.00368 61.8796ZM3.76104 61.8796C4.9326 60.708 6.83208 60.708 8.00366 61.8796L2.34684 67.5365C4.29947 69.4891 7.46528 69.4891 9.41789 67.5364L3.76104 61.8796ZM32.8787 32.7617L3.76102 61.8796L9.4179 67.5364L38.5355 38.4186L32.8787 32.7617ZM32 34.8831C32 34.0874 32.3161 33.3243 32.8787 32.7617L38.5355 38.4186C39.4732 37.4809 40 36.2091 40 34.883L32 34.8831ZM32.8787 37.0044C32.3161 36.4418 32 35.6787 32 34.8831L40 34.883C40 33.5569 39.4732 32.2852 38.5355 31.3475L32.8787 37.0044ZM3.76104 7.88695L32.8787 37.0044L38.5355 31.3475L9.41788 2.23008L3.76104 7.88695ZM8.00368 7.88694C6.83212 9.05851 4.93262 9.05852 3.76104 7.88695L9.41788 2.23008C7.46525 0.277463 4.29942 0.277476 2.34681 2.2301L8.00368 7.88694Z" fill="#FCF8F2" mask="url(#path-1-outside-1_688_107)"/>
</svg>
