<svg width="76" height="42" viewBox="0 0 76 42" fill="none" xmlns="http://www.w3.org/2000/svg">
<mask id="path-1-outside-1_686_1642" maskUnits="userSpaceOnUse" x="-0.150391" y="0" width="76" height="42" fill="black">
<rect fill="white" x="-0.150391" width="76" height="42"/>
<path fill-rule="evenodd" clip-rule="evenodd" d="M72.5567 38.6318C72.1662 39.0223 71.533 39.0223 71.1425 38.6318L37.9252 5.41421L4.70732 38.6318C4.3168 39.0223 3.68363 39.0223 3.29311 38.6318C2.90259 38.2413 2.90259 37.6081 3.29311 37.2176L37.2181 3.29289C37.4056 3.10535 37.66 3 37.9252 3C38.1904 3 38.4448 3.10536 38.6323 3.2929L72.5567 37.2176C72.9472 37.6081 72.9472 38.2413 72.5567 38.6318Z"/>
</mask>
<path fill-rule="evenodd" clip-rule="evenodd" d="M72.5567 38.6318C72.1662 39.0223 71.533 39.0223 71.1425 38.6318L37.9252 5.41421L4.70732 38.6318C4.3168 39.0223 3.68363 39.0223 3.29311 38.6318C2.90259 38.2413 2.90259 37.6081 3.29311 37.2176L37.2181 3.29289C37.4056 3.10535 37.66 3 37.9252 3C38.1904 3 38.4448 3.10536 38.6323 3.2929L72.5567 37.2176C72.9472 37.6081 72.9472 38.2413 72.5567 38.6318Z" fill="#1A0B02"/>
<path d="M71.1425 38.6318L69.0212 40.7531L71.1425 38.6318ZM72.5567 38.6318L70.4354 36.5105L72.5567 38.6318ZM37.9252 5.41421L35.8039 3.29288L37.9252 1.17157L40.0465 3.2929L37.9252 5.41421ZM4.70732 38.6318L6.82864 40.7531L6.82863 40.7531L4.70732 38.6318ZM3.29311 38.6318L5.41443 36.5105L5.41444 36.5105L3.29311 38.6318ZM3.29311 37.2176L5.41443 39.3389L5.41442 39.3389L3.29311 37.2176ZM37.2181 3.29289L39.3394 5.41421L39.3394 5.41422L37.2181 3.29289ZM37.9252 3L37.9252 6H37.9252L37.9252 3ZM38.6323 3.2929L36.511 5.41421V5.41421L38.6323 3.2929ZM72.5567 37.2176L70.4354 39.3389L72.5567 37.2176ZM73.2638 36.5105C72.4828 35.7294 71.2165 35.7294 70.4354 36.5105L74.678 40.7531C73.1159 42.3152 70.5833 42.3152 69.0212 40.7531L73.2638 36.5105ZM40.0465 3.2929L73.2638 36.5105L69.0212 40.7531L35.8038 7.53553L40.0465 3.2929ZM2.58601 36.5105L35.8039 3.29288L40.0465 7.53554L6.82864 40.7531L2.58601 36.5105ZM5.41444 36.5105C4.63338 35.7294 3.36706 35.7294 2.58602 36.5105L6.82863 40.7531C5.26654 42.3152 2.73388 42.3152 1.17178 40.7531L5.41444 36.5105ZM5.41442 39.3389C6.19548 38.5579 6.19549 37.2915 5.41443 36.5105L1.17179 40.7531C-0.390312 39.191 -0.390305 36.6583 1.17181 35.0962L5.41442 39.3389ZM39.3394 5.41422L5.41443 39.3389L1.17181 35.0963L35.0968 1.17156L39.3394 5.41422ZM37.9252 6C38.4556 6 38.9643 5.78929 39.3394 5.41421L35.0968 1.17157C35.8469 0.421416 36.8643 -7.15256e-06 37.9252 0L37.9252 6ZM36.511 5.41421C36.886 5.78927 37.3947 6 37.9252 6L37.9252 0C38.9861 -3.8147e-06 40.0035 0.421442 40.7536 1.17158L36.511 5.41421ZM70.4354 39.3389L36.511 5.41421L40.7536 1.17158L74.678 35.0963L70.4354 39.3389ZM70.4354 36.5105C69.6543 37.2915 69.6543 38.5578 70.4354 39.3389L74.678 35.0963C76.2401 36.6584 76.2401 39.191 74.678 40.7531L70.4354 36.5105Z" fill="#1A0B02" mask="url(#path-1-outside-1_686_1642)"/>
</svg>
