<svg width="191" height="239" viewBox="0 0 191 239" fill="none" xmlns="http://www.w3.org/2000/svg">
<path d="M7.23046 212.919L6.17351 209.403H6.13988L4.99486 212.919H7.23046ZM4.3639 205.582H7.93028L12.2413 216.995H8.46196L7.96231 215.367H4.19575L3.66568 216.995H0L4.3639 205.582Z" fill="#1A0B02"/>
<path d="M13.0498 205.582H16.7011V214.069H21.9425V216.993H13.0498V205.582Z" fill="#1A0B02"/>
<path d="M27.1455 214.279H29.2866C30.0457 214.279 30.7151 214.07 30.7151 213.192C30.7151 212.519 30.2971 212.153 29.4371 212.153H27.1455V214.279ZM27.1455 210.028H29.0704C29.8311 210.028 30.3131 209.818 30.3131 209.084C30.3131 208.51 29.8167 208.301 29.0704 208.301H27.1455V210.028ZM23.499 205.582H29.9816C33.0996 205.582 33.7642 207.28 33.7642 208.443C33.7642 209.593 33.1829 210.215 32.3037 210.68C33.3654 211.033 34.3615 211.848 34.3615 213.525C34.3615 215.811 32.3037 216.992 30.2122 216.992H23.499V205.582Z" fill="#1A0B02"/>
<path d="M41.4393 214.425C42.3697 214.425 43.795 213.834 43.795 211.297C43.795 208.753 42.3697 208.161 41.4393 208.161C40.5121 208.161 39.0868 208.752 39.0868 211.297C39.0868 213.834 40.5121 214.425 41.4393 214.425ZM41.4393 205.316C45.0393 205.316 47.4447 207.809 47.4447 211.297C47.4447 214.775 45.0393 217.274 41.4393 217.274C37.8409 217.274 35.4355 214.778 35.4355 211.297C35.4355 207.809 37.8409 205.316 41.4393 205.316Z" fill="#1A0B02"/>
<path d="M15.0349 40.2971L17.0736 42.2973C17.381 41.4778 17.5572 40.4638 17.5572 39.1829C17.5572 33.9742 14.6282 32.7642 12.7225 32.7642C10.82 32.7642 7.89255 33.9742 7.89255 39.1829C7.89255 44.3915 10.8184 45.6046 12.7225 45.6046C13.0299 45.6046 13.3374 45.5722 13.7105 45.4734L11.6687 43.4424L15.0349 40.2971ZM21.7369 53.4307L18.4684 50.1913C17.1088 51.0093 14.9693 51.4352 12.7241 51.4352C5.34948 51.4352 0.421875 46.3253 0.421875 39.1844C0.421875 32.045 5.34787 26.9336 12.7241 26.9336C20.1019 26.9336 25.0327 32.0435 25.0327 39.1844C25.0327 42.43 24.0093 45.2465 22.2077 47.3748L25.0983 50.2237L21.7369 53.4307Z" fill="#1A0B02"/>
<path d="M46.4376 50.8848H39.947V48.7226H39.875C38.6194 50.4264 36.8098 51.3092 34.129 51.3092C30.9694 51.3092 28.082 49.4449 28.082 45.5434V33.8867H34.8112V42.7932C34.8112 44.7578 35.0531 46.1375 37.0244 46.1375C38.1758 46.1375 39.7068 45.5789 39.7068 42.8595V33.8867H46.4376V50.8848Z" fill="#1A0B02"/>
<path d="M60.842 43.2462C60.0269 43.6382 59.1093 43.8697 58.1949 44.0657C56.6943 44.3944 55.9128 44.754 55.9128 45.8991C55.9128 46.6862 56.7968 47.4748 58.0187 47.4748C59.5497 47.4748 60.7443 46.589 60.842 44.8219V43.2462ZM67.299 47.0798C67.299 48.3561 67.3695 49.796 68.1157 50.8809H61.2488C61.0822 50.4241 60.9765 49.7343 61.007 49.2743H60.9429C59.5177 50.8454 57.4438 51.3038 55.2658 51.3038C51.8724 51.3038 49.0459 49.7327 49.0459 46.1615C49.0459 40.7877 55.5717 40.9837 59.0084 40.3633C59.9228 40.1981 60.8436 39.9373 60.8436 38.8539C60.8436 37.7072 59.721 37.2813 58.6321 37.2813C56.5598 37.2813 56.153 38.2983 56.1194 39.0159H49.869C49.9667 36.6284 51.1902 35.2194 52.923 34.4323C54.6237 33.6452 56.8657 33.4492 58.9395 33.4492C67.3727 33.4492 67.3022 36.826 67.3022 40.0963V47.0798H67.299Z" fill="#1A0B02"/>
<path d="M77.7266 27.4961H70.999V50.8865H77.7266V27.4961Z" fill="#1A0B02"/>
<path d="M81.7031 33.8869H88.4323V50.8865H81.7031V33.8869ZM88.4323 32.0489H81.7031V27.4961H88.4323V32.0489Z" fill="#1A0B02"/>
<path d="M105.628 33.8869H112.36V50.8865H105.628V33.8869ZM112.36 32.0489H105.628V27.4961H112.36V32.0489ZM93.3912 37.881H90.6367V33.8869H93.3912C93.3223 32.2155 93.4969 30.3466 94.7828 29.1011C96.2465 27.6921 97.9456 27.4961 100.663 27.4961C101.687 27.4961 102.67 27.5964 103.688 27.6273V32.0797C103.149 32.0149 102.604 31.8498 102.063 31.8498C100.429 31.8498 99.885 32.3097 99.9859 33.8869H103.523V37.881H100.12V50.8865H93.3912V37.881Z" fill="#1A0B02"/>
<path d="M127.582 40.3356C127.51 39.6473 127.274 39.0917 126.832 38.729C126.419 38.3709 125.844 38.1734 125.132 38.1734C122.55 38.1734 122.182 40.3356 122.182 42.399C122.182 44.4593 122.549 46.5937 125.132 46.5937C126.592 46.5937 127.62 45.4501 127.753 44.1013H134.175C133.874 46.3962 132.751 48.1972 131.116 49.4442C129.521 50.6588 127.382 51.3085 125.002 51.3085C119.698 51.3085 115.446 47.7713 115.446 42.399C115.446 37.0283 119.695 33.457 125.002 33.457C129.619 33.457 133.563 35.6516 133.976 40.3371L127.582 40.3356Z" fill="#1A0B02"/>
<path d="M147.693 43.2462C146.879 43.6382 145.963 43.8697 145.038 44.0657C143.545 44.3944 142.764 44.754 142.764 45.8991C142.764 46.6862 143.651 47.4748 144.871 47.4748C146.404 47.4748 147.587 46.589 147.693 44.8219V43.2462ZM154.156 47.0798C154.156 48.3561 154.222 49.796 154.973 50.8809H148.108C147.935 50.4241 147.832 49.7343 147.866 49.2743H147.805C146.372 50.8454 144.3 51.3038 142.123 51.3038C138.728 51.3038 135.898 49.7327 135.898 46.1615C135.898 40.7877 142.427 40.9837 145.864 40.3633C146.779 40.1981 147.699 39.9373 147.699 38.8539C147.699 37.7072 146.58 37.2813 145.494 37.2813C143.417 37.2813 143.007 38.2983 142.975 39.0159H136.72C136.821 36.6284 138.048 35.2194 139.779 34.4323C141.479 33.6452 143.721 33.4492 145.798 33.4492C154.228 33.4492 154.163 36.826 154.163 40.0963V47.0798H154.156Z" fill="#1A0B02"/>
<path d="M165.804 33.8888H169.404V37.8828H165.804V43.8123C165.804 45.3849 166.176 46.0686 167.878 46.0686C168.391 46.0686 168.898 46.0393 169.404 45.9698V50.8883C168.05 50.8883 166.522 51.0797 165.095 51.0797C162.24 51.0797 159.075 50.6615 159.075 46.0084V37.8828H156.087V33.8888H159.075V28.7109H165.804V33.8888Z" fill="#1A0B02"/>
<path d="M180.416 38.1719C177.869 38.1719 177.53 40.5671 177.53 42.3666C177.53 44.1692 177.869 46.5922 180.416 46.5922C182.967 46.5922 183.314 44.1707 183.314 42.3666C183.314 40.5671 182.967 38.1719 180.416 38.1719ZM180.416 51.3085C173.792 51.3085 170.796 47.0829 170.796 42.3666C170.796 37.6502 173.792 33.457 180.416 33.457C187.046 33.457 190.037 37.6487 190.037 42.3666C190.037 47.0845 187.046 51.3085 180.416 51.3085Z" fill="#1A0B02"/>
<path d="M63.8197 217.242V214.459H58.1074V205.316H53.9453V217.242H63.8197Z" fill="#1A0B02"/>
<path d="M76.3144 217.242V214.459H69.8718V212.588H75.1117V209.804H69.8718V208.097H76.0661V205.316H65.7129V217.242H76.3144Z" fill="#1A0B02"/>
<path d="M90.6205 210.682H84.9226V213.266H86.7579C86.5481 214.095 85.4687 214.646 84.6232 214.646C82.5237 214.646 81.9584 213.102 81.9584 211.414C81.9584 209.31 82.7367 207.917 84.3765 207.917C85.4543 207.917 86.2134 208.449 86.5144 209.425H90.4652C89.9543 206.492 87.5009 205 84.4486 205C80.3409 205 77.7979 207.619 77.7979 211.433C77.7979 215.589 80.7077 217.559 83.9586 217.559C85.9475 217.559 87.0974 216.863 87.7844 216.103L87.9429 217.282H90.6237V210.686H90.6205V210.682Z" fill="#1A0B02"/>
<path d="M96.9168 205.316H93.0205V217.24H97.0033V213.464L96.8447 210.747L101.38 217.24H105.276V205.316H101.287V209.108L101.449 211.826L96.9168 205.316Z" fill="#1A0B02"/>
<path d="M113.831 205C109.884 205 107.184 207.435 107.184 211.183C107.184 215.24 109.848 217.559 113.831 217.559C117.59 217.559 120.498 215.274 120.498 211.216C120.498 208.067 118.368 205 113.831 205ZM113.797 207.915C115.631 207.866 116.337 209.588 116.337 211.215C116.337 213.184 115.631 214.644 113.831 214.644C111.837 214.644 111.344 212.737 111.344 211.215C111.344 209.704 111.909 207.915 113.797 207.915Z" fill="#1A0B02"/>
<path d="M132.406 217.242L132.928 214.459H127.213L128.931 205.316H124.769L122.53 217.242H132.406Z" fill="#1A0B02"/>
<path d="M144.894 217.242L145.419 214.459H138.983L139.337 212.588H144.572L145.094 209.804H139.854L140.178 208.097H146.369L146.889 205.316H136.538L134.299 217.242H144.894Z" fill="#1A0B02"/>
<path d="M160.432 210.682H154.735L154.252 213.266H156.087C155.72 214.095 154.538 214.646 153.691 214.646C151.593 214.646 151.318 213.102 151.637 211.414C152.031 209.31 153.072 207.917 154.708 207.917C155.784 207.917 156.446 208.449 156.559 209.425H160.51C160.55 206.492 158.379 205 155.326 205C151.222 205 148.192 207.619 147.475 211.433C146.696 215.589 149.233 217.559 152.479 217.559C154.471 217.559 155.748 216.863 156.582 216.103L156.519 217.282H159.199L160.432 210.682Z" fill="#1A0B02"/>
<path d="M167.741 205.316H163.843L161.603 217.24H165.59L166.296 213.464L166.649 210.747L169.962 217.24H173.861L176.102 205.316H172.116L171.405 209.108L171.049 211.826L167.741 205.316Z" fill="#1A0B02"/>
<path d="M184.72 205C180.766 205 177.609 207.435 176.906 211.183C176.144 215.24 178.37 217.559 182.359 217.559C186.115 217.559 189.455 215.274 190.219 211.216C190.808 208.067 189.249 205 184.72 205ZM184.13 207.915C185.975 207.866 186.358 209.588 186.05 211.215C185.684 213.184 184.702 214.644 182.904 214.644C180.911 214.644 180.774 212.737 181.062 211.215C181.345 209.704 182.245 207.915 184.13 207.915Z" fill="#1A0B02"/>
<path d="M189.336 161.972C170.566 180.067 140.126 180.064 121.354 161.972L121.32 162.008L97.84 139.376L116.791 121.121L56.3213 114.293L63.398 172.579L82.3525 154.31L106.257 177.348L106.275 177.336C128.897 198.774 162.869 202.388 189.338 188.211L189.336 161.972Z" fill="#706C63"/>
<path d="M106.045 183.303C100.605 178.461 96.4525 173.892 96.4525 173.892H68.2513L60.0792 181.767L59.1232 173.892H23.5938V81.4858H119.481V117.149L126.33 117.92L119.481 124.52V154.231L121.273 155.96L124.466 158.962C129.389 163.712 135.289 167.172 141.722 169.203V60.0508H1.35156V195.33H126.465C119.134 192.354 111.49 188.143 106.045 183.303Z" fill="#706C63"/>
<path d="M145.884 90.5703V170.108C161.117 173.04 177.536 168.826 189.339 157.447V90.5703H145.884Z" fill="#1A0B02"/>
<path d="M189.339 60.0508H145.884V86.8165H189.339V60.0508Z" fill="#1A0B02"/>
<path d="M1.41699 6.11152H7.85794V22.3811H1.41699V6.11152ZM7.85794 4.35523H1.41699V0H7.85794V4.35523Z" fill="#1A0B02"/>
<path d="M11.5322 6.1082H17.7474V8.17469H17.8098C19.0157 6.54804 20.7356 5.69922 23.3075 5.69922C26.331 5.69922 29.0951 7.48637 29.0951 11.2166V22.3763H22.6558V13.851C22.6558 11.9682 22.4284 10.6517 20.5435 10.6517C19.4385 10.6517 17.9732 11.1826 17.9732 13.7877V22.3747H11.5338L11.5322 6.1082Z" fill="#1A0B02"/>
<path d="M42.3703 10.8431C42.3351 10.3091 42.0452 9.9032 41.6241 9.62077C41.2317 9.30439 40.716 9.14698 40.1892 9.14698C39.2812 9.14698 38.2418 9.33835 38.2418 10.4032C38.2418 10.8739 38.6294 11.0916 38.9881 11.2474C40.0611 11.6873 42.5032 11.8123 44.6444 12.5021C46.7919 13.158 48.6816 14.3819 48.6816 17.0472C48.6816 21.5629 44.1928 22.7821 40.0963 22.7821C36.1263 22.7821 31.7721 21.2465 31.668 17.0472H37.8175C37.8511 17.612 38.1073 18.0812 38.5974 18.4902C38.9208 18.7711 39.5422 18.9594 40.3205 18.9594C41.1676 18.9594 42.5033 18.643 42.5033 17.7062C42.5033 16.7663 41.9443 16.4839 38.9513 15.9823C34.0445 15.1659 32.0571 13.6612 32.0571 10.8724C32.0571 6.7641 36.6436 5.69922 40.0274 5.69922C43.6675 5.69922 48.0618 6.6715 48.2252 10.8415L42.3703 10.8431Z" fill="#1A0B02"/>
<path d="M59.028 6.11655H62.4759V9.93934H59.028V15.6156C59.028 17.1173 59.3884 17.7747 61.0122 17.7747C61.499 17.7747 61.9891 17.7439 62.4759 17.6806V22.3846C61.1739 22.3846 59.7102 22.5729 58.3426 22.5729C55.6154 22.5729 52.5839 22.1624 52.5839 17.7145V9.93934H49.7285V6.11655H52.5855V1.16406H59.028V6.11655Z" fill="#1A0B02"/>
<path d="M74.8064 15.0748C74.0281 15.4483 73.1489 15.6675 72.2682 15.8542C70.8397 16.1706 70.087 16.5163 70.087 17.6105C70.087 18.3652 70.9342 19.1183 72.1032 19.1183C73.5701 19.1183 74.7071 18.271 74.8064 16.5811V15.0748ZM80.9863 18.7387C80.9863 19.961 81.0488 21.3422 81.7614 22.3763H75.1956C75.029 21.938 74.9345 21.279 74.9666 20.8391H74.9025C73.5349 22.3438 71.5507 22.7821 69.4689 22.7821C66.2147 22.7821 63.5195 21.2774 63.5195 17.8605C63.5195 12.7197 69.7603 12.9096 73.0449 12.3123C73.9272 12.1549 74.8032 11.9064 74.8032 10.8709C74.8032 9.77202 73.7271 9.36613 72.6893 9.36613C70.7052 9.36613 70.3144 10.3384 70.284 11.0298H64.301C64.3955 8.74263 65.5678 7.39223 67.2252 6.6391C68.8507 5.8875 70.9966 5.69922 72.984 5.69922C81.0488 5.69922 80.9863 8.92937 80.9863 12.0608V18.7387Z" fill="#1A0B02"/>
<path d="M90.9719 0H84.5293V22.378H90.9719V0Z" fill="#1A0B02"/>
<path d="M101.218 0H94.7773V22.378H101.218V0Z" fill="#1A0B02"/>
<path d="M115.175 15.0748C114.397 15.4483 113.518 15.6675 112.635 15.8542C111.207 16.1706 110.462 16.5163 110.462 17.6105C110.462 18.3652 111.306 19.1183 112.478 19.1183C113.945 19.1183 115.079 18.271 115.18 16.5811V15.0748H115.175ZM121.355 18.7387C121.355 19.961 121.422 21.3422 122.133 22.3763H115.561C115.398 21.938 115.308 21.279 115.335 20.8391H115.27C113.9 22.3438 111.919 22.7821 109.836 22.7821C106.583 22.7821 103.882 21.2774 103.882 17.8605C103.882 12.7197 110.126 12.9096 113.409 12.3123C114.291 12.1549 115.169 11.9064 115.169 10.8709C115.169 9.77202 114.093 9.36613 113.055 9.36613C111.074 9.36613 110.682 10.3384 110.649 11.0298H104.665C104.764 8.74263 105.936 7.39223 107.591 6.6391C109.219 5.8875 111.361 5.69922 113.346 5.69922C121.419 5.69922 121.352 8.92937 121.352 12.0608L121.355 18.7387Z" fill="#1A0B02"/>
<path d="M132.517 6.11655H135.96V9.93934H132.517V15.6156C132.517 17.1173 132.876 17.7747 134.498 17.7747C134.986 17.7747 135.473 17.7439 135.96 17.6806V22.3846C134.66 22.3846 133.193 22.5729 131.833 22.5729C129.098 22.5729 126.071 22.1624 126.071 17.7145V9.93934H123.216V6.11655H126.071V1.16406H132.514L132.517 6.11655Z" fill="#1A0B02"/>
<path d="M146.502 10.2197C144.066 10.2197 143.736 12.5069 143.736 14.2292C143.736 15.9546 144.063 18.2758 146.502 18.2758C148.944 18.2758 149.268 15.9562 149.268 14.2292C149.268 12.5069 148.946 10.2197 146.502 10.2197ZM146.502 22.7884C140.155 22.7884 137.297 18.7449 137.297 14.2307C137.297 9.7181 140.155 5.70703 146.502 5.70703C152.839 5.70703 155.707 9.7181 155.707 14.2307C155.707 18.7434 152.839 22.7884 146.502 22.7884Z" fill="#1A0B02"/>
<path d="M158.507 6.11056H164.687V8.71104H164.749C165.792 6.76801 167.158 5.70312 169.497 5.70312C170.152 5.70312 170.771 5.79727 171.387 5.95623V11.4412C170.737 11.2205 170.152 11.0322 168.851 11.0322C166.317 11.0322 164.946 12.4752 164.946 15.9538V22.3802H158.507V6.11056Z" fill="#1A0B02"/>
<path d="M183.981 12.4143C183.981 10.9095 182.811 9.68569 181.149 9.68569C179.229 9.68569 178.124 10.658 177.831 12.4143H183.981ZM177.801 15.6398C177.966 17.4887 179.066 18.8051 181.087 18.8051C182.124 18.8051 183.26 18.4301 183.787 17.6476H189.805C188.501 21.1571 184.956 22.7884 181.119 22.7884C175.72 22.7884 171.654 19.7188 171.654 14.2956C171.654 9.56222 175.232 5.70703 180.565 5.70703C187.265 5.70703 190.157 9.31067 190.157 15.6429H177.801V15.6398Z" fill="#1A0B02"/>
<path d="M68.7905 238.482C68.3469 238.687 67.3652 239.002 66.1129 239.002C63.2992 239.002 61.4688 237.164 61.4688 234.414C61.4688 231.65 63.4337 229.625 66.478 229.625C67.4789 229.625 68.3661 229.866 68.8289 230.107L68.443 231.35C68.041 231.147 67.4053 230.923 66.478 230.923C64.3401 230.923 63.1839 232.466 63.1839 234.321C63.1839 236.402 64.5707 237.683 66.4204 237.683C67.386 237.683 68.0202 237.457 68.5006 237.255L68.7905 238.482Z" fill="#1A0B02"/>
<path d="M79.0946 234.23C79.0946 237.551 76.686 239.001 74.4536 239.001C71.949 239.001 69.9824 237.218 69.9824 234.377C69.9824 231.387 72.0451 229.625 74.6074 229.625C77.2833 229.625 79.0946 231.499 79.0946 234.23ZM71.7168 234.321C71.7168 236.291 72.873 237.775 74.5305 237.775C76.1479 237.775 77.3618 236.309 77.3618 234.284C77.3618 232.764 76.5723 230.847 74.5689 230.847C72.5847 230.849 71.7168 232.631 71.7168 234.321Z" fill="#1A0B02"/>
<path d="M89.2661 225.613V236.474C89.2661 237.273 89.3045 238.18 89.3429 238.795H87.8392L87.7639 237.233H87.7063C87.205 238.238 86.0888 238.998 84.5659 238.998C82.3111 238.998 80.5607 237.16 80.5607 234.432C80.5415 231.441 82.4872 229.623 84.7404 229.623C86.1865 229.623 87.1282 230.273 87.5525 230.979H87.591V225.613H89.2661ZM87.591 233.466C87.591 233.259 87.5717 232.984 87.5141 232.78C87.2627 231.759 86.3402 230.902 85.0687 230.902C83.3151 230.902 82.2726 232.388 82.2726 234.356C82.2726 236.176 83.2175 237.679 85.0287 237.679C86.1657 237.679 87.205 236.938 87.5141 235.731C87.5717 235.506 87.591 235.285 87.591 235.023V233.466Z" fill="#1A0B02"/>
<path d="M91.5029 237.826C91.5029 237.156 91.9818 236.656 92.6576 236.656C93.3302 236.656 93.7946 237.138 93.7946 237.826C93.7946 238.494 93.3302 238.996 92.6191 238.996C91.9626 238.996 91.5029 238.494 91.5029 237.826Z" fill="#1A0B02"/>
<path d="M105.117 238.524C103.932 238.524 102.996 238.087 102.31 237.212C101.635 236.337 101.297 235.04 101.297 233.322C101.297 232.031 101.491 230.954 101.878 230.089C102.266 229.225 102.786 228.574 103.439 228.137C104.104 227.699 104.851 227.48 105.681 227.48C106.39 227.48 106.999 227.609 107.508 227.865C108.018 228.121 108.416 228.553 108.704 229.161L107.359 229.817C107.182 229.454 106.944 229.182 106.645 229.001C106.346 228.82 106.019 228.729 105.665 228.729C104.89 228.729 104.242 229.081 103.722 229.785C103.201 230.489 102.93 231.578 102.908 233.05C103.229 232.623 103.628 232.314 104.104 232.122C104.58 231.919 105.072 231.818 105.582 231.818C106.146 231.818 106.683 231.941 107.193 232.186C107.713 232.421 108.134 232.768 108.455 233.226C108.787 233.685 108.953 234.245 108.953 234.907C108.953 235.494 108.809 236.065 108.521 236.619C108.233 237.174 107.802 237.633 107.226 237.996C106.661 238.348 105.958 238.524 105.117 238.524ZM105.283 237.276C105.681 237.276 106.041 237.18 106.362 236.988C106.683 236.796 106.938 236.539 107.126 236.219C107.326 235.889 107.425 235.526 107.425 235.131C107.425 234.725 107.326 234.363 107.126 234.043C106.938 233.712 106.683 233.45 106.362 233.258C106.041 233.066 105.681 232.97 105.283 232.97C104.895 232.97 104.535 233.066 104.203 233.258C103.882 233.45 103.628 233.712 103.439 234.043C103.251 234.363 103.157 234.725 103.157 235.131C103.157 235.526 103.251 235.889 103.439 236.219C103.628 236.539 103.882 236.796 104.203 236.988C104.535 237.18 104.895 237.276 105.283 237.276Z" fill="#1A0B02"/>
<path d="M115.768 238.524C114.97 238.524 114.256 238.316 113.625 237.9C112.994 237.484 112.496 236.865 112.13 236.043C111.776 235.222 111.599 234.203 111.599 232.986C111.599 231.77 111.776 230.756 112.13 229.945C112.496 229.124 112.994 228.51 113.625 228.105C114.256 227.689 114.97 227.48 115.768 227.48C116.565 227.48 117.279 227.689 117.91 228.105C118.541 228.51 119.039 229.124 119.405 229.945C119.77 230.756 119.953 231.77 119.953 232.986C119.953 234.203 119.77 235.222 119.405 236.043C119.039 236.865 118.541 237.484 117.91 237.9C117.279 238.316 116.565 238.524 115.768 238.524ZM115.768 237.276C116.52 237.276 117.135 236.924 117.611 236.219C118.098 235.515 118.342 234.437 118.342 232.986C118.342 231.546 118.098 230.479 117.611 229.785C117.135 229.081 116.52 228.729 115.768 228.729C115.026 228.729 114.411 229.081 113.924 229.785C113.448 230.479 113.21 231.546 113.21 232.986C113.21 234.437 113.448 235.515 113.924 236.219C114.411 236.924 115.026 237.276 115.768 237.276Z" fill="#1A0B02"/>
<path d="M123.059 238.284L127.294 228.969H121.947V227.721H129.088V228.425L124.637 238.284H123.059Z" fill="#1A0B02"/>
</svg>
