<svg width="80" height="80" viewBox="0 0 80 80" fill="none" xmlns="http://www.w3.org/2000/svg">
<path fill-rule="evenodd" clip-rule="evenodd" d="M64.6668 68.6704H15.3335C13.1244 68.6704 11.3335 66.8795 11.3335 64.6704V15.332C11.3335 13.1229 13.1244 11.332 15.3335 11.332H64.6668C66.876 11.332 68.6668 13.1229 68.6668 15.332V64.6704C68.6668 66.8795 66.876 68.6704 64.6668 68.6704ZM13.3335 64.6704C13.3335 65.775 14.2289 66.6704 15.3335 66.6704H64.6668C65.7714 66.6704 66.6668 65.775 66.6668 64.6704V15.332C66.6668 14.2275 65.7714 13.332 64.6668 13.332H15.3335C14.2289 13.332 13.3335 14.2275 13.3335 15.332V64.6704ZM42.3335 21.666C42.3335 21.1137 42.7812 20.666 43.3335 20.666H60.0002C60.5525 20.666 61.0002 21.1137 61.0002 21.666C61.0002 22.2183 60.5525 22.666 60.0002 22.666H43.3335C42.7812 22.666 42.3335 22.2183 42.3335 21.666ZM42.3335 46.666C42.3335 46.1137 42.7812 45.666 43.3335 45.666H60.0002C60.5525 45.666 61.0002 46.1137 61.0002 46.666C61.0002 47.2183 60.5525 47.666 60.0002 47.666H43.3335C42.7812 47.666 42.3335 47.2183 42.3335 46.666ZM43.3335 30.666C42.7812 30.666 42.3335 31.1137 42.3335 31.666C42.3335 32.2183 42.7812 32.666 43.3335 32.666H53.3335C53.8858 32.666 54.3335 32.2183 54.3335 31.666C54.3335 31.1137 53.8858 30.666 53.3335 30.666H43.3335ZM42.3335 56.666C42.3335 56.1137 42.7812 55.666 43.3335 55.666H53.3335C53.8858 55.666 54.3335 56.1137 54.3335 56.666C54.3335 57.2183 53.8858 57.666 53.3335 57.666H43.3335C42.7812 57.666 42.3335 57.2183 42.3335 56.666ZM33.9737 20.8978C34.398 21.2514 34.4553 21.8819 34.1017 22.3062L25.7676 32.3062C25.4349 32.7054 24.8519 32.7832 24.4262 32.4854L19.4269 28.988C18.9744 28.6714 18.8642 28.048 19.1808 27.5954C19.4974 27.1429 20.1209 27.0327 20.5734 27.3492L24.8196 30.3198L32.5653 21.0258C32.9189 20.6015 33.5495 20.5442 33.9737 20.8978ZM34.1017 47.3062C34.4553 46.8819 34.398 46.2514 33.9737 45.8978C33.5495 45.5442 32.9189 45.6015 32.5653 46.0257L24.8196 55.3198L20.5734 52.3492C20.1209 52.0327 19.4974 52.1429 19.1808 52.5954C18.8642 53.0479 18.9744 53.6714 19.4269 53.988L24.4262 57.4854C24.8519 57.7832 25.4349 57.7054 25.7676 57.3062L34.1017 47.3062Z" fill="#1A0B02"/>
<path d="M34.1017 22.3062L32.9494 21.3459L34.1017 22.3062ZM33.9737 20.8978L33.0134 22.0501L33.0134 22.0501L33.9737 20.8978ZM25.7676 32.3062L26.9199 33.2665L25.7676 32.3062ZM24.4262 32.4854L23.5663 33.7145L24.4262 32.4854ZM19.4269 28.988L18.5671 30.2171H18.5671L19.4269 28.988ZM19.1808 27.5954L20.4099 28.4553L20.4099 28.4553L19.1808 27.5954ZM20.5734 27.3492L21.4332 26.1201H21.4332L20.5734 27.3492ZM24.8196 30.3198L23.9597 31.5489L25.0893 32.3391L25.9719 31.2801L24.8196 30.3198ZM32.5653 21.0258L33.7176 21.9861L33.7176 21.9861L32.5653 21.0258ZM33.9737 45.8978L33.0134 47.0501L33.0134 47.0501L33.9737 45.8978ZM34.1017 47.3062L32.9494 46.3459H32.9494L34.1017 47.3062ZM32.5653 46.0257L33.7176 46.9861H33.7176L32.5653 46.0257ZM24.8196 55.3198L23.9597 56.5489L25.0893 57.3391L25.9719 56.2801L24.8196 55.3198ZM20.5734 52.3492L21.4332 51.1201L20.5734 52.3492ZM19.1808 52.5954L20.4099 53.4553L20.4099 53.4552L19.1808 52.5954ZM19.4269 53.988L18.5671 55.2171H18.5671L19.4269 53.988ZM24.4262 57.4854L23.5663 58.7145L23.5663 58.7145L24.4262 57.4854ZM25.7676 57.3062L26.9199 58.2665L26.9199 58.2665L25.7676 57.3062ZM15.3335 70.1704H64.6668V67.1704H15.3335V70.1704ZM9.8335 64.6704C9.8335 67.708 12.2959 70.1704 15.3335 70.1704V67.1704C13.9528 67.1704 12.8335 66.0511 12.8335 64.6704H9.8335ZM9.8335 15.332V64.6704H12.8335V15.332H9.8335ZM15.3335 9.83203C12.2959 9.83203 9.8335 12.2945 9.8335 15.332H12.8335C12.8335 13.9513 13.9528 12.832 15.3335 12.832V9.83203ZM64.6668 9.83203H15.3335V12.832H64.6668V9.83203ZM70.1668 15.332C70.1668 12.2945 67.7044 9.83203 64.6668 9.83203V12.832C66.0475 12.832 67.1668 13.9513 67.1668 15.332H70.1668ZM70.1668 64.6704V15.332H67.1668V64.6704H70.1668ZM64.6668 70.1704C67.7044 70.1704 70.1668 67.7079 70.1668 64.6704H67.1668C67.1668 66.0511 66.0475 67.1704 64.6668 67.1704V70.1704ZM15.3335 65.1704C15.0574 65.1704 14.8335 64.9465 14.8335 64.6704H11.8335C11.8335 66.6034 13.4005 68.1704 15.3335 68.1704V65.1704ZM64.6668 65.1704H15.3335V68.1704H64.6668V65.1704ZM65.1668 64.6704C65.1668 64.9465 64.943 65.1704 64.6668 65.1704V68.1704C66.5998 68.1704 68.1668 66.6034 68.1668 64.6704H65.1668ZM65.1668 15.332V64.6704H68.1668V15.332H65.1668ZM64.6668 14.832C64.943 14.832 65.1668 15.0559 65.1668 15.332H68.1668C68.1668 13.399 66.5998 11.832 64.6668 11.832V14.832ZM15.3335 14.832H64.6668V11.832H15.3335V14.832ZM14.8335 15.332C14.8335 15.0559 15.0574 14.832 15.3335 14.832V11.832C13.4005 11.832 11.8335 13.399 11.8335 15.332H14.8335ZM14.8335 64.6704V15.332H11.8335V64.6704H14.8335ZM43.3335 19.166C41.9528 19.166 40.8335 20.2853 40.8335 21.666H43.8335C43.8335 21.9421 43.6096 22.166 43.3335 22.166V19.166ZM60.0002 19.166H43.3335V22.166H60.0002V19.166ZM62.5002 21.666C62.5002 20.2853 61.3809 19.166 60.0002 19.166V22.166C59.724 22.166 59.5002 21.9421 59.5002 21.666H62.5002ZM60.0002 24.166C61.3809 24.166 62.5002 23.0467 62.5002 21.666H59.5002C59.5002 21.3898 59.724 21.166 60.0002 21.166V24.166ZM43.3335 24.166H60.0002V21.166H43.3335V24.166ZM40.8335 21.666C40.8335 23.0467 41.9528 24.166 43.3335 24.166V21.166C43.6096 21.166 43.8335 21.3898 43.8335 21.666H40.8335ZM43.3335 44.166C41.9528 44.166 40.8335 45.2853 40.8335 46.666H43.8335C43.8335 46.9421 43.6096 47.166 43.3335 47.166V44.166ZM60.0002 44.166H43.3335V47.166H60.0002V44.166ZM62.5002 46.666C62.5002 45.2853 61.3809 44.166 60.0002 44.166V47.166C59.724 47.166 59.5002 46.9421 59.5002 46.666H62.5002ZM60.0002 49.166C61.3809 49.166 62.5002 48.0467 62.5002 46.666H59.5002C59.5002 46.3898 59.724 46.166 60.0002 46.166V49.166ZM43.3335 49.166H60.0002V46.166H43.3335V49.166ZM40.8335 46.666C40.8335 48.0467 41.9528 49.166 43.3335 49.166V46.166C43.6096 46.166 43.8335 46.3898 43.8335 46.666H40.8335ZM43.8335 31.666C43.8335 31.9421 43.6096 32.166 43.3335 32.166V29.166C41.9528 29.166 40.8335 30.2853 40.8335 31.666H43.8335ZM43.3335 31.166C43.6096 31.166 43.8335 31.3898 43.8335 31.666H40.8335C40.8335 33.0467 41.9528 34.166 43.3335 34.166V31.166ZM53.3335 31.166H43.3335V34.166H53.3335V31.166ZM52.8335 31.666C52.8335 31.3898 53.0574 31.166 53.3335 31.166V34.166C54.7142 34.166 55.8335 33.0467 55.8335 31.666H52.8335ZM53.3335 32.166C53.0574 32.166 52.8335 31.9421 52.8335 31.666H55.8335C55.8335 30.2853 54.7142 29.166 53.3335 29.166V32.166ZM43.3335 32.166H53.3335V29.166H43.3335V32.166ZM43.3335 54.166C41.9528 54.166 40.8335 55.2853 40.8335 56.666H43.8335C43.8335 56.9421 43.6096 57.166 43.3335 57.166V54.166ZM53.3335 54.166H43.3335V57.166H53.3335V54.166ZM55.8335 56.666C55.8335 55.2853 54.7142 54.166 53.3335 54.166V57.166C53.0574 57.166 52.8335 56.9421 52.8335 56.666H55.8335ZM53.3335 59.166C54.7142 59.166 55.8335 58.0467 55.8335 56.666H52.8335C52.8335 56.3898 53.0574 56.166 53.3335 56.166V59.166ZM43.3335 59.166H53.3335V56.166H43.3335V59.166ZM40.8335 56.666C40.8335 58.0467 41.9528 59.166 43.3335 59.166V56.166C43.6096 56.166 43.8335 56.3898 43.8335 56.666H40.8335ZM35.254 23.2665C36.138 22.2059 35.9947 20.6295 34.9341 19.7455L33.0134 22.0501C32.8013 21.8733 32.7726 21.558 32.9494 21.3459L35.254 23.2665ZM26.9199 33.2665L35.254 23.2665L32.9494 21.3459L24.6153 31.3459L26.9199 33.2665ZM23.5663 33.7145C24.6308 34.4591 26.0882 34.2645 26.9199 33.2665L24.6153 31.3459C24.7816 31.1463 25.0731 31.1073 25.286 31.2563L23.5663 33.7145ZM18.5671 30.2171L23.5663 33.7145L25.286 31.2563L20.2868 27.7589L18.5671 30.2171ZM17.9517 26.7356C17.1602 27.8669 17.4357 29.4257 18.5671 30.2171L20.2868 27.7589C20.513 27.9172 20.5682 28.229 20.4099 28.4553L17.9517 26.7356ZM21.4332 26.1201C20.3019 25.3287 18.7431 25.6042 17.9517 26.7356L20.4099 28.4553C20.2516 28.6815 19.9398 28.7366 19.7135 28.5783L21.4332 26.1201ZM25.6794 29.0907L21.4332 26.1201L19.7135 28.5783L23.9597 31.5489L25.6794 29.0907ZM31.413 20.0654L23.6673 29.3594L25.9719 31.2801L33.7176 21.9861L31.413 20.0654ZM34.9341 19.7455C33.8734 18.8615 32.297 19.0048 31.413 20.0654L33.7176 21.9861C33.5408 22.1982 33.2255 22.2269 33.0134 22.0501L34.9341 19.7455ZM33.0134 47.0501C32.8013 46.8733 32.7726 46.558 32.9494 46.3459L35.254 48.2665C36.138 47.2059 35.9947 45.6295 34.9341 44.7455L33.0134 47.0501ZM33.7176 46.9861C33.5408 47.1982 33.2255 47.2269 33.0134 47.0501L34.9341 44.7455C33.8734 43.8615 32.297 44.0048 31.413 45.0654L33.7176 46.9861ZM25.9719 56.2801L33.7176 46.9861L31.413 45.0654L23.6673 54.3594L25.9719 56.2801ZM19.7135 53.5783L23.9597 56.5489L25.6794 54.0907L21.4332 51.1201L19.7135 53.5783ZM20.4099 53.4552C20.2516 53.6815 19.9398 53.7366 19.7135 53.5783L21.4332 51.1201C20.3019 50.3287 18.7431 50.6042 17.9517 51.7356L20.4099 53.4552ZM20.2868 52.7589C20.513 52.9172 20.5682 53.229 20.4099 53.4553L17.9517 51.7356C17.1602 52.8669 17.4357 54.4257 18.5671 55.2171L20.2868 52.7589ZM25.286 56.2563L20.2868 52.7589L18.5671 55.2171L23.5663 58.7145L25.286 56.2563ZM24.6153 56.3459C24.7816 56.1463 25.0731 56.1073 25.286 56.2563L23.5663 58.7145C24.6308 59.4591 26.0882 59.2644 26.9199 58.2665L24.6153 56.3459ZM32.9494 46.3459L24.6153 56.3459L26.9199 58.2665L35.254 48.2665L32.9494 46.3459Z" fill="#1A0B02"/>
</svg>
