<svg width="80" height="80" viewBox="0 0 80 80" fill="none" xmlns="http://www.w3.org/2000/svg">
<path fill-rule="evenodd" clip-rule="evenodd" d="M40.4853 13.786C40.1833 13.6182 39.8161 13.6182 39.514 13.786L17.45 26.0438C17.5856 26.2145 17.6666 26.4305 17.6666 26.6654V64.6653C17.6666 65.2176 18.1143 65.6653 18.6666 65.6653H32.3332V46.6653C32.3332 46.113 32.781 45.6653 33.3332 45.6653H46.6666C47.2189 45.6653 47.6666 46.113 47.6666 46.6653V65.6653H61.3332C61.8855 65.6653 62.3332 65.2176 62.3332 64.6653V28.3597C62.3332 27.8074 62.781 27.3597 63.3332 27.3597C63.8855 27.3597 64.3332 27.8074 64.3332 28.3597V64.6653C64.3332 66.3222 62.9901 67.6653 61.3332 67.6653H18.6666C17.0097 67.6653 15.6666 66.3222 15.6666 64.6653V27.0346L10.4853 29.9131C10.0026 30.1813 9.39375 30.0073 9.12554 29.5245C8.85732 29.0418 9.03127 28.433 9.51405 28.1647L38.5428 12.0377C39.4488 11.5343 40.5506 11.5343 41.4566 12.0377L70.4853 28.1647C70.9681 28.433 71.142 29.0418 70.8738 29.5245C70.6056 30.0073 69.9968 30.1813 69.514 29.9131L40.4853 13.786ZM45.6666 65.6653V47.6653H34.3332V65.6653H45.6666Z" fill="#1A0B02"/>
<path d="M39.514 13.786L40.2425 15.0972L40.2425 15.0972L39.514 13.786ZM40.4853 13.786L39.7569 15.0972L39.7569 15.0972L40.4853 13.786ZM17.45 26.0438L16.7215 24.7326L15.175 25.5918L16.2755 26.9769L17.45 26.0438ZM32.3332 65.6653V67.1653H33.8332V65.6653H32.3332ZM47.6666 65.6653H46.1666V67.1653H47.6666V65.6653ZM15.6666 27.0346H17.1666V24.4853L14.9381 25.7234L15.6666 27.0346ZM10.4853 29.9131L9.75687 28.6018H9.75687L10.4853 29.9131ZM9.12554 29.5245L10.4368 28.7961H10.4368L9.12554 29.5245ZM9.51405 28.1647L8.78559 26.8535L8.78559 26.8535L9.51405 28.1647ZM38.5428 12.0377L39.2712 13.3489V13.3489L38.5428 12.0377ZM41.4566 12.0377L40.7282 13.3489L40.7282 13.3489L41.4566 12.0377ZM70.4853 28.1647L69.7569 29.476H69.7569L70.4853 28.1647ZM70.8738 29.5245L72.1851 30.253L72.1851 30.253L70.8738 29.5245ZM69.514 29.9131L68.7856 31.2243H68.7856L69.514 29.9131ZM45.6666 65.6653V67.1653H47.1666V65.6653H45.6666ZM45.6666 47.6653H47.1666V46.1653H45.6666V47.6653ZM34.3332 47.6653V46.1653H32.8332V47.6653H34.3332ZM34.3332 65.6653H32.8332V67.1653H34.3332V65.6653ZM40.2425 15.0972C40.0915 15.1811 39.9079 15.1811 39.7569 15.0972L41.2138 12.4748C40.4587 12.0553 39.5406 12.0553 38.7856 12.4748L40.2425 15.0972ZM18.1784 27.3551L40.2425 15.0972L38.7856 12.4748L16.7215 24.7326L18.1784 27.3551ZM19.1666 26.6654C19.1666 26.0796 18.9632 25.5372 18.6244 25.1107L16.2755 26.9769C16.2079 26.8918 16.1666 26.7814 16.1666 26.6654H19.1666ZM19.1666 64.6653V26.6654H16.1666V64.6653H19.1666ZM18.6666 64.1653C18.9427 64.1653 19.1666 64.3892 19.1666 64.6653H16.1666C16.1666 66.046 17.2859 67.1653 18.6666 67.1653V64.1653ZM32.3332 64.1653H18.6666V67.1653H32.3332V64.1653ZM33.8332 65.6653V46.6653H30.8332V65.6653H33.8332ZM33.8332 46.6653C33.8332 46.9414 33.6094 47.1653 33.3332 47.1653V44.1653C31.9525 44.1653 30.8332 45.2846 30.8332 46.6653H33.8332ZM33.3332 47.1653H46.6666V44.1653H33.3332V47.1653ZM46.6666 47.1653C46.3904 47.1653 46.1666 46.9414 46.1666 46.6653H49.1666C49.1666 45.2846 48.0473 44.1653 46.6666 44.1653V47.1653ZM46.1666 46.6653V65.6653H49.1666V46.6653H46.1666ZM61.3332 64.1653H47.6666V67.1653H61.3332V64.1653ZM60.8332 64.6653C60.8332 64.3892 61.0571 64.1653 61.3332 64.1653V67.1653C62.7139 67.1653 63.8332 66.046 63.8332 64.6653H60.8332ZM60.8332 28.3597V64.6653H63.8332V28.3597H60.8332ZM63.3332 25.8597C61.9525 25.8597 60.8332 26.979 60.8332 28.3597H63.8332C63.8332 28.6358 63.6094 28.8597 63.3332 28.8597V25.8597ZM65.8332 28.3597C65.8332 26.979 64.7139 25.8597 63.3332 25.8597V28.8597C63.0571 28.8597 62.8332 28.6358 62.8332 28.3597H65.8332ZM65.8332 64.6653V28.3597H62.8332V64.6653H65.8332ZM61.3332 69.1653C63.8185 69.1653 65.8332 67.1506 65.8332 64.6653H62.8332C62.8332 65.4937 62.1617 66.1653 61.3332 66.1653V69.1653ZM18.6666 69.1653H61.3332V66.1653H18.6666V69.1653ZM14.1666 64.6653C14.1666 67.1506 16.1813 69.1653 18.6666 69.1653V66.1653C17.8381 66.1653 17.1666 65.4937 17.1666 64.6653H14.1666ZM14.1666 27.0346V64.6653H17.1666V27.0346H14.1666ZM11.2138 31.2243L16.395 28.3458L14.9381 25.7234L9.75687 28.6018L11.2138 31.2243ZM7.8143 30.253C8.48483 31.46 10.0068 31.8948 11.2138 31.2243L9.75687 28.6018C9.99826 28.4677 10.3027 28.5547 10.4368 28.7961L7.8143 30.253ZM8.78559 26.8535C7.57863 27.524 7.14377 29.0461 7.8143 30.253L10.4368 28.7961C10.5709 29.0375 10.4839 29.3419 10.2425 29.476L8.78559 26.8535ZM37.8143 10.7264L8.78559 26.8535L10.2425 29.476L39.2712 13.3489L37.8143 10.7264ZM42.1851 10.7264C40.826 9.97139 39.1734 9.97139 37.8143 10.7264L39.2712 13.3489C39.7243 13.0972 40.2751 13.0972 40.7282 13.3489L42.1851 10.7264ZM71.2138 26.8535L42.1851 10.7264L40.7282 13.3489L69.7569 29.476L71.2138 26.8535ZM72.1851 30.253C72.8556 29.0461 72.4207 27.524 71.2138 26.8535L69.7569 29.476C69.5155 29.3419 69.4285 29.0375 69.5626 28.7961L72.1851 30.253ZM68.7856 31.2243C69.9925 31.8948 71.5145 31.46 72.1851 30.253L69.5626 28.7961C69.6967 28.5547 70.0011 28.4677 70.2425 28.6018L68.7856 31.2243ZM39.7569 15.0972L68.7856 31.2243L70.2425 28.6018L41.2138 12.4748L39.7569 15.0972ZM47.1666 65.6653V47.6653H44.1666V65.6653H47.1666ZM45.6666 46.1653H34.3332V49.1653H45.6666V46.1653ZM32.8332 47.6653V65.6653H35.8332V47.6653H32.8332ZM45.6666 64.1653H34.3332V67.1653H45.6666V64.1653Z" fill="#1A0B02"/>
</svg>
