<svg width="80" height="80" viewBox="0 0 80 80" fill="none" xmlns="http://www.w3.org/2000/svg">
<path fill-rule="evenodd" clip-rule="evenodd" d="M58.8077 10.614C57.5935 9.49539 55.7038 9.56793 54.579 10.7763L14.2681 54.0836C14.1694 54.1896 14.095 54.3157 14.0499 54.4532L9.04988 69.6893C8.93177 70.0492 9.02715 70.4449 9.29624 70.7115C9.56534 70.9781 9.96196 71.0698 10.3207 70.9483L25.3207 65.8695C25.4811 65.8152 25.625 65.7211 25.739 65.596L66.0655 21.3583C67.1775 20.1385 67.0951 18.2494 65.8811 17.131L58.8077 10.614ZM56.0429 12.139C56.4179 11.7362 57.0478 11.712 57.4525 12.0849L64.526 18.6019C64.9306 18.9747 64.9581 19.6044 64.5874 20.011L24.4349 64.0579L11.5738 68.4125L15.8817 55.2855L56.0429 12.139ZM30.0001 69.0013C29.4478 69.0013 29.0001 69.449 29.0001 70.0013C29.0001 70.5536 29.4478 71.0013 30.0001 71.0013H70.0001C70.5524 71.0013 71.0001 70.5536 71.0001 70.0013C71.0001 69.449 70.5524 69.0013 70.0001 69.0013H30.0001Z" fill="#1A0B02"/>
<path d="M54.579 10.7763L53.481 9.75434V9.75434L54.579 10.7763ZM58.8077 10.614L57.7913 11.7172V11.7172L58.8077 10.614ZM14.2681 54.0836L13.1701 53.0617L13.1701 53.0617L14.2681 54.0836ZM14.0499 54.4532L15.4751 54.9209L15.4751 54.9209L14.0499 54.4532ZM9.04988 69.6893L7.62466 69.2216H7.62466L9.04988 69.6893ZM9.29624 70.7115L10.3519 69.6459L10.3519 69.6459L9.29624 70.7115ZM10.3207 70.9483L10.8018 72.3691L10.8018 72.3691L10.3207 70.9483ZM25.3207 65.8695L25.8018 67.2902L25.8018 67.2902L25.3207 65.8695ZM25.739 65.596L26.8476 66.6065V66.6065L25.739 65.596ZM66.0655 21.3583L64.9569 20.3478V20.3478L66.0655 21.3583ZM65.8811 17.131L64.8648 18.2341L65.8811 17.131ZM57.4525 12.0849L56.4361 13.188V13.188L57.4525 12.0849ZM56.0429 12.139L54.945 11.117V11.117L56.0429 12.139ZM64.526 18.6019L65.5424 17.4987V17.4987L64.526 18.6019ZM64.5874 20.011L63.4789 19.0005L63.4789 19.0005L64.5874 20.011ZM24.4349 64.0579L24.9159 65.4786C25.1564 65.3972 25.3723 65.256 25.5434 65.0684L24.4349 64.0579ZM11.5738 68.4125L10.1486 67.9448C9.97146 68.4846 10.1145 69.0782 10.5182 69.4781C10.9218 69.878 11.5167 70.0155 12.0549 69.8332L11.5738 68.4125ZM15.8817 55.2855L14.7837 54.2635C14.6358 54.4224 14.5241 54.6115 14.4565 54.8178L15.8817 55.2855ZM55.677 11.7983C56.2394 11.1941 57.1842 11.1579 57.7913 11.7172L59.8241 9.51082C58.0029 7.83291 55.1682 7.94173 53.481 9.75434L55.677 11.7983ZM15.366 55.1056L55.677 11.7983L53.481 9.75434L13.1701 53.0617L15.366 55.1056ZM15.4751 54.9209C15.4525 54.9896 15.4153 55.0527 15.366 55.1056L13.1701 53.0617C12.9236 53.3265 12.7375 53.6417 12.6247 53.9855L15.4751 54.9209ZM10.4751 70.157L15.4751 54.9209L12.6247 53.9855L7.62466 69.2216L10.4751 70.157ZM10.3519 69.6459C10.4865 69.7792 10.5342 69.9771 10.4751 70.157L7.62466 69.2216C7.3294 70.1213 7.56783 71.1107 8.24058 71.7772L10.3519 69.6459ZM9.83968 69.5275C10.0191 69.4668 10.2174 69.5126 10.3519 69.6459L8.24057 71.7771C8.91331 72.4436 9.90485 72.6727 10.8018 72.3691L9.83968 69.5275ZM24.8397 64.4487L9.83968 69.5275L10.8018 72.3691L25.8018 67.2902L24.8397 64.4487ZM24.6305 64.5854C24.6875 64.5229 24.7595 64.4758 24.8397 64.4487L25.8018 67.2902C26.2026 67.1545 26.5625 66.9192 26.8476 66.6065L24.6305 64.5854ZM64.9569 20.3478L24.6305 64.5854L26.8476 66.6065L67.174 22.3689L64.9569 20.3478ZM64.8648 18.2341C65.4718 18.7934 65.5129 19.7379 64.9569 20.3478L67.174 22.3689C68.842 20.5391 68.7185 17.7055 66.8975 16.0278L64.8648 18.2341ZM57.7913 11.7172L64.8648 18.2341L66.8975 16.0278L59.8241 9.51082L57.7913 11.7172ZM58.4689 10.9817C57.4571 10.0495 55.8823 10.11 54.945 11.117L57.1409 13.161C56.9534 13.3624 56.6385 13.3745 56.4361 13.188L58.4689 10.9817ZM65.5424 17.4987L58.4689 10.9817L56.4361 13.188L63.5096 19.705L65.5424 17.4987ZM65.6959 21.0215C66.6226 20.0049 66.554 18.4307 65.5424 17.4987L63.5096 19.705C63.3073 19.5186 63.2935 19.2038 63.4789 19.0005L65.6959 21.0215ZM25.5434 65.0684L65.6959 21.0215L63.4789 19.0005L23.3263 63.0473L25.5434 65.0684ZM12.0549 69.8332L24.9159 65.4786L23.9538 62.6371L11.0928 66.9917L12.0549 69.8332ZM14.4565 54.8178L10.1486 67.9448L12.9991 68.8802L17.3069 55.7532L14.4565 54.8178ZM54.945 11.117L14.7837 54.2635L16.9796 56.3075L57.1409 13.161L54.945 11.117ZM30.5001 70.0013C30.5001 70.2774 30.2762 70.5013 30.0001 70.5013V67.5013C28.6194 67.5013 27.5001 68.6206 27.5001 70.0013H30.5001ZM30.0001 69.5013C30.2762 69.5013 30.5001 69.7251 30.5001 70.0013H27.5001C27.5001 71.382 28.6194 72.5013 30.0001 72.5013V69.5013ZM70.0001 69.5013H30.0001V72.5013H70.0001V69.5013ZM69.5001 70.0013C69.5001 69.7251 69.7239 69.5013 70.0001 69.5013V72.5013C71.3808 72.5013 72.5001 71.382 72.5001 70.0013H69.5001ZM70.0001 70.5013C69.7239 70.5013 69.5001 70.2774 69.5001 70.0013H72.5001C72.5001 68.6206 71.3808 67.5013 70.0001 67.5013V70.5013ZM30.0001 70.5013H70.0001V67.5013H30.0001V70.5013Z" fill="#1A0B02"/>
</svg>
