<svg width="80" height="80" viewBox="0 0 80 80" fill="none" xmlns="http://www.w3.org/2000/svg">
<path fill-rule="evenodd" clip-rule="evenodd" d="M54.6667 23.3346C54.6667 31.4348 48.1002 38.0013 40 38.0013C31.8998 38.0013 25.3333 31.4348 25.3333 23.3346C25.3333 15.2345 31.8998 8.66797 40 8.66797C48.1002 8.66797 54.6667 15.2345 54.6667 23.3346ZM56.6667 23.3346C56.6667 32.5394 49.2047 40.0013 40 40.0013C30.7953 40.0013 23.3333 32.5394 23.3333 23.3346C23.3333 14.1299 30.7953 6.66797 40 6.66797C49.2047 6.66797 56.6667 14.1299 56.6667 23.3346ZM60 15.668C59.4477 15.668 59 16.1157 59 16.668C59 17.2203 59.4477 17.668 60 17.668C64.9706 17.668 69 21.6974 69 26.668C69 31.6385 64.9706 35.668 60 35.668C59.4477 35.668 59 36.1157 59 36.668C59 37.2203 59.4477 37.668 60 37.668C66.0751 37.668 71 32.7431 71 26.668C71 20.5928 66.0751 15.668 60 15.668ZM21 46.668C21 46.1157 20.5523 45.668 20 45.668H12C10.3431 45.668 9 47.0111 9 48.668V70.0013C9 70.5536 9.44771 71.0013 10 71.0013C10.5523 71.0013 11 70.5536 11 70.0013V48.668C11 48.1157 11.4477 47.668 12 47.668H20C20.5523 47.668 21 47.2203 21 46.668ZM28.6667 45.668C27.0098 45.668 25.6667 47.0111 25.6667 48.668V66.668C25.6667 67.2203 26.1144 67.668 26.6667 67.668C27.219 67.668 27.6667 67.2203 27.6667 66.668V48.668C27.6667 48.1157 28.1144 47.668 28.6667 47.668H51.3333C51.8856 47.668 52.3333 48.1157 52.3333 48.668V66.668C52.3333 67.2203 52.781 67.668 53.3333 67.668C53.8856 67.668 54.3333 67.2203 54.3333 66.668V48.668C54.3333 47.0111 52.9902 45.668 51.3333 45.668H28.6667ZM60 45.668C59.4477 45.668 59 46.1157 59 46.668C59 47.2203 59.4477 47.668 60 47.668H68C68.5523 47.668 69 48.1157 69 48.668V70.0013C69 70.5536 69.4477 71.0013 70 71.0013C70.5523 71.0013 71 70.5536 71 70.0013V48.668C71 47.0111 69.6569 45.668 68 45.668H60ZM21 16.668C21 16.1157 20.5523 15.668 20 15.668C13.9249 15.668 9 20.5928 9 26.668C9 32.7431 13.9249 37.668 20 37.668C20.5523 37.668 21 37.2203 21 36.668C21 36.1157 20.5523 35.668 20 35.668C15.0294 35.668 11 31.6385 11 26.668C11 21.6974 15.0294 17.668 20 17.668C20.5523 17.668 21 17.2203 21 16.668Z" fill="#1A0B02"/>
<path d="M40 39.5013C48.9286 39.5013 56.1667 32.2632 56.1667 23.3346H53.1667C53.1667 30.6064 47.2717 36.5013 40 36.5013V39.5013ZM23.8333 23.3346C23.8333 32.2632 31.0714 39.5013 40 39.5013V36.5013C32.7283 36.5013 26.8333 30.6064 26.8333 23.3346H23.8333ZM40 7.16797C31.0714 7.16797 23.8333 14.406 23.8333 23.3346H26.8333C26.8333 16.0629 32.7283 10.168 40 10.168V7.16797ZM56.1667 23.3346C56.1667 14.406 48.9286 7.16797 40 7.16797V10.168C47.2717 10.168 53.1667 16.0629 53.1667 23.3346H56.1667ZM40 41.5013C50.0332 41.5013 58.1667 33.3678 58.1667 23.3346H55.1667C55.1667 31.711 48.3763 38.5013 40 38.5013V41.5013ZM21.8333 23.3346C21.8333 33.3678 29.9668 41.5013 40 41.5013V38.5013C31.6237 38.5013 24.8333 31.711 24.8333 23.3346H21.8333ZM40 5.16797C29.9668 5.16797 21.8333 13.3015 21.8333 23.3346H24.8333C24.8333 14.9583 31.6237 8.16797 40 8.16797V5.16797ZM58.1667 23.3346C58.1667 13.3015 50.0332 5.16797 40 5.16797V8.16797C48.3763 8.16797 55.1667 14.9583 55.1667 23.3346H58.1667ZM60.5 16.668C60.5 16.9441 60.2761 17.168 60 17.168V14.168C58.6193 14.168 57.5 15.2873 57.5 16.668H60.5ZM60 16.168C60.2761 16.168 60.5 16.3918 60.5 16.668H57.5C57.5 18.0487 58.6193 19.168 60 19.168V16.168ZM70.5 26.668C70.5 20.869 65.799 16.168 60 16.168V19.168C64.1421 19.168 67.5 22.5258 67.5 26.668H70.5ZM60 37.168C65.799 37.168 70.5 32.467 70.5 26.668H67.5C67.5 30.8101 64.1421 34.168 60 34.168V37.168ZM60.5 36.668C60.5 36.9441 60.2761 37.168 60 37.168V34.168C58.6193 34.168 57.5 35.2873 57.5 36.668H60.5ZM60 36.168C60.2761 36.168 60.5 36.3918 60.5 36.668H57.5C57.5 38.0487 58.6193 39.168 60 39.168V36.168ZM69.5 26.668C69.5 31.9147 65.2467 36.168 60 36.168V39.168C66.9036 39.168 72.5 33.5715 72.5 26.668H69.5ZM60 17.168C65.2467 17.168 69.5 21.4213 69.5 26.668H72.5C72.5 19.7644 66.9036 14.168 60 14.168V17.168ZM20 47.168C19.7239 47.168 19.5 46.9441 19.5 46.668H22.5C22.5 45.2873 21.3807 44.168 20 44.168V47.168ZM12 47.168H20V44.168H12V47.168ZM10.5 48.668C10.5 47.8395 11.1716 47.168 12 47.168V44.168C9.51472 44.168 7.5 46.1827 7.5 48.668H10.5ZM10.5 70.0013V48.668H7.5V70.0013H10.5ZM10 69.5013C10.2761 69.5013 10.5 69.7252 10.5 70.0013H7.5C7.5 71.382 8.61929 72.5013 10 72.5013V69.5013ZM9.5 70.0013C9.5 69.7252 9.72386 69.5013 10 69.5013V72.5013C11.3807 72.5013 12.5 71.382 12.5 70.0013H9.5ZM9.5 48.668V70.0013H12.5V48.668H9.5ZM12 46.168C10.6193 46.168 9.5 47.2873 9.5 48.668H12.5C12.5 48.9441 12.2761 49.168 12 49.168V46.168ZM20 46.168H12V49.168H20V46.168ZM19.5 46.668C19.5 46.3918 19.7239 46.168 20 46.168V49.168C21.3807 49.168 22.5 48.0487 22.5 46.668H19.5ZM27.1667 48.668C27.1667 47.8395 27.8382 47.168 28.6667 47.168V44.168C26.1814 44.168 24.1667 46.1827 24.1667 48.668H27.1667ZM27.1667 66.668V48.668H24.1667V66.668H27.1667ZM26.6667 66.168C26.9428 66.168 27.1667 66.3918 27.1667 66.668H24.1667C24.1667 68.0487 25.286 69.168 26.6667 69.168V66.168ZM26.1667 66.668C26.1667 66.3918 26.3905 66.168 26.6667 66.168V69.168C28.0474 69.168 29.1667 68.0487 29.1667 66.668H26.1667ZM26.1667 48.668V66.668H29.1667V48.668H26.1667ZM28.6667 46.168C27.286 46.168 26.1667 47.2873 26.1667 48.668H29.1667C29.1667 48.9441 28.9428 49.168 28.6667 49.168V46.168ZM51.3333 46.168H28.6667V49.168H51.3333V46.168ZM53.8333 48.668C53.8333 47.2873 52.7141 46.168 51.3333 46.168V49.168C51.0572 49.168 50.8333 48.9441 50.8333 48.668H53.8333ZM53.8333 66.668V48.668H50.8333V66.668H53.8333ZM53.3333 66.168C53.6095 66.168 53.8333 66.3918 53.8333 66.668H50.8333C50.8333 68.0487 51.9526 69.168 53.3333 69.168V66.168ZM52.8333 66.668C52.8333 66.3918 53.0572 66.168 53.3333 66.168V69.168C54.714 69.168 55.8333 68.0487 55.8333 66.668H52.8333ZM52.8333 48.668V66.668H55.8333V48.668H52.8333ZM51.3333 47.168C52.1618 47.168 52.8333 47.8395 52.8333 48.668H55.8333C55.8333 46.1827 53.8186 44.168 51.3333 44.168V47.168ZM28.6667 47.168H51.3333V44.168H28.6667V47.168ZM60.5 46.668C60.5 46.9441 60.2761 47.168 60 47.168V44.168C58.6193 44.168 57.5 45.2873 57.5 46.668H60.5ZM60 46.168C60.2761 46.168 60.5 46.3918 60.5 46.668H57.5C57.5 48.0487 58.6193 49.168 60 49.168V46.168ZM68 46.168H60V49.168H68V46.168ZM70.5 48.668C70.5 47.2873 69.3807 46.168 68 46.168V49.168C67.7239 49.168 67.5 48.9441 67.5 48.668H70.5ZM70.5 70.0013V48.668H67.5V70.0013H70.5ZM70 69.5013C70.2761 69.5013 70.5 69.7252 70.5 70.0013H67.5C67.5 71.382 68.6193 72.5013 70 72.5013V69.5013ZM69.5 70.0013C69.5 69.7252 69.7239 69.5013 70 69.5013V72.5013C71.3807 72.5013 72.5 71.382 72.5 70.0013H69.5ZM69.5 48.668V70.0013H72.5V48.668H69.5ZM68 47.168C68.8284 47.168 69.5 47.8395 69.5 48.668H72.5C72.5 46.1827 70.4853 44.168 68 44.168V47.168ZM60 47.168H68V44.168H60V47.168ZM20 17.168C19.7239 17.168 19.5 16.9441 19.5 16.668H22.5C22.5 15.2873 21.3807 14.168 20 14.168V17.168ZM10.5 26.668C10.5 21.4213 14.7533 17.168 20 17.168V14.168C13.0964 14.168 7.5 19.7644 7.5 26.668H10.5ZM20 36.168C14.7533 36.168 10.5 31.9147 10.5 26.668H7.5C7.5 33.5715 13.0964 39.168 20 39.168V36.168ZM19.5 36.668C19.5 36.3918 19.7239 36.168 20 36.168V39.168C21.3807 39.168 22.5 38.0487 22.5 36.668H19.5ZM20 37.168C19.7239 37.168 19.5 36.9441 19.5 36.668H22.5C22.5 35.2873 21.3807 34.168 20 34.168V37.168ZM9.5 26.668C9.5 32.467 14.201 37.168 20 37.168V34.168C15.8579 34.168 12.5 30.8101 12.5 26.668H9.5ZM20 16.168C14.201 16.168 9.5 20.869 9.5 26.668H12.5C12.5 22.5258 15.8579 19.168 20 19.168V16.168ZM19.5 16.668C19.5 16.3918 19.7239 16.168 20 16.168V19.168C21.3807 19.168 22.5 18.0487 22.5 16.668H19.5Z" fill="#1A0B02"/>
</svg>
