<svg width="20" height="18" viewBox="0 0 20 18" fill="none" xmlns="http://www.w3.org/2000/svg">
<path fill-rule="evenodd" clip-rule="evenodd" d="M0.5 1C0.5 0.447715 0.947715 0 1.5 0H11.5C12.0523 0 12.5 0.447715 12.5 1V2.892H18.5C19.0523 2.892 19.5 3.33971 19.5 3.892V16.5C19.5 17.0523 19.0523 17.5 18.5 17.5H3.5L3.4921 17.5H1.5C0.947715 17.5 0.5 17.0523 0.5 16.5V1ZM12.5 15.5V4.892H17.5V15.5H12.5ZM2.5 2V15.5H3.5V13C3.5 12.4477 3.94772 12 4.5 12H8.5C9.05228 12 9.5 12.4477 9.5 13V15.5H10.5V2H2.5ZM7.5 15.5H5.5V14H7.5V15.5ZM4 3C3.44772 3 3 3.44772 3 4C3 4.55228 3.44772 5 4 5H5C5.55228 5 6 4.55228 6 4C6 3.44772 5.55228 3 5 3H4ZM3 7C3 6.44772 3.44772 6 4 6H5C5.55228 6 6 6.44772 6 7C6 7.55228 5.55228 8 5 8H4C3.44772 8 3 7.55228 3 7ZM4 9C3.44772 9 3 9.44771 3 10C3 10.5523 3.44772 11 4 11H5C5.55228 11 6 10.5523 6 10C6 9.44771 5.55228 9 5 9H4ZM7 4C7 3.44772 7.44772 3 8 3H8.83942C9.3917 3 9.83942 3.44772 9.83942 4C9.83942 4.55228 9.3917 5 8.83942 5H8C7.44772 5 7 4.55228 7 4ZM8 6C7.44772 6 7 6.44772 7 7C7 7.55228 7.44772 8 8 8H8.83942C9.3917 8 9.83942 7.55228 9.83942 7C9.83942 6.44772 9.3917 6 8.83942 6H8ZM8 9C7.44772 9 7 9.44771 7 10C7 10.5523 7.44772 11 8 11H9C9.55228 11 10 10.5523 10 10C10 9.44771 9.55228 9 9 9H8Z" fill="#333333"/>
</svg>
