<svg width="52" height="52" viewBox="0 0 52 52" fill="none" xmlns="http://www.w3.org/2000/svg">
<path fill-rule="evenodd" clip-rule="evenodd" d="M36.2857 2H15.7143C8.14009 2 2 8.14009 2 15.7143V36.2857C2 43.8598 8.14009 50 15.7143 50H36.2857C43.8598 50 50 43.8598 50 36.2857V15.7143C50 8.14009 43.8598 2 36.2857 2Z" stroke="#182825" stroke-width="4" stroke-linecap="round" stroke-linejoin="round"/>
<path fill-rule="evenodd" clip-rule="evenodd" d="M25.9996 36.2843C20.3188 36.2843 15.7139 31.6794 15.7139 25.9986C15.7139 20.3178 20.3188 15.7129 25.9996 15.7129C31.6804 15.7129 36.2853 20.3178 36.2853 25.9986C36.2853 28.7264 35.2015 31.3427 33.2726 33.2716C31.3437 35.2005 28.7274 36.2843 25.9996 36.2843Z" stroke="#182825" stroke-width="4" stroke-linecap="round" stroke-linejoin="round"/>
<path d="M39.7147 8.85575C37.8212 8.85575 36.2861 10.3908 36.2861 12.2843C36.2861 14.1779 37.8212 15.7129 39.7147 15.7129C41.6083 15.7129 43.1433 14.1779 43.1433 12.2843C43.1433 10.3908 41.6083 8.85575 39.7147 8.85575Z" fill="#182825"/>
<path d="M39.7143 10.5714C38.7675 10.5714 38 11.3389 38 12.2857C38 13.2325 38.7675 14 39.7143 14C40.6611 14 41.4286 13.2325 41.4286 12.2857C41.4286 11.3389 40.6611 10.5714 39.7143 10.5714Z" stroke="#182825" stroke-width="4" stroke-linecap="round"/>
</svg>
