<svg width="1919" height="201" viewBox="0 0 1919 201" fill="none" xmlns="http://www.w3.org/2000/svg">
<path d="M0.370605 197V3.80027H42.8746V197H0.370605Z" fill="#313485"/>
<path d="M67.9734 197V3.80027H107.165L197.693 122.756V3.80027H239.645V197H203.489L109.925 74.1803V197H67.9734Z" fill="#313485"/>
<path d="M331.564 199.76C302.032 199.76 272.776 189.824 249.592 168.848L274.708 138.764C292.372 153.116 310.312 162.224 332.392 162.224C350.056 162.224 360.268 155.324 360.268 144.008V143.456C360.268 132.692 353.644 126.896 321.352 118.892C282.16 109.232 257.32 97.9163 257.32 59.8283V59.2763C257.32 24.2243 285.196 1.04027 324.94 1.04027C353.368 1.04027 376.828 9.87228 396.7 25.6043L374.62 57.6203C357.232 45.7523 340.948 38.5763 324.388 38.5763C307.828 38.5763 299.548 45.7523 299.548 55.4123V55.9643C299.548 68.9363 307.828 72.5243 341.224 81.3563C380.416 91.8443 402.496 105.644 402.496 139.316V139.868C402.496 178.232 373.24 199.76 331.564 199.76Z" fill="#313485"/>
<path d="M457.144 197V42.9923H398.356V3.80027H558.436V42.9923H499.648V197H457.144Z" fill="#313485"/>
<path d="M526.584 197L609.384 2.42027H648.576L731.376 197H686.94L669.276 153.668H587.58L569.916 197H526.584ZM602.76 116.132H654.096L628.428 53.4803L602.76 116.132Z" fill="#313485"/>
<path d="M738.011 197V3.80027H780.515V158.36H876.839V197H738.011Z" fill="#313485"/>
<path d="M885.71 197V3.80027H928.214V158.36H1024.54V197H885.71Z" fill="#313485"/>
<path d="M1016.85 197L1099.65 2.42027H1138.84L1221.64 197H1177.2L1159.54 153.668H1077.84L1060.18 197H1016.85ZM1093.02 116.132H1144.36L1118.69 53.4803L1093.02 116.132Z" fill="#313485"/>
<path d="M1222.48 197V164.708L1328.74 41.0603H1225.79V3.80027H1383.39V36.0923L1277.13 159.74H1383.39V197H1222.48Z" fill="#313485"/>
<path d="M1402.43 197V3.80027H1444.94V197H1402.43Z" fill="#313485"/>
<path d="M1563.88 200.312C1504.26 200.312 1461.48 155.876 1461.48 100.952V100.4C1461.48 45.4763 1504.81 0.488281 1564.43 0.488281C1624.04 0.488281 1666.82 44.9243 1666.82 99.8483V100.4C1666.82 155.324 1623.49 200.312 1563.88 200.312ZM1564.43 161.12C1598.65 161.12 1622.39 134.072 1622.39 100.952V100.4C1622.39 67.2803 1598.1 39.6803 1563.88 39.6803C1529.65 39.6803 1505.92 66.7283 1505.92 99.8483V100.4C1505.92 133.52 1530.2 161.12 1564.43 161.12Z" fill="#313485"/>
<path d="M1681.34 197V3.80027H1720.54L1811.06 122.756V3.80027H1853.02V197H1816.86L1723.3 74.1803V197H1681.34Z" fill="#313485"/>
<path d="M1878.14 197V3.80027H1920.65V197H1878.14Z" fill="#313485"/>
</svg>
