<svg width="1284" height="407" viewBox="0 0 1284 407" fill="none" xmlns="http://www.w3.org/2000/svg">
<path d="M271.343 203.151H0V206.619H271.343V203.151Z" fill="#FCF8F2"/>
<path d="M1055 203.151H884.124V206.745H1055V203.151Z" fill="#FCF8F2"/>
<path d="M312.416 184.814H319.279C322.164 184.814 324.657 185.237 326.759 186.083C328.861 186.889 330.489 188.077 331.643 189.649C332.797 191.18 333.374 193.013 333.374 195.148C333.374 197.444 332.838 199.418 331.767 201.07C330.736 202.682 329.356 203.931 327.625 204.817C325.894 205.663 323.977 206.086 321.875 206.086C319.773 206.046 317.671 205.522 315.569 204.515V203.911C315.569 203.911 315.899 203.971 316.558 204.092C317.259 204.213 318.145 204.273 319.217 204.273C320.288 204.233 321.422 204.052 322.617 203.729C323.812 203.367 324.925 202.722 325.955 201.795C327.027 200.869 327.872 199.539 328.49 197.807C328.655 197.364 328.758 196.84 328.799 196.236C328.882 195.631 328.923 195.067 328.923 194.544C328.923 192.086 328.057 190.152 326.326 188.742C324.595 187.332 322.205 186.627 319.155 186.627H313.096C313.096 186.627 313.035 186.486 312.911 186.204C312.829 185.882 312.726 185.579 312.602 185.297C312.478 184.975 312.416 184.814 312.416 184.814ZM313.22 184.814V221.073H309.264V184.814H313.22ZM309.387 217.206L310.191 221.073H304.812V220.469C304.812 220.469 304.957 220.469 305.245 220.469C305.534 220.469 305.678 220.469 305.678 220.469C306.667 220.469 307.491 220.147 308.151 219.502C308.851 218.857 309.222 218.092 309.264 217.206H309.387ZM309.387 188.621H309.264C309.222 187.695 308.851 186.929 308.151 186.325C307.491 185.72 306.667 185.418 305.678 185.418C305.678 185.418 305.534 185.418 305.245 185.418C304.957 185.418 304.812 185.418 304.812 185.418V184.814H310.191L309.387 188.621ZM313.035 217.206H313.158C313.2 218.092 313.55 218.857 314.209 219.502C314.91 220.147 315.755 220.469 316.744 220.469C316.785 220.469 316.929 220.469 317.177 220.469C317.465 220.469 317.609 220.469 317.609 220.469V221.073H312.231L313.035 217.206Z" fill="#FCF8F2"/>
<path d="M359.81 183.968C362.695 183.968 365.395 184.431 367.909 185.358C370.464 186.244 372.69 187.533 374.585 189.226C376.522 190.918 378.027 192.932 379.098 195.269C380.17 197.565 380.706 200.123 380.706 202.944C380.706 205.764 380.17 208.342 379.098 210.679C378.027 212.975 376.522 214.97 374.585 216.662C372.69 218.354 370.464 219.663 367.909 220.59C365.395 221.476 362.695 221.919 359.81 221.919C356.925 221.919 354.225 221.476 351.711 220.59C349.197 219.663 346.972 218.354 345.035 216.662C343.139 214.97 341.655 212.975 340.583 210.679C339.512 208.342 338.976 205.764 338.976 202.944C338.976 200.123 339.512 197.565 340.583 195.269C341.655 192.932 343.139 190.918 345.035 189.226C346.972 187.533 349.197 186.244 351.711 185.358C354.225 184.431 356.925 183.968 359.81 183.968ZM359.81 220.106C362.86 220.106 365.621 219.381 368.094 217.931C370.567 216.48 372.525 214.466 373.967 211.888C375.41 209.309 376.131 206.328 376.131 202.944C376.131 199.519 375.41 196.538 373.967 194C372.525 191.421 370.567 189.407 368.094 187.956C365.621 186.506 362.86 185.781 359.81 185.781C356.801 185.781 354.061 186.506 351.588 187.956C349.115 189.407 347.157 191.421 345.715 194C344.272 196.538 343.551 199.519 343.551 202.944C343.551 206.328 344.272 209.309 345.715 211.888C347.157 214.466 349.115 216.48 351.588 217.931C354.061 219.381 356.801 220.106 359.81 220.106Z" fill="#FCF8F2"/>
<path d="M393.797 184.814H401.772C403.71 184.814 405.441 185.036 406.965 185.479C408.532 185.922 409.851 186.567 410.922 187.413C412.035 188.259 412.88 189.286 413.457 190.495C414.034 191.703 414.322 193.073 414.322 194.604C414.322 196.296 413.91 197.867 413.086 199.318C412.262 200.768 411.108 201.957 409.624 202.883C408.181 203.81 406.533 204.374 404.678 204.575C405.379 204.857 406.182 205.482 407.089 206.449C408.037 207.416 408.841 208.362 409.5 209.289C409.5 209.289 409.768 209.652 410.304 210.377C410.84 211.062 411.52 211.928 412.344 212.975C413.209 213.983 414.054 214.95 414.879 215.876C415.744 216.803 416.527 217.609 417.228 218.293C417.97 218.978 418.753 219.522 419.577 219.925C420.443 220.288 421.432 220.469 422.545 220.469V221.073H420.628C418.361 221.073 416.486 220.791 415.002 220.227C413.56 219.663 412.385 218.978 411.478 218.173C410.572 217.327 409.789 216.521 409.129 215.755C408.964 215.554 408.573 215.05 407.955 214.244C407.378 213.398 406.739 212.492 406.038 211.525C405.338 210.558 404.699 209.692 404.122 208.926C403.545 208.121 403.194 207.637 403.071 207.476C402.246 206.429 401.299 205.502 400.227 204.696C399.155 203.85 398.022 203.427 396.827 203.427V202.823C396.827 202.823 397.156 202.843 397.816 202.883C398.475 202.883 399.32 202.863 400.351 202.823C401.505 202.783 402.659 202.702 403.813 202.581C404.967 202.42 406.038 201.977 407.027 201.252C408.058 200.526 408.861 199.318 409.438 197.626C409.603 197.182 409.727 196.659 409.809 196.054C409.892 195.45 409.912 194.826 409.871 194.181C409.83 193.053 409.603 192.046 409.191 191.159C408.82 190.273 408.264 189.508 407.522 188.863C406.821 188.218 405.976 187.715 404.987 187.352C403.998 186.99 402.885 186.788 401.649 186.748C399.712 186.667 398.022 186.647 396.579 186.687C395.137 186.728 394.416 186.728 394.416 186.687C394.416 186.647 394.354 186.486 394.23 186.204C394.148 185.882 394.045 185.579 393.921 185.297C393.839 184.975 393.797 184.814 393.797 184.814ZM394.539 184.814V221.073H390.583V184.814H394.539ZM390.768 217.206L391.51 221.073H386.255V220.469C386.255 220.469 386.399 220.469 386.688 220.469C386.976 220.469 387.121 220.469 387.121 220.469C388.11 220.469 388.934 220.147 389.594 219.502C390.253 218.857 390.603 218.092 390.645 217.206H390.768ZM390.768 188.621H390.645C390.603 187.695 390.253 186.929 389.594 186.325C388.934 185.72 388.11 185.418 387.121 185.418C387.121 185.418 386.976 185.418 386.688 185.418C386.399 185.418 386.255 185.418 386.255 185.418V184.814H391.51L390.768 188.621ZM394.354 217.206H394.539C394.581 218.092 394.931 218.857 395.59 219.502C396.25 220.147 397.074 220.469 398.063 220.469C398.063 220.469 398.187 220.469 398.434 220.469C398.723 220.469 398.867 220.469 398.867 220.469L398.929 221.073H393.612L394.354 217.206Z" fill="#FCF8F2"/>
<path d="M439.951 184.995V221.073H435.933V184.995H439.951ZM454.912 184.754V186.567H420.972V184.754H454.912ZM454.912 186.446V190.615H454.232V189.649C454.232 188.803 453.944 188.097 453.367 187.533C452.831 186.929 452.089 186.607 451.141 186.567V186.446H454.912ZM454.912 183.787V185.358L447.988 184.754C448.812 184.754 449.678 184.713 450.585 184.633C451.532 184.512 452.398 184.371 453.181 184.21C453.964 184.049 454.541 183.908 454.912 183.787ZM436.056 217.206V221.073H431.543V220.469C431.585 220.469 431.708 220.469 431.914 220.469C432.162 220.469 432.285 220.469 432.285 220.469C433.274 220.469 434.119 220.147 434.82 219.502C435.521 218.857 435.892 218.092 435.933 217.206H436.056ZM439.766 217.206H439.951C439.992 218.092 440.363 218.857 441.064 219.502C441.765 220.147 442.61 220.469 443.599 220.469C443.599 220.469 443.702 220.469 443.908 220.469C444.155 220.469 444.279 220.469 444.279 220.469V221.073H439.766V217.206ZM424.743 186.446V186.567C423.795 186.607 423.033 186.929 422.456 187.533C421.92 188.097 421.652 188.803 421.652 189.649V190.615H420.972V186.446H424.743ZM420.972 183.787C421.343 183.908 421.899 184.049 422.641 184.21C423.424 184.371 424.29 184.512 425.238 184.633C426.186 184.713 427.072 184.754 427.896 184.754L420.972 185.358V183.787Z" fill="#FCF8F2"/>
<path d="M467.593 184.814V221.073H463.637V184.814H467.593ZM484.223 219.2L484.1 221.073H467.47V219.2H484.223ZM481.318 202.037V203.85H467.47V202.037H481.318ZM484.161 184.814V186.687H467.47V184.814H484.161ZM487.685 212.432L484.285 221.073H474.888L476.99 219.2C479.051 219.2 480.699 218.918 481.936 218.354C483.214 217.75 484.244 216.944 485.027 215.937C485.81 214.889 486.49 213.721 487.067 212.432H487.685ZM481.318 203.729V207.174H480.638V206.388C480.638 205.703 480.432 205.119 480.019 204.636C479.607 204.112 478.969 203.85 478.103 203.85V203.729H481.318ZM481.318 198.713V202.158H478.103V202.037C478.969 202.037 479.607 201.795 480.019 201.312C480.432 200.788 480.638 200.184 480.638 199.499V198.713H481.318ZM484.161 186.506V190.676H483.481V189.769C483.481 188.923 483.193 188.198 482.616 187.594C482.08 186.99 481.338 186.687 480.39 186.687V186.506H484.161ZM484.161 183.847V185.418L477.114 184.814C478.391 184.814 479.752 184.713 481.194 184.512C482.637 184.27 483.626 184.049 484.161 183.847ZM463.76 217.206L464.564 221.073H459.186V220.469C459.186 220.469 459.33 220.469 459.618 220.469C459.907 220.469 460.051 220.469 460.051 220.469C461.081 220.469 461.926 220.147 462.586 219.502C463.245 218.857 463.595 218.092 463.637 217.206H463.76ZM463.76 188.621H463.637C463.595 187.695 463.245 186.929 462.586 186.325C461.926 185.72 461.081 185.418 460.051 185.418C460.051 185.418 459.907 185.418 459.618 185.418C459.33 185.418 459.186 185.418 459.186 185.418V184.814H464.564L463.76 188.621Z" fill="#FCF8F2"/>
<path d="M594.074 184.814V221.073H590.179V184.814H594.074ZM607.984 202.037V203.85H593.951V202.037H607.984ZM610.89 184.814V186.687H593.951V184.814H610.89ZM607.984 203.729V207.174H607.304V206.388C607.304 205.703 607.098 205.119 606.686 204.636C606.315 204.112 605.676 203.85 604.769 203.85V203.729H607.984ZM607.984 198.713V202.158H604.769V202.037C605.676 202.037 606.315 201.795 606.686 201.312C607.098 200.788 607.304 200.184 607.304 199.499V198.713H607.984ZM610.89 186.506V190.676H610.21V189.769C610.21 188.923 609.921 188.198 609.344 187.594C608.808 186.99 608.067 186.687 607.119 186.687V186.506H610.89ZM610.89 183.847V185.418L603.78 184.814C604.646 184.814 605.552 184.774 606.5 184.693C607.448 184.572 608.314 184.431 609.097 184.27C609.921 184.109 610.519 183.968 610.89 183.847ZM590.303 217.206L591.107 221.073H585.666V220.469C585.666 220.469 585.811 220.469 586.099 220.469C586.388 220.469 586.532 220.469 586.532 220.469C587.562 220.469 588.407 220.147 589.067 219.502C589.767 218.857 590.138 218.092 590.179 217.206H590.303ZM590.303 188.621H590.179C590.138 187.695 589.767 186.929 589.067 186.325C588.407 185.72 587.562 185.418 586.532 185.418C586.532 185.418 586.388 185.418 586.099 185.418C585.811 185.418 585.666 185.418 585.666 185.418V184.814H591.107L590.303 188.621ZM593.951 217.206H594.074C594.115 218.092 594.466 218.857 595.125 219.502C595.826 220.147 596.691 220.469 597.722 220.469C597.722 220.469 597.866 220.469 598.154 220.469C598.443 220.469 598.587 220.469 598.587 220.469V221.073H593.147L593.951 217.206Z" fill="#FCF8F2"/>
<path d="M626.99 184.814V221.073H623.096V184.814H626.99ZM623.281 217.206V221.073H618.026V220.469C618.026 220.469 618.17 220.469 618.459 220.469C618.747 220.469 618.892 220.469 618.892 220.469C620.046 220.469 621.014 220.147 621.797 219.502C622.622 218.857 623.054 218.092 623.096 217.206H623.281ZM626.805 217.206H626.99C627.032 218.092 627.444 218.857 628.227 219.502C629.051 220.147 630.04 220.469 631.194 220.469C631.194 220.469 631.318 220.469 631.565 220.469C631.854 220.469 631.998 220.469 631.998 220.469L632.06 221.073H626.805V217.206ZM626.805 188.682V184.814H632.06L631.998 185.418C631.998 185.418 631.854 185.418 631.565 185.418C631.318 185.418 631.194 185.418 631.194 185.418C630.04 185.418 629.051 185.741 628.227 186.385C627.444 186.99 627.032 187.755 626.99 188.682H626.805ZM623.281 188.682H623.096C623.054 187.755 622.622 186.99 621.797 186.385C621.014 185.741 620.046 185.418 618.892 185.418C618.851 185.418 618.686 185.418 618.397 185.418C618.15 185.418 618.026 185.418 618.026 185.418V184.814H623.281V188.682Z" fill="#FCF8F2"/>
<path d="M642.071 183.908L676.32 215.453L676.939 221.919L642.689 190.192L642.071 183.908ZM642.195 217.327V221.073H637.558V220.469C637.558 220.469 637.723 220.469 638.053 220.469C638.424 220.469 638.609 220.469 638.609 220.469C639.557 220.469 640.361 220.167 641.02 219.563C641.68 218.958 642.009 218.213 642.009 217.327H642.195ZM644.791 217.327C644.791 218.213 645.121 218.958 645.78 219.563C646.481 220.167 647.285 220.469 648.191 220.469C648.191 220.469 648.356 220.469 648.686 220.469C649.057 220.469 649.242 220.469 649.242 220.469V221.073H644.606V217.327H644.791ZM642.071 183.908L644.729 187.292L644.791 221.073H642.009V191.462C642.009 189.407 641.906 187.634 641.7 186.144C641.535 184.653 641.453 183.908 641.453 183.908H642.071ZM676.939 184.814V214.184C676.939 215.473 676.98 216.722 677.062 217.931C677.145 219.099 677.227 220.066 677.309 220.832C677.433 221.557 677.495 221.919 677.495 221.919H676.939L674.218 218.716V184.814H676.939ZM676.753 188.561V184.814H681.39V185.418C681.39 185.418 681.204 185.418 680.833 185.418C680.504 185.418 680.339 185.418 680.339 185.418C679.432 185.418 678.628 185.72 677.928 186.325C677.268 186.929 676.939 187.674 676.939 188.561H676.753ZM674.218 188.561C674.177 187.674 673.827 186.929 673.167 186.325C672.508 185.72 671.704 185.418 670.756 185.418C670.756 185.418 670.571 185.418 670.2 185.418C669.87 185.418 669.705 185.418 669.705 185.418V184.814H674.342V188.561H674.218Z" fill="#FCF8F2"/>
<path d="M695.38 184.814V221.073H691.423V184.814H695.38ZM712.01 219.2L711.886 221.073H695.256V219.2H712.01ZM709.104 202.037V203.85H695.256V202.037H709.104ZM711.948 184.814V186.687H695.256V184.814H711.948ZM715.472 212.432L712.072 221.073H702.675L704.777 219.2C706.837 219.2 708.486 218.918 709.722 218.354C711 217.75 712.03 216.944 712.813 215.937C713.597 214.889 714.277 213.721 714.854 212.432H715.472ZM709.104 203.729V207.174H708.424V206.388C708.424 205.703 708.218 205.119 707.806 204.636C707.394 204.112 706.755 203.85 705.889 203.85V203.729H709.104ZM709.104 198.713V202.158H705.889V202.037C706.755 202.037 707.394 201.795 707.806 201.312C708.218 200.788 708.424 200.184 708.424 199.499V198.713H709.104ZM711.948 186.506V190.676H711.268V189.769C711.268 188.923 710.979 188.198 710.402 187.594C709.867 186.99 709.125 186.687 708.177 186.687V186.506H711.948ZM711.948 183.847V185.418L704.9 184.814C706.178 184.814 707.538 184.713 708.98 184.512C710.423 184.27 711.412 184.049 711.948 183.847ZM691.547 217.206L692.35 221.073H686.972V220.469C686.972 220.469 687.116 220.469 687.405 220.469C687.693 220.469 687.837 220.469 687.837 220.469C688.868 220.469 689.713 220.147 690.372 219.502C691.032 218.857 691.382 218.092 691.423 217.206H691.547ZM691.547 188.621H691.423C691.382 187.695 691.032 186.929 690.372 186.325C689.713 185.72 688.868 185.418 687.837 185.418C687.837 185.418 687.693 185.418 687.405 185.418C687.116 185.418 686.972 185.418 686.972 185.418V184.814H692.35L691.547 188.621Z" fill="#FCF8F2"/>
<path d="M731.786 183.968C732.94 183.968 733.95 184.008 734.816 184.089C735.681 184.169 736.423 184.27 737.041 184.391C737.701 184.472 738.257 184.592 738.71 184.754C739.205 184.874 739.638 184.995 740.009 185.116L740.071 191.099H739.329C739.329 189.447 738.752 188.158 737.598 187.231C736.444 186.264 734.651 185.781 732.219 185.781C730.158 185.781 728.386 186.345 726.903 187.473C725.46 188.561 724.759 189.91 724.801 191.522C724.801 192.046 724.862 192.59 724.986 193.154C725.151 193.677 725.398 194.201 725.728 194.725C726.099 195.249 726.593 195.772 727.212 196.296L739.7 205.724C740.648 206.489 741.348 207.476 741.802 208.685C742.255 209.853 742.502 211.021 742.543 212.19C742.585 213.962 742.111 215.594 741.122 217.085C740.132 218.575 738.793 219.764 737.103 220.65C735.455 221.496 733.62 221.919 731.601 221.919C730.406 221.919 729.107 221.819 727.706 221.617C726.346 221.416 725.069 221.114 723.873 220.711C722.678 220.268 721.689 219.724 720.906 219.079C720.782 218.515 720.72 217.81 720.72 216.964C720.72 216.078 720.782 215.151 720.906 214.184C721.071 213.217 721.277 212.351 721.524 211.585H722.266C722.101 213.398 722.369 214.95 723.07 216.239C723.77 217.528 724.801 218.515 726.161 219.2C727.521 219.845 729.108 220.147 730.921 220.106C733.476 220.026 735.475 219.401 736.918 218.233C738.401 217.024 739.143 215.433 739.143 213.459C739.143 212.492 738.958 211.626 738.587 210.86C738.257 210.055 737.701 209.309 736.918 208.624L724.553 199.318C723.399 198.351 722.616 197.283 722.204 196.115C721.792 194.946 721.586 193.839 721.586 192.791C721.586 191.139 722.039 189.649 722.946 188.319C723.853 186.99 725.068 185.942 726.593 185.177C728.16 184.371 729.891 183.968 731.786 183.968ZM739.947 184.512L740.009 185.6H735.619V184.512H739.947Z" fill="#FCF8F2"/>
<path d="M765.783 184.995V221.073H761.765V184.995H765.783ZM780.744 184.754V186.567H746.804V184.754H780.744ZM780.744 186.446V190.615H780.064V189.649C780.064 188.803 779.775 188.097 779.198 187.533C778.663 186.929 777.921 186.607 776.973 186.567V186.446H780.744ZM780.744 183.787V185.358L773.82 184.754C774.644 184.754 775.51 184.713 776.416 184.633C777.364 184.512 778.23 184.371 779.013 184.21C779.796 184.049 780.373 183.908 780.744 183.787ZM761.888 217.206V221.073H757.375V220.469C757.417 220.469 757.54 220.469 757.746 220.469C757.994 220.469 758.117 220.469 758.117 220.469C759.106 220.469 759.951 220.147 760.652 219.502C761.353 218.857 761.723 218.092 761.765 217.206H761.888ZM765.598 217.206H765.783C765.824 218.092 766.195 218.857 766.896 219.502C767.597 220.147 768.441 220.469 769.431 220.469C769.431 220.469 769.534 220.469 769.74 220.469C769.987 220.469 770.111 220.469 770.111 220.469V221.073H765.598V217.206ZM750.575 186.446V186.567C749.627 186.607 748.864 186.929 748.287 187.533C747.752 188.097 747.484 188.803 747.484 189.649V190.615H746.804V186.446H750.575ZM746.804 183.787C747.175 183.908 747.731 184.049 748.473 184.21C749.256 184.371 750.122 184.512 751.07 184.633C752.017 184.713 752.903 184.754 753.728 184.754L746.804 185.358V183.787Z" fill="#FCF8F2"/>
<path d="M792.56 184.814H800.535C802.472 184.814 804.203 185.036 805.728 185.479C807.294 185.922 808.613 186.567 809.684 187.413C810.797 188.259 811.642 189.286 812.219 190.495C812.796 191.703 813.084 193.073 813.084 194.604C813.084 196.296 812.672 197.867 811.848 199.318C811.024 200.768 809.87 201.957 808.386 202.883C806.943 203.81 805.295 204.374 803.44 204.575C804.141 204.857 804.945 205.482 805.851 206.449C806.799 207.416 807.603 208.362 808.262 209.289C808.262 209.289 808.53 209.652 809.066 210.377C809.602 211.062 810.282 211.928 811.106 212.975C811.972 213.983 812.817 214.95 813.641 215.876C814.506 216.803 815.289 217.609 815.99 218.293C816.732 218.978 817.515 219.522 818.339 219.925C819.205 220.288 820.194 220.469 821.307 220.469V221.073H819.39C817.123 221.073 815.248 220.791 813.764 220.227C812.322 219.663 811.147 218.978 810.241 218.173C809.334 217.327 808.551 216.521 807.891 215.755C807.727 215.554 807.335 215.05 806.717 214.244C806.14 213.398 805.501 212.492 804.8 211.525C804.1 210.558 803.461 209.692 802.884 208.926C802.307 208.121 801.956 207.637 801.833 207.476C801.009 206.429 800.061 205.502 798.989 204.696C797.917 203.85 796.784 203.427 795.589 203.427V202.823C795.589 202.823 795.919 202.843 796.578 202.883C797.237 202.883 798.082 202.863 799.113 202.823C800.267 202.783 801.421 202.702 802.575 202.581C803.729 202.42 804.8 201.977 805.789 201.252C806.82 200.526 807.623 199.318 808.201 197.626C808.365 197.182 808.489 196.659 808.571 196.054C808.654 195.45 808.674 194.826 808.633 194.181C808.592 193.053 808.365 192.046 807.953 191.159C807.582 190.273 807.026 189.508 806.284 188.863C805.583 188.218 804.739 187.715 803.749 187.352C802.76 186.99 801.647 186.788 800.411 186.748C798.474 186.667 796.784 186.647 795.342 186.687C793.899 186.728 793.178 186.728 793.178 186.687C793.178 186.647 793.116 186.486 792.992 186.204C792.91 185.882 792.807 185.579 792.683 185.297C792.601 184.975 792.56 184.814 792.56 184.814ZM793.301 184.814V221.073H789.345V184.814H793.301ZM789.53 217.206L790.272 221.073H785.017V220.469C785.017 220.469 785.162 220.469 785.45 220.469C785.739 220.469 785.883 220.469 785.883 220.469C786.872 220.469 787.696 220.147 788.356 219.502C789.015 218.857 789.365 218.092 789.407 217.206H789.53ZM789.53 188.621H789.407C789.365 187.695 789.015 186.929 788.356 186.325C787.696 185.72 786.872 185.418 785.883 185.418C785.883 185.418 785.739 185.418 785.45 185.418C785.162 185.418 785.017 185.418 785.017 185.418V184.814H790.272L789.53 188.621ZM793.116 217.206H793.301C793.343 218.092 793.693 218.857 794.352 219.502C795.012 220.147 795.836 220.469 796.825 220.469C796.825 220.469 796.949 220.469 797.196 220.469C797.485 220.469 797.629 220.469 797.629 220.469L797.691 221.073H792.374L793.116 217.206Z" fill="#FCF8F2"/>
<path d="M832.184 184.814V221.073H828.228V184.814H832.184ZM848.814 219.2L848.691 221.073H832.061V219.2H848.814ZM845.909 202.037V203.85H832.061V202.037H845.909ZM848.753 184.814V186.687H832.061V184.814H848.753ZM852.276 212.432L848.876 221.073H839.479L841.581 219.2C843.642 219.2 845.291 218.918 846.527 218.354C847.805 217.75 848.835 216.944 849.618 215.937C850.401 214.889 851.081 213.721 851.658 212.432H852.276ZM845.909 203.729V207.174H845.229V206.388C845.229 205.703 845.023 205.119 844.611 204.636C844.198 204.112 843.56 203.85 842.694 203.85V203.729H845.909ZM845.909 198.713V202.158H842.694V202.037C843.56 202.037 844.198 201.795 844.611 201.312C845.023 200.788 845.229 200.184 845.229 199.499V198.713H845.909ZM848.753 186.506V190.676H848.073V189.769C848.073 188.923 847.784 188.198 847.207 187.594C846.671 186.99 845.929 186.687 844.982 186.687V186.506H848.753ZM848.753 183.847V185.418L841.705 184.814C842.983 184.814 844.343 184.713 845.785 184.512C847.228 184.27 848.217 184.049 848.753 183.847ZM828.352 217.206L829.155 221.073H823.777V220.469C823.777 220.469 823.921 220.469 824.209 220.469C824.498 220.469 824.642 220.469 824.642 220.469C825.673 220.469 826.517 220.147 827.177 219.502C827.836 218.857 828.187 218.092 828.228 217.206H828.352ZM828.352 188.621H828.228C828.187 187.695 827.836 186.929 827.177 186.325C826.517 185.72 825.673 185.418 824.642 185.418C824.642 185.418 824.498 185.418 824.209 185.418C823.921 185.418 823.777 185.418 823.777 185.418V184.814H829.155L828.352 188.621Z" fill="#FCF8F2"/>
<path d="M537.384 175.334C539.046 175.334 540.659 175.549 542.223 175.979C543.787 176.409 545.229 177.007 546.549 177.771C547.869 178.488 548.969 179.372 549.848 180.423L548.529 188.522H547.795C547.795 186.229 547.355 184.27 546.476 182.645C545.596 180.973 544.374 179.706 542.81 178.846C541.294 177.938 539.486 177.485 537.384 177.485C534.597 177.485 532.276 178.44 530.418 180.352C528.609 182.263 527.705 184.676 527.705 187.591C527.705 190.601 528.707 193.396 530.711 195.976C532.715 198.557 535.599 201.495 539.363 204.792C540.439 205.7 541.612 206.751 542.883 207.946C544.203 209.093 545.694 210.383 547.355 211.816C549.066 213.25 550.973 214.827 553.075 216.547C554.639 217.789 556.227 219.103 557.841 220.489C559.502 221.875 561.189 223.069 562.9 224.073C564.659 225.076 566.468 225.649 568.326 225.793V226.51C567.397 226.51 566.053 226.486 564.293 226.438C562.582 226.39 560.676 226.056 558.574 225.434C556.472 224.813 554.37 223.666 552.268 221.994C550.411 220.513 548.7 219.151 547.135 217.909C545.62 216.619 544.203 215.448 542.883 214.397C541.612 213.298 540.414 212.27 539.29 211.315C538.166 210.311 537.066 209.332 535.991 208.376C533.155 205.796 530.736 203.478 528.732 201.424C526.776 199.321 525.261 197.195 524.186 195.045C523.159 192.847 522.646 190.362 522.646 187.591C522.646 185.823 522.988 184.198 523.672 182.717C524.357 181.235 525.334 179.945 526.605 178.846C527.925 177.747 529.489 176.887 531.298 176.266C533.107 175.645 535.135 175.334 537.384 175.334ZM557.621 202.929C558.158 205.557 558.305 208.065 558.06 210.455C557.816 212.844 557.205 215.066 556.227 217.12C555.299 219.127 554.003 220.895 552.341 222.424C550.728 223.953 548.797 225.148 546.549 226.008C544.3 226.82 541.783 227.226 538.997 227.226C536.162 227.226 533.547 226.987 531.151 226.51C528.805 226.032 526.728 225.339 524.919 224.431C523.11 223.475 521.571 222.329 520.3 220.991C519.078 219.605 518.149 218.052 517.513 216.332C516.878 214.564 516.56 212.605 516.56 210.455C516.56 209.069 516.707 207.803 517 206.656C517.342 205.461 517.807 204.362 518.393 203.359C518.98 202.355 519.664 201.471 520.446 200.707C521.277 199.895 522.182 199.154 523.159 198.485C524.137 197.816 525.188 197.243 526.312 196.765L527.339 198.342C526.361 199.106 525.53 199.966 524.846 200.922C524.161 201.83 523.599 202.809 523.159 203.861C522.719 204.864 522.402 205.939 522.206 207.086C522.011 208.185 521.913 209.308 521.913 210.455C521.913 212.605 522.279 214.588 523.013 216.403C523.795 218.171 524.895 219.701 526.312 220.991C527.779 222.281 529.563 223.284 531.665 224.001C533.815 224.718 536.259 225.076 538.997 225.076C541.49 225.076 543.689 224.598 545.596 223.643C547.551 222.639 549.164 221.349 550.435 219.772C551.755 218.148 552.732 216.356 553.368 214.397C554.003 212.438 554.272 210.478 554.174 208.519C554.077 206.512 553.588 204.649 552.708 202.929C552.219 201.973 551.584 201.185 550.802 200.564C550.068 199.942 549.115 199.632 547.942 199.632H546.842V198.915H561.433V199.632H560.333C559.258 199.632 558.476 199.942 557.987 200.564C557.547 201.185 557.425 201.973 557.621 202.929Z" fill="#FCF8F2"/>
<path d="M29.6926 12.0932V110.107H11.4985V12.0932H29.6926ZM69.2124 104.646L71.7476 110.107H29.2452V104.646H69.2124ZM76.7863 91.7114L72.195 110.107H44.3075L49.6762 104.646C54.7467 104.646 59.1212 103.807 62.7998 102.126C71.9294 97.724 74.8599 91.7385 74.8599 91.7385L76.7863 91.7114ZM11.946 99.8854V110.107H0.0154431V108.706H1.95435C4.53929 108.706 6.72653 107.866 8.5161 106.186C10.4051 104.412 11.3993 102.312 11.4987 99.8848L11.946 99.8854ZM11.946 22.3147H11.4984C11.3994 19.8879 10.4044 17.8341 8.51578 16.1539C6.7262 14.3804 4.53896 13.4936 1.95402 13.4936H0.0152576V12.0929H11.9458L11.946 22.3147ZM29.2452 22.3147V12.0932H41.1757V13.4939H39.2369C36.652 13.4939 34.415 14.3812 32.526 16.1543C30.7365 17.8344 29.792 19.8881 29.6925 22.315L29.2452 22.3147ZM120.418 12.0932V110.107H102.224V12.0932H120.418ZM159.938 104.646L162.473 110.107H119.971V104.646H159.938ZM154.271 59.1397V64.4605H119.971V59.1397H154.271ZM161.28 12.0932V17.5542H119.971V12.0932H161.28ZM166.154 91.7108L162.921 110.107H135.033L140.402 104.646C145.472 104.646 149.847 103.807 153.525 102.126C159.256 99.157 162.29 96.5634 164.017 91.7217L166.154 91.7108ZM154.271 64.1805V76.2223H152.78V74.6821C152.78 71.7881 151.736 69.3612 149.648 67.4009C147.56 65.4406 144.975 64.4605 141.893 64.4605V64.1807L154.271 64.1805ZM154.271 47.3782V59.4199H141.893V59.1401C144.975 59.0518 147.56 58.024 149.648 56.0597C151.736 54.0997 152.78 51.6725 152.78 48.7788V47.3782H154.271ZM161.28 17.1339V30.5662H159.789V29.736C159.789 26.1888 158.596 23.2952 156.21 21.0549C153.824 18.7212 150.642 17.5078 146.665 17.4145V17.1338L161.28 17.1339ZM161.28 9.57305V13.6335L143.086 12.0932C145.273 12.0932 147.56 11.9612 149.946 11.6723C152.432 11.3925 154.718 11.0655 156.806 10.6926C158.894 10.3198 160.385 9.94721 161.28 9.57305ZM102.672 99.8854V110.107H90.7411V108.706H92.6797C95.2646 108.706 97.4519 107.866 99.2415 106.186C101.13 104.412 102.125 102.312 102.224 99.8848L102.672 99.8854ZM102.672 22.3147H102.224C102.125 19.8879 101.13 17.8341 99.2415 16.1539C97.4519 14.3804 95.2647 13.4936 92.6797 13.4936H90.7411V12.0929H102.672L102.672 22.3147ZM286.31 70.9015V94.0045C284.023 96.8049 280.643 99.6055 276.169 102.406C271.794 105.206 266.475 107.54 260.212 109.407C253.948 111.18 246.839 112.067 238.886 112.067C227.95 111.979 218.306 109.878 209.954 105.766C201.603 101.566 195.091 95.6849 190.418 88.1238C185.845 80.4695 183.558 71.4148 183.558 60.96C183.558 50.6921 185.845 41.7308 190.418 34.0763C195.091 26.422 201.603 20.5411 209.954 16.4339C218.405 12.2333 228.248 10.1331 239.482 10.1331C244.95 10.1331 250.12 10.5058 254.992 11.2536C259.963 12.0016 264.487 13.0275 268.563 14.334C272.739 15.5484 276.268 16.9011 279.151 18.3946L280.344 40.9376H279.002C277.212 34.8702 274.528 30.0162 270.949 26.3756C267.469 22.6419 263.293 19.8882 258.422 18.1147C253.55 16.341 248.281 15.4542 242.614 15.4542C234.362 15.4542 227.303 17.3679 221.437 21.195C215.671 24.9288 211.247 30.2496 208.164 37.1573C205.082 43.9715 203.541 52.0927 203.541 61.5206C203.541 70.6684 204.983 78.6495 207.866 85.464C210.849 92.1848 215.074 97.4121 220.542 101.146C226.11 104.786 232.672 106.653 240.228 106.747C244.205 106.747 247.983 106.233 251.562 105.207C255.141 104.18 258.372 102.686 261.255 100.726C264.238 98.6723 266.574 96.2453 268.264 93.445L268.415 70.9019C268.415 66.7014 265.88 64.601 260.809 64.601H258.423V63.2003H296.004V64.601H293.767C288.597 64.601 286.111 66.701 286.31 70.9015ZM315.135 9.99303L407.447 95.6847L409.088 112.067L316.775 26.5152L315.135 9.99303ZM315.732 100.165V110.107H303.354V108.706H306.187C308.673 108.706 310.81 107.866 312.6 106.186C314.39 104.505 315.284 102.499 315.284 100.165L315.732 100.165ZM331.838 100.165C331.838 102.499 332.733 104.506 334.522 106.186C336.312 107.866 338.449 108.707 340.935 108.707H343.768V110.107H331.391V100.166L331.838 100.165ZM315.135 9.99303L331.689 26.9353L331.839 110.107H315.285V27.4956C315.285 22.4547 314.987 18.301 314.391 15.0337L313.645 9.99303H315.135ZM408.79 12.0932V94.1447C408.79 97.5052 408.94 100.539 409.237 103.246C409.535 105.953 409.784 108.1 409.983 109.687L410.43 112.067H409.088L392.534 94.5646V12.0932H408.79ZM420.72 12.0932V13.4939H418.035C415.55 13.4939 413.412 14.3328 411.623 16.0142C409.833 17.6011 408.889 19.608 408.789 22.035H408.342V12.0937L420.72 12.0932ZM380.455 12.0932H392.833V22.0347H392.534C392.435 19.6077 391.49 17.6008 389.701 16.0139C388.011 14.3337 385.873 13.4936 383.288 13.4936H380.454L380.455 12.0932ZM491.306 10.1331C502.839 10.1331 512.88 12.2333 521.43 16.4339C530.08 20.5411 536.741 26.422 541.414 34.0763C546.087 41.7308 548.423 50.7387 548.423 61.1C548.423 71.4615 546.087 80.4695 541.414 88.1238C536.741 95.7782 530.08 101.706 521.43 105.906C512.88 110.013 502.839 112.067 491.306 112.067C479.873 112.067 469.881 110.013 461.331 105.906C452.78 101.706 446.169 95.7782 441.496 88.1238C436.823 80.4695 434.487 71.4615 434.487 61.1C434.487 50.7387 436.823 41.7308 441.496 34.0763C446.169 26.422 452.78 20.5411 461.331 16.4339C469.881 12.2333 479.873 10.1331 491.306 10.1331ZM491.306 106.746C498.862 106.746 505.374 104.879 510.842 101.146C516.41 97.4117 520.685 92.1377 523.667 85.3234C526.749 78.5091 528.29 70.4346 528.29 61.1C528.29 51.7653 526.749 43.691 523.667 36.8768C520.685 30.0625 516.41 24.7883 510.842 21.0545C505.374 17.3206 498.862 15.4538 491.306 15.4538C483.949 15.4538 477.486 17.3206 471.919 21.0545C466.451 24.7883 462.176 30.0625 459.094 36.8768C456.111 43.691 454.62 51.7653 454.62 61.1C454.62 70.4346 456.111 78.5091 459.094 85.3234C462.176 92.1377 466.451 97.4117 471.919 101.146C477.486 104.879 483.949 106.746 491.306 106.746ZM561.142 12.9334H581.275L606.478 82.943L599.618 112.347L561.142 12.9334ZM633.024 9.85298L635.261 22.8749L604.54 96.8049L603.645 99.1853C603.049 100.772 602.452 102.779 601.855 105.206C601.358 107.54 601.06 109.92 600.96 112.347H599.618L596.039 97.085L631.681 9.85298H633.024ZM633.024 9.985L665.385 82.7952L659.569 112.339L624.523 33.6482L633.024 9.985ZM691.781 12.9254L663.745 96.797L662.999 99.3173C662.502 100.997 662.005 103.051 661.508 105.478C661.11 107.812 660.912 110.099 660.912 112.339H659.569L656.139 98.4772L682.088 12.9254H691.781ZM679.254 22.1668C680.049 19.3663 679.801 17.2195 678.509 15.7258C677.216 14.2324 675.576 13.4856 673.588 13.4856H672.245V12.0849H702.966V13.4856H701.773C699.486 13.4856 697.001 14.187 694.316 15.5858C691.632 16.8926 689.743 19.0865 688.649 22.1668H679.254ZM584.854 22.1668H564.722C563.429 19.0865 561.49 16.8927 558.905 15.5858C556.321 14.1851 553.885 13.4855 551.598 13.4855H550.405V12.0849H591.714V13.4855H590.372C588.483 13.4855 586.793 14.2319 585.301 15.7258C583.909 17.2195 583.761 19.3663 584.854 22.1668ZM764.488 10.125C776.02 10.125 786.062 12.2254 794.612 16.4259C803.262 20.5331 809.923 26.414 814.596 34.0684C819.268 41.7227 821.605 50.7306 821.605 61.0921C821.605 71.4535 819.268 80.4614 814.596 88.1158C809.923 95.7702 803.262 101.698 794.612 105.898C786.062 110.006 776.02 112.059 764.488 112.059C753.054 112.059 743.062 110.006 734.512 105.898C725.962 101.698 719.35 95.7702 714.678 88.1158C710.005 80.4614 707.668 71.4535 707.668 61.0921C707.668 50.7306 710.005 41.7227 714.678 34.0684C719.35 26.414 725.962 20.5331 734.512 16.4259C743.062 12.2254 753.054 10.125 764.488 10.125ZM764.488 106.738C772.043 106.738 778.556 104.871 784.024 101.137C789.591 97.4038 793.866 92.1298 796.849 85.3154C799.931 78.5011 801.472 70.4267 801.472 61.0921C801.472 51.7574 799.932 43.683 796.849 36.8688C793.866 30.0546 789.591 24.7804 784.024 21.0465C778.556 17.3128 772.043 15.4459 764.488 15.4459C757.13 15.4459 750.668 17.3128 745.1 21.0465C739.632 24.7804 735.357 30.0546 732.275 36.8688C729.292 43.683 727.801 51.7574 727.801 61.0921C727.801 70.4267 729.293 78.5011 732.275 85.3154C735.357 92.1298 739.632 97.4038 745.1 101.137C750.668 104.871 757.13 106.738 764.488 106.738ZM863.405 12.0854H883.239C887.713 12.0854 891.938 12.5985 895.915 13.6255C899.991 14.6521 903.571 16.2392 906.653 18.3862C909.735 20.5332 912.121 23.2869 913.811 26.6474C915.601 29.9146 916.495 33.8351 916.495 38.4089C916.495 42.5162 915.55 46.5767 913.662 50.5906C911.773 54.6046 908.989 57.9651 905.31 60.672C901.632 63.2857 897.108 64.7792 891.739 65.1525C894.424 65.9915 896.959 67.5795 899.345 69.9133C901.831 72.1537 903.869 74.3938 905.459 76.6343C905.55 76.7225 906.151 77.6096 907.249 79.2946C908.442 80.8815 909.884 82.8419 911.574 85.1754C913.264 87.509 915.004 89.8428 916.794 92.1764C918.683 94.51 920.323 96.4703 921.715 98.0572C923.803 100.484 925.791 102.491 927.68 104.078C929.569 105.571 931.557 106.738 933.645 107.578C935.733 108.327 938.119 108.699 940.804 108.699V110.1H928.426C923.256 110.1 918.633 109.587 914.557 108.559C910.58 107.531 907.1 105.992 904.117 103.939C901.135 101.885 898.55 99.3181 896.363 96.2377C895.766 95.3987 894.921 94.1376 893.827 92.4571C892.734 90.6835 891.541 88.7233 890.248 86.5764C888.955 84.4294 887.663 82.3757 886.371 80.4154C885.178 78.362 884.134 76.5416 883.239 74.9546C882.442 73.3678 881.898 72.2478 881.598 71.5943C878.951 67.0892 866.735 67.4217 864.111 67.3453C861.486 67.2706 860.183 62.3997 857.996 62.213V60.8123C858.196 60.8123 858.841 60.8531 859.935 60.9441C861.03 60.9441 862.271 60.9033 863.663 60.8123C866.348 60.7247 881.3 60.2575 883.985 59.4118C886.669 58.5728 889.105 57.0315 891.292 54.7912C893.579 52.5507 895.219 49.3303 896.214 45.1297C896.413 44.2908 896.611 43.2163 896.809 41.9094C897.008 40.6026 897.055 39.249 896.944 37.8488C896.646 31.3145 894.856 26.3671 891.575 23.0066C888.294 19.6461 884.118 17.8725 879.048 17.6858C877.159 17.5978 875.171 17.5538 873.083 17.5538H864.881L864.432 16.1532C864.233 15.219 863.984 14.3327 863.685 13.4928L863.405 12.0854ZM865.344 12.0854V110.099H847.149V12.0854H865.344ZM847.597 99.8773V110.099H835.666V108.698H837.604C840.189 108.698 842.377 107.858 844.166 106.178C846.055 104.404 847.05 102.304 847.149 99.8769L847.597 99.8773ZM847.597 22.3068H847.149C847.058 19.8798 846.058 17.8261 844.166 16.1459C842.376 14.3724 840.189 13.4856 837.604 13.4856H835.666V12.0849H847.596L847.597 22.3068ZM864.896 99.8773H865.345C865.345 102.304 866.288 104.405 868.178 106.178C870.067 107.859 872.304 108.699 874.889 108.699H876.676V110.099H864.894L864.896 99.8773ZM984.763 51.9909L1024.88 100.997C1027.07 103.518 1029.3 105.432 1031.59 106.738C1033.98 107.953 1036.71 108.605 1039.79 108.699V110.099H1029.5C1028.41 110.099 1026.72 110.058 1024.43 109.967C1022.15 109.781 1019.56 109.407 1016.68 108.847C1013.89 108.194 1011.06 107.167 1008.18 105.767C1005.29 104.366 1002.76 102.359 1000.57 99.7455C1000.27 99.2789 999.327 98.112 997.737 96.2453C996.246 94.285 994.357 91.9511 992.071 89.2441C989.784 86.4437 987.398 83.5501 984.912 80.563C982.526 77.4827 980.239 74.6357 978.052 72.0219C975.964 69.4082 974.224 67.2611 972.832 65.581L970.894 63.0606L984.763 51.9909ZM1023.98 13.0654L979.245 62.4923L970.894 63.0525L1011.9 13.0657L1023.98 13.0654ZM1034.42 12.0856V13.3455H1033.83C1030.55 13.3455 1027.46 13.9523 1024.58 15.1657C1021.8 16.3801 1019.41 18.0594 1017.42 20.2066L1006.24 19.9268C1007.43 18.3398 1007.63 16.8464 1006.83 15.4462C1006.04 14.0455 1004.65 13.3458 1002.66 13.3458H1001.17V12.0859L1034.42 12.0856ZM973.23 12.0856V110.099H955.036V12.0856H973.23ZM955.483 99.8777V110.099H943.553V108.698H945.491C948.076 108.698 950.263 107.858 952.052 106.178C953.941 104.405 954.936 102.304 955.035 99.8772L955.483 99.8777ZM955.483 22.307H955.035C954.945 19.88 953.944 17.8264 952.052 16.1462C950.263 14.3727 948.075 13.4859 945.491 13.4859H943.552V12.0852H955.483L955.483 22.307ZM972.782 99.8777H973.231C973.321 102.305 974.269 104.405 976.064 106.179C977.953 107.859 980.19 108.699 982.775 108.699H984.713V110.1H972.783L972.782 99.8777ZM972.782 22.307V12.0856H984.713V13.4863H982.776C980.191 13.4863 977.954 14.3736 976.065 16.1466C974.275 17.8268 973.331 19.8805 973.232 22.3074L972.782 22.307Z" fill="#FCF8F2"/>
<path d="M1095.12 18.2551C1095.12 18.2551 1094.33 21.0884 1101.59 22.0369C1101.59 22.0369 1104.2 25.7171 1086.11 38.7003C1085.44 39.156 1083.93 42.2576 1088.3 41.1538C1088.3 41.1538 1097.12 39.0355 1094.27 46.1629C1094.27 46.1629 1091.65 52.2969 1084.54 54.5458C1084.54 54.5458 1076.07 59.044 1077.32 61.5997C1077.32 61.5997 1078.68 62.3153 1080.98 61.4964C1080.98 61.4964 1088.17 59.1725 1086.27 66.4054C1086.27 66.4054 1086.74 71.822 1070.73 78.4671C1070.73 78.4671 1068.85 81.3295 1074.5 81.8406C1074.5 81.8406 1082 83.2764 1094.45 80.2299C1094.45 80.2299 1107.76 79.2825 1104.83 85.3147C1104.83 85.3147 1103 91.6594 1103.42 92.4773C1103.42 92.4773 1102.63 97.5838 1103.46 100.957C1103.46 100.957 1102.83 105.967 1085.79 106.887C1084.56 106.921 1081.72 109.36 1087.8 111.101C1087.8 111.101 1091.9 111.774 1100.92 109.67C1104.46 108.843 1108.95 108.291 1113.89 108.532C1118.84 108.291 1123.33 108.842 1126.87 109.67C1135.89 111.774 1139.99 111.101 1139.99 111.101C1146.06 109.36 1143.22 106.916 1142 106.887C1124.96 105.967 1124.33 100.957 1124.33 100.957C1125.16 97.5838 1124.37 92.4773 1124.37 92.4773C1124.79 91.6587 1122.96 85.3147 1122.96 85.3147C1120.03 79.2825 1133.34 80.2299 1133.34 80.2299C1145.79 83.2764 1153.29 81.8406 1153.29 81.8406C1158.94 81.3286 1157.05 78.4671 1157.05 78.4671C1141.05 71.822 1141.52 66.4054 1141.52 66.4054C1139.62 59.1725 1146.8 61.4964 1146.8 61.4964C1149.11 62.315 1150.47 61.5997 1150.47 61.5997C1151.72 59.044 1143.25 54.5458 1143.25 54.5458C1136.14 52.2969 1133.52 46.1629 1133.52 46.1629C1130.67 39.0355 1139.48 41.1538 1139.48 41.1538C1143.85 42.2583 1142.35 39.1564 1141.68 38.7003C1123.59 25.7171 1126.2 22.0369 1126.2 22.0369C1133.45 21.088 1132.67 18.2551 1132.67 18.2551C1115.88 11.6894 1114.71 0.199219 1113.89 0.199219C1113.07 0.199219 1111.9 11.6894 1095.1 18.2551H1095.12Z" fill="#FCF8F2"/>
<path d="M1139.23 406.808C1139.23 406.314 1142.87 405.024 1145.33 404.646L1148.3 404.19L1146.25 403.671C1144.03 403.108 1142.15 402.097 1141.01 400.852C1140.1 399.864 1140.28 399.867 1142.63 400.892C1143.68 401.341 1146.52 402.36 1148.95 403.155L1153.37 404.602L1148.56 405.446C1142.55 406.496 1139.23 406.987 1139.23 406.823L1139.23 406.808ZM1171.42 406.623C1170.23 406.437 1167.09 405.902 1164.45 405.436L1159.64 404.589L1164.05 403.142C1166.48 402.346 1169.33 401.328 1170.37 400.878C1172.72 399.865 1172.9 399.862 1171.99 400.838C1170.85 402.083 1168.97 403.095 1166.75 403.657L1164.7 404.176L1167.68 404.632C1170.27 405.032 1173.77 406.307 1173.77 406.853C1173.77 406.956 1173.73 407.026 1173.67 406.991C1173.62 406.951 1172.6 406.792 1171.41 406.605L1171.42 406.623ZM1123.53 406.314C1123.53 406.14 1124.84 405.34 1126.44 404.534C1129.81 402.84 1133.26 402.389 1136.98 403.153C1142.42 404.272 1137.43 406.089 1127.91 406.461C1125.5 406.549 1123.53 406.501 1123.53 406.324V406.314ZM1182.99 406.436C1174.59 405.712 1171.25 404.146 1176.02 403.167C1179.69 402.414 1183.15 402.856 1186.54 404.515C1188.15 405.302 1189.47 406.073 1189.47 406.225C1189.47 406.525 1185.54 406.657 1182.99 406.436ZM1111.19 403.932C1109.7 403.73 1108.38 403.476 1108.28 403.369C1107.69 402.79 1113.62 399.816 1116.37 399.311C1118.58 398.906 1119.89 399.034 1122.84 399.951C1124.36 400.422 1124.71 400.695 1124.71 401.422C1124.71 402.464 1124.22 402.91 1122.41 403.513C1120.53 404.139 1114.4 404.369 1111.19 403.932ZM1192.77 403.972C1189.85 403.511 1188.51 402.775 1188.37 401.554C1188.25 400.627 1188.44 400.461 1190.33 399.841C1192.78 399.036 1196.1 398.955 1198.3 399.651C1200.04 400.201 1204.78 402.794 1204.78 403.198C1204.78 403.883 1195.85 404.459 1192.77 403.972ZM1134.19 402.04C1131.73 401.198 1129.01 398.737 1127.79 396.262C1127.34 395.339 1127.05 394.511 1127.14 394.422C1127.36 394.201 1137.64 400.322 1138.74 401.329C1139.23 401.775 1139.62 402.283 1139.62 402.459C1139.62 403.028 1136.35 402.775 1134.19 402.04ZM1173.38 402.461C1173.38 402.285 1173.77 401.775 1174.26 401.331C1175.36 400.323 1185.64 394.203 1185.86 394.424C1185.95 394.512 1185.65 395.364 1185.18 396.315C1183.94 398.843 1180.97 401.431 1178.46 402.171C1176.23 402.826 1173.38 402.986 1173.38 402.461ZM1100.92 399.657C1099.39 399.502 1097.8 399.279 1097.39 399.16C1096.98 399.038 1095.89 398.751 1094.98 398.518C1094.06 398.284 1093.31 397.943 1093.31 397.765C1093.31 397.193 1098.62 394.656 1101.16 394.011C1104.02 393.289 1106.3 393.502 1108.87 394.733C1110.27 395.404 1110.58 395.749 1110.58 396.614C1110.58 399.069 1106.82 400.253 1100.92 399.657ZM1206.35 399.609C1204.05 399.205 1202.65 398.156 1202.5 396.717C1202.4 395.715 1202.59 395.481 1204.12 394.749C1206.7 393.508 1208.98 393.292 1211.84 394.016C1214.39 394.661 1219.69 397.199 1219.69 397.77C1219.69 398.367 1214.2 399.563 1210.47 399.782C1209.18 399.854 1207.32 399.78 1206.35 399.609ZM1121.8 398.906C1119.67 398.076 1117.52 396.239 1116.57 394.437C1115.83 393.047 1114.91 389.747 1114.9 388.49C1114.9 387.608 1114.94 387.613 1116.73 388.878C1117.73 389.586 1120.13 391.66 1122.06 393.487C1125.29 396.557 1125.54 396.912 1125.43 398.148C1125.27 399.802 1124.5 399.963 1121.8 398.906ZM1187.77 399.42C1187.63 399.283 1187.51 398.624 1187.51 397.963C1187.5 396.963 1188.08 396.222 1190.97 393.464C1192.88 391.648 1195.27 389.584 1196.28 388.876C1198.07 387.613 1198.11 387.604 1198.1 388.488C1198.1 389.65 1197.18 393.034 1196.55 394.259C1195.59 396.108 1193.23 398.131 1191.14 398.905C1188.92 399.726 1188.19 399.837 1187.77 399.42ZM1108.81 393.906C1105.23 392.297 1103.5 388.737 1103.53 383.004L1103.53 379.676L1106.29 382.512C1111.29 387.653 1113.32 391.638 1111.98 393.661C1111.22 394.81 1110.88 394.84 1108.81 393.906ZM1201.01 393.662C1199.67 391.64 1201.71 387.654 1206.71 382.514L1209.46 379.678L1209.47 383.006C1209.51 388.738 1207.77 392.298 1204.19 393.907C1202.12 394.839 1201.78 394.812 1201.01 393.662ZM1085.65 392.702C1082.5 391.872 1079.18 390.48 1079.18 389.99C1079.18 389.603 1084.09 387.528 1086.51 386.891C1090.47 385.851 1095.11 386.644 1096.93 388.672C1097.57 389.386 1097.57 389.499 1096.93 390.767C1095.56 393.472 1091.34 394.197 1085.65 392.702ZM1218.12 392.79C1217.34 392.404 1216.46 391.53 1216.07 390.77C1215.43 389.501 1215.43 389.389 1216.07 388.674C1217.89 386.646 1222.53 385.853 1226.49 386.894C1228.91 387.532 1233.82 389.606 1233.82 389.992C1233.82 390.499 1230.45 391.889 1227.19 392.725C1223.51 393.665 1219.95 393.691 1218.12 392.773V392.79ZM1096 386.915C1093.27 385.201 1092.31 382.97 1092.39 378.516C1092.43 376.593 1092.7 374.146 1093.01 373.078L1093.56 371.136L1095.45 373.661C1097.81 376.804 1099.9 381.072 1100.21 383.371C1100.4 384.806 1100.28 385.357 1099.52 386.448C1099.02 387.179 1098.42 387.838 1098.2 387.909C1097.98 387.981 1096.99 387.535 1096 386.915ZM1213.83 387.004C1213.38 386.435 1212.9 385.557 1212.77 385.054C1212.23 382.932 1214.47 377.742 1217.84 373.292L1219.45 371.17L1220 373.098C1220.3 374.157 1220.57 376.599 1220.61 378.521C1220.68 382.972 1219.73 385.206 1217.01 386.916C1216.02 387.534 1215.09 388.037 1214.93 388.037C1214.78 388.037 1214.28 387.572 1213.83 387.004ZM1075.65 384.722C1072.13 383.874 1066.23 381.028 1066.23 380.178C1066.22 379.796 1071.83 378.084 1074.86 377.539C1076.25 377.29 1078.18 377.205 1079.16 377.351C1082.27 377.813 1085.07 379.663 1085.07 381.256C1085.07 382.499 1083.11 384.384 1081.31 384.878C1079.39 385.408 1078.37 385.38 1075.65 384.722ZM1231.27 384.762C1229.52 384.123 1227.94 382.444 1227.94 381.217C1227.94 380.774 1228.33 380.05 1228.82 379.611C1231.07 377.571 1234.28 376.863 1238.14 377.555C1241.23 378.11 1246.77 379.814 1246.77 380.21C1246.77 380.749 1242.54 383.043 1239.82 383.98C1236.21 385.221 1233.27 385.489 1231.27 384.762ZM1084.31 378.511C1082.15 376.577 1081.36 374.357 1081.64 371.005C1081.9 368.01 1084.09 361.856 1084.75 362.264C1084.98 362.401 1085.93 364.109 1086.85 366.055C1089.6 371.813 1090.03 375.76 1088.16 378.102C1086.66 379.992 1086.04 380.056 1084.31 378.511ZM1225.4 378.632C1223.74 376.99 1223.33 375.082 1223.98 371.947C1224.47 369.582 1227.48 362.742 1228.25 362.276C1228.91 361.873 1231.1 368.019 1231.35 370.961C1231.61 374.053 1231.08 375.927 1229.41 377.811C1227.43 380.037 1226.92 380.141 1225.4 378.632ZM1065.32 374.813C1064.5 374.621 1062.87 374.016 1061.69 373.465C1059.41 372.395 1054.84 369.172 1054.84 368.628C1054.84 367.945 1060.96 366.908 1065.05 366.897C1069.6 366.889 1071.59 367.554 1073.25 369.647C1074.33 371.008 1074.29 371.715 1073.04 373.051C1071.15 375.064 1068.75 375.612 1065.32 374.813ZM1242.22 374.692C1240.75 374.059 1238.93 372.195 1238.93 371.323C1238.93 370.329 1240.42 368.703 1242.2 367.76C1243.6 367.023 1244.43 366.897 1247.95 366.908C1252.04 366.916 1258.16 367.956 1258.16 368.639C1258.16 369.178 1253.6 372.401 1251.34 373.459C1247.6 375.213 1244.42 375.642 1242.22 374.692ZM1074.28 369.358C1072.87 368.262 1071.74 365.768 1071.73 363.734C1071.72 362.848 1072.07 361.013 1072.5 359.655C1073.31 357.06 1075.98 352.186 1076.6 352.155C1076.8 352.147 1077.48 353.536 1078.11 355.245C1078.97 357.533 1079.32 359.274 1079.45 361.848C1079.61 364.963 1079.52 365.528 1078.72 367.036C1078.22 367.966 1077.26 369.061 1076.59 369.467C1075.38 370.2 1075.36 370.197 1074.28 369.345L1074.28 369.358ZM1236.08 369.221C1234.01 367.831 1233.27 365.584 1233.53 361.554C1233.74 358.339 1235.55 352.395 1236.36 352.221C1236.96 352.099 1239.64 356.912 1240.5 359.657C1241.72 363.534 1241.35 366.64 1239.41 368.766C1238.15 370.136 1237.56 370.218 1236.08 369.221ZM1055.04 362.897C1052.5 362.026 1049.69 360.1 1047.02 357.409L1044.89 355.259L1046.63 354.943C1047.58 354.771 1050.66 354.68 1053.47 354.743C1057.99 354.847 1058.79 354.968 1060.53 355.826C1061.76 356.435 1062.92 357.413 1063.65 358.448L1064.8 360.099L1063.65 361.31C1061.44 363.634 1058.67 364.146 1055.04 362.897ZM1251.68 363.071C1251.03 362.772 1249.99 361.981 1249.35 361.314L1248.2 360.102L1249.35 358.451C1251.19 355.833 1253.52 354.902 1258.67 354.724C1261 354.652 1264.05 354.684 1265.44 354.846L1267.99 355.115L1266.79 356.616C1265.3 358.467 1261.3 361.506 1258.99 362.529C1256.75 363.523 1253.22 363.785 1251.68 363.071ZM1095.63 361.988C1096.01 361.636 1097.19 359.059 1098.24 356.258C1099.3 353.458 1100.27 351.167 1100.4 351.167C1100.52 351.167 1101.51 353.367 1102.57 356.056C1103.63 358.744 1104.88 361.329 1105.35 361.8L1106.2 362.658L1104.89 362.502C1103.71 362.365 1103.48 362.131 1102.71 360.253C1101.86 358.173 1101.84 358.156 1100.17 358.156C1098.53 358.156 1098.46 358.196 1097.8 359.9C1097.33 361.137 1097.25 361.785 1097.54 362.133C1097.86 362.511 1097.62 362.622 1096.45 362.622C1095.03 362.622 1094.98 362.588 1095.63 361.988ZM1101.53 357.285C1101.52 357.018 1101.19 356.026 1100.8 355.083L1100.1 353.366L1099.45 355.249C1098.59 357.753 1098.6 357.771 1100.18 357.771C1101.03 357.771 1101.54 357.585 1101.53 357.285ZM1109.2 362.547L1108.03 362.392L1108.15 356.776C1108.2 353.688 1108.4 351.161 1108.56 351.161C1108.72 351.161 1110.86 353.171 1113.31 355.628C1115.76 358.085 1117.8 360.095 1117.84 360.095C1117.88 360.095 1117.84 358.303 1117.74 356.113C1117.62 353.092 1117.41 352.015 1116.94 351.646C1116.42 351.238 1116.6 351.166 1118.06 351.192C1119.02 351.2 1119.58 351.314 1119.31 351.418C1118.95 351.555 1118.82 353.015 1118.82 356.802C1118.82 360.088 1118.66 362.085 1118.4 362.249C1118.16 362.386 1116.05 360.586 1113.66 358.193C1111.28 355.82 1109.25 353.879 1109.14 353.879C1109.04 353.879 1109.09 355.67 1109.23 357.859C1109.44 360.811 1109.68 361.962 1110.14 362.313C1110.49 362.574 1110.69 362.765 1110.58 362.737C1110.47 362.697 1109.85 362.615 1109.21 362.538L1109.2 362.547ZM1122.95 362.032C1123.4 361.543 1123.53 360.231 1123.53 356.194V350.987L1128.24 355.636L1132.95 360.285L1132.95 356.407C1132.94 352.435 1132.81 351.838 1131.77 351.452C1131.45 351.331 1131.97 351.218 1132.93 351.2C1134.29 351.16 1134.57 351.272 1134.21 351.636C1133.89 351.952 1133.74 353.768 1133.74 357.268C1133.74 360.109 1133.61 362.434 1133.45 362.434C1133.29 362.434 1131.17 360.47 1128.74 358.07L1124.32 353.707V357.604C1124.32 359.88 1124.49 361.676 1124.74 361.921C1125.04 362.221 1124.78 362.386 1123.77 362.502C1122.51 362.64 1122.43 362.607 1122.95 362.032ZM1138.47 362.258C1139.05 361.676 1138.94 351.664 1138.34 351.426C1138.07 351.304 1138.65 351.23 1139.62 351.23C1140.59 351.23 1141.17 351.318 1140.9 351.426C1140.11 351.739 1140.21 361.623 1141 362.196C1141.47 362.534 1141.22 362.628 1139.84 362.628C1138.74 362.628 1138.23 362.49 1138.47 362.258ZM1146.62 357.447C1145.01 353.587 1144.16 352.009 1143.49 351.66C1142.66 351.228 1142.78 351.18 1144.72 351.18C1145.92 351.18 1146.67 351.317 1146.4 351.486C1146.03 351.714 1146.35 352.833 1147.58 355.944C1148.49 358.228 1149.34 360.098 1149.47 360.1C1149.6 360.102 1150.44 358.234 1151.33 355.948C1152.56 352.819 1152.84 351.718 1152.47 351.488C1152.19 351.308 1152.63 351.179 1153.53 351.176C1154.83 351.172 1154.98 351.248 1154.48 351.656C1154.15 351.924 1152.85 354.462 1151.6 357.298C1150.35 360.133 1149.22 362.521 1149.08 362.605C1148.96 362.693 1147.84 360.366 1146.62 357.447ZM1179.17 362.572C1178.7 362.45 1178.48 361.986 1178.49 361.141L1178.49 359.907L1178.98 360.878C1179.67 362.233 1182.07 362.454 1182.93 361.243C1183.73 360.102 1183.44 359.474 1180.98 357.1C1178.82 355.022 1178.42 353.9 1179.26 352.348C1179.76 351.419 1181.5 350.839 1183.09 351.071C1184.16 351.226 1184.37 351.423 1184.37 352.269V353.282L1183.76 352.419C1183.08 351.468 1181.3 351.248 1180.52 352.022C1179.57 352.969 1180.02 354.195 1181.88 355.704C1184.73 358.013 1185.33 360.446 1183.44 361.997C1182.77 362.546 1180.26 362.886 1179.17 362.572ZM1196.12 362.532C1194.82 362.394 1194.67 362.241 1194 360.267L1193.27 358.149H1191.55C1189.93 358.149 1189.78 358.238 1189.22 359.567C1188.89 360.347 1188.71 361.309 1188.82 361.703C1188.97 362.285 1188.78 362.422 1187.8 362.422C1186.7 362.422 1186.65 362.374 1187.18 361.743C1187.5 361.37 1188.61 358.835 1189.65 356.111C1190.68 353.387 1191.64 351.16 1191.78 351.162C1191.9 351.164 1192.88 353.377 1193.93 356.079C1195.1 359.062 1196.24 361.351 1196.84 361.903C1197.38 362.403 1197.76 362.782 1197.67 362.746C1197.59 362.706 1196.89 362.622 1196.12 362.532ZM1192.71 357.533C1192.98 357.267 1191.77 353.877 1191.41 353.877C1191.15 353.877 1190.26 356.556 1190.26 357.321C1190.26 357.77 1192.29 357.947 1192.71 357.533ZM1199.68 362.266C1199.9 362.047 1200.07 359.645 1200.07 356.741C1200.07 352.175 1200 351.584 1199.38 351.426C1199 351.322 1199.93 351.23 1201.44 351.207C1204.62 351.159 1205.98 351.705 1206.52 353.229C1206.83 354.103 1206.73 354.641 1206 356.011L1205.09 357.708L1206.6 359.513C1207.43 360.505 1208.55 361.559 1209.09 361.853L1210.08 362.389L1208.88 362.397C1207.47 362.405 1206.98 362.066 1204.99 359.597C1203.94 358.292 1203.22 357.752 1202.54 357.752C1201.6 357.752 1201.57 357.824 1201.7 360.052L1201.82 362.352L1200.55 362.49C1199.7 362.594 1199.4 362.498 1199.67 362.248L1199.68 362.266ZM1204.45 356.73C1205.18 356.076 1205.44 353.709 1204.87 352.867C1204.4 352.171 1202.8 351.47 1202.2 351.697C1201.46 351.974 1201.4 356.822 1202.15 357.114C1203.07 357.483 1203.75 357.37 1204.47 356.726L1204.45 356.73ZM1212.63 362.325C1212.63 362.17 1212.8 362.032 1213.02 362.032C1213.24 362.032 1213.41 361.014 1213.41 359.752C1213.41 357.676 1213.24 357.208 1211.49 354.553C1210.43 352.949 1209.32 351.541 1209.03 351.426C1208.74 351.305 1209.27 351.203 1210.2 351.188C1211.24 351.148 1211.8 351.31 1211.64 351.549C1211.39 351.953 1214.04 356.598 1214.52 356.59C1214.98 356.582 1217.39 351.938 1217.14 351.538C1217 351.313 1217.5 351.156 1218.35 351.156H1219.8L1218.77 351.958C1218.2 352.399 1217.12 353.807 1216.36 355.086C1215.23 356.994 1214.98 357.802 1214.98 359.582C1214.98 361.074 1215.17 361.886 1215.58 362.183C1216.05 362.521 1215.8 362.615 1214.4 362.615C1213.42 362.615 1212.63 362.496 1212.63 362.325ZM1157.21 361.955C1157.52 361.644 1157.68 359.914 1157.68 356.731C1157.68 352.609 1157.59 351.92 1156.99 351.577C1156.48 351.283 1157.15 351.178 1159.54 351.169L1162.78 351.161L1162.77 352.229C1162.76 353.142 1162.72 353.199 1162.36 352.619C1162.1 352.179 1161.48 351.94 1160.6 351.94H1159.25V354.127V356.313L1161.04 356.113C1162.5 355.957 1162.79 356.009 1162.61 356.482C1162.49 356.795 1162.39 357.12 1162.39 357.202C1162.39 357.29 1162.17 357.29 1161.9 357.202C1159.5 356.469 1159.35 356.526 1159.08 358.288C1158.72 360.699 1159.32 362.037 1160.78 362.037C1161.42 362.037 1162.22 361.76 1162.56 361.427C1163.12 360.87 1163.18 360.89 1163.18 361.62C1163.18 362.369 1162.95 362.424 1159.96 362.424C1157.45 362.424 1156.84 362.316 1157.21 361.955ZM1166.63 361.955C1166.94 361.644 1167.1 359.914 1167.1 356.731C1167.1 352.609 1167.01 351.92 1166.41 351.577C1165.9 351.279 1166.37 351.178 1168.4 351.169C1170.98 351.161 1172.47 351.574 1173.08 352.477C1173.64 353.307 1173.37 355.337 1172.56 356.351L1171.75 357.376L1172.92 358.829C1174.32 360.566 1175.71 361.853 1176.52 362.145C1176.85 362.267 1176.47 362.371 1175.65 362.389C1174.32 362.429 1174.02 362.209 1172.31 360.092C1170.84 358.266 1170.2 357.764 1169.36 357.761C1168.33 357.758 1168.28 357.849 1168.28 359.622C1168.28 360.647 1168.49 361.697 1168.75 361.953C1169.11 362.314 1168.87 362.418 1167.69 362.418C1166.5 362.418 1166.26 362.317 1166.63 361.955ZM1171.42 356.595C1173.05 354.979 1171.94 351.987 1169.65 351.824L1168.47 351.736L1168.35 354.326C1168.24 356.547 1168.34 356.942 1168.94 357.097C1170.27 357.44 1170.63 357.37 1171.42 356.595ZM1064.72 357.968C1062.62 355.602 1062.57 352.526 1064.56 348.342C1065.63 346.106 1069.24 341.101 1069.81 341.072C1070.17 341.064 1071.31 345.74 1071.58 348.36C1071.87 351.1 1071.19 354.562 1070.02 356.28C1069.54 356.987 1068.42 357.962 1067.54 358.445L1065.93 359.323L1064.72 357.968ZM1245.41 358.417C1241.48 356.238 1240.4 351.078 1242.3 343.594C1242.66 342.199 1243.06 341.063 1243.19 341.071C1243.77 341.111 1247.39 346.117 1248.47 348.395C1250.46 352.591 1250.31 356.109 1248.04 358.262L1246.96 359.28L1245.41 358.417ZM1047.68 350.181C1044.57 349.049 1041.52 346.402 1038.77 342.441L1037.45 340.552L1042.32 340.786C1050.55 341.182 1054.58 342.911 1056.01 346.651C1056.38 347.625 1056.32 347.908 1055.54 348.74C1053.72 350.7 1050.66 351.261 1047.68 350.181ZM1259.53 350.229C1258.88 349.931 1257.95 349.255 1257.46 348.727C1256.68 347.895 1256.62 347.612 1256.99 346.638C1258.42 342.896 1262.45 341.169 1270.69 340.772L1275.56 340.538L1273.84 342.968C1271.74 345.933 1268.96 348.458 1266.51 349.631C1264.28 350.699 1261.15 350.967 1259.53 350.229ZM1057.27 346.36C1056.32 345.356 1055.63 343.689 1055.63 342.393C1055.63 339.6 1058.56 334.609 1062.09 331.385C1064.63 329.073 1064.85 329.408 1064.85 335.529C1064.85 340.145 1064.78 340.605 1063.75 342.676C1062.68 344.839 1061.45 345.937 1059.1 346.82C1058.25 347.142 1057.93 347.063 1057.27 346.36ZM1252.63 346.18C1250.84 345.257 1250.33 344.728 1249.33 342.799C1248.2 340.61 1248.15 340.3 1248.15 335.554C1248.15 329.405 1248.37 329.071 1250.91 331.384C1254.46 334.628 1257.37 339.6 1257.37 342.43C1257.37 343.737 1256.48 345.745 1255.52 346.587C1254.77 347.247 1254.66 347.233 1252.63 346.18ZM1108.62 345.269C1097.51 344 1088.57 338.72 1085.17 331.421C1083.15 327.094 1081.94 316.691 1081.93 303.66L1081.93 298.319H1096.25H1110.58L1110.59 306.961C1110.63 318.586 1111.05 325.187 1111.88 326.442C1112.85 327.903 1115.31 328.521 1117.36 327.815C1119.66 327.019 1120.3 325.692 1120.81 320.617C1121.43 314.594 1121.08 299.086 1120.27 296.651C1118.75 292.027 1116.45 290.684 1108.95 290.043L1103.89 289.611V281.593V273.576L1106.9 273.325C1108.55 273.187 1110.89 273.07 1112.1 273.066C1115.53 273.058 1117.29 272.5 1118.69 270.99C1120.7 268.822 1120.97 267.267 1120.97 257.732C1120.97 249.964 1120.9 249.046 1120.18 247.634C1118.2 243.707 1112.52 244.031 1111.37 248.139C1111.15 248.93 1110.85 253.032 1110.7 257.254L1110.44 264.929L1096.28 264.825L1082.11 264.721L1081.99 259.866C1081.44 237.151 1087.49 229.408 1107.22 227.579C1109.95 227.326 1114.13 227.249 1117.14 227.395C1134.12 228.22 1142.11 232.568 1146.28 243.239C1148.12 247.96 1148.75 252.475 1148.52 259.284C1148.31 265.178 1147.8 267.787 1146.27 270.742C1145.33 272.562 1142.05 275.731 1139.41 277.371C1138.23 278.106 1137.26 278.792 1137.26 278.899C1137.26 279.003 1138.25 279.516 1139.46 280.035C1142.2 281.212 1145.65 284.293 1146.84 286.633C1148.94 290.755 1150.06 300.703 1149.68 311.916C1149.22 325.731 1146.85 332.962 1141.1 338.156C1134.5 344.115 1122.15 346.818 1108.6 345.271L1108.62 345.269ZM1188.55 345.309C1178.76 344.299 1172.29 341.401 1167.7 335.974C1164.16 331.79 1162.16 327.459 1160.93 321.34C1160.14 317.394 1159.73 269.779 1160.39 260.014C1161.46 244.445 1164.26 238.188 1172.55 232.887C1177.28 229.855 1182.16 228.307 1189.14 227.616C1200.49 226.494 1212.16 229.836 1219 236.165C1222.29 239.212 1224.42 242.527 1225.75 246.672C1227.61 252.491 1227.74 255.17 1227.73 287.455C1227.72 314.001 1227.64 318.03 1227.05 321.559C1224.95 334.072 1217.11 342.173 1204.63 344.725C1200.82 345.503 1193.13 345.781 1188.55 345.309ZM1196.89 327.162C1199.04 325.568 1199.03 325.786 1199.19 290.127C1199.33 256.563 1199.14 248.989 1197.95 246.758C1196.59 244.151 1191.73 244.255 1190.16 246.931C1188.93 249.029 1188.71 254.956 1188.7 286.491C1188.7 315.945 1188.95 324.62 1189.87 326.32C1190.91 328.234 1194.81 328.7 1196.89 327.162ZM1043.06 336.826C1040.21 335.917 1037.47 333.825 1035.58 331.106C1034.12 329.003 1032.34 325.523 1032.59 325.269C1032.91 324.951 1039.57 326.209 1042.05 327.06C1045.61 328.272 1047.64 329.618 1048.75 331.487C1050.13 333.817 1050.05 334.977 1048.45 335.958C1046.94 336.878 1044.48 337.276 1043.06 336.826ZM1266.37 336.818C1263.15 335.798 1262.57 334.335 1264.25 331.488C1265.36 329.618 1267.39 328.274 1270.95 327.061C1273.44 326.213 1280.09 324.951 1280.41 325.269C1280.67 325.524 1278.89 329.003 1277.42 331.106C1274.51 335.293 1269.59 337.838 1266.37 336.818ZM1050.47 332.279C1048.79 328.52 1051.28 323.871 1057.38 319.41C1059.71 317.704 1059.71 317.703 1060.06 318.599C1060.53 319.804 1060.11 325.235 1059.38 327.673C1058.33 331.142 1055.08 334.065 1052.28 334.065C1051.45 334.065 1051.12 333.737 1050.47 332.279ZM1258.33 333.518C1256.59 332.767 1254.31 329.94 1253.62 327.675C1252.87 325.237 1252.47 319.805 1252.94 318.601C1253.29 317.701 1253.29 317.703 1255.63 319.412C1261.72 323.872 1264.21 328.522 1262.53 332.28C1261.85 333.801 1261.57 334.065 1260.63 334.052C1260.03 334.044 1258.99 333.804 1258.33 333.518ZM1037.68 321.838C1034.77 320.588 1031.41 315.873 1029.95 311.01L1029.38 309.121L1030.44 309.331C1033.02 309.844 1038.66 312.17 1040.85 313.631C1043.57 315.441 1045.02 317.566 1045.03 319.783C1045.03 320.995 1044.84 321.325 1043.87 321.822C1042.44 322.557 1039.37 322.566 1037.68 321.83L1037.68 321.838ZM1269.05 321.798C1268.17 321.326 1267.97 320.952 1267.98 319.774C1267.99 317.559 1269.43 315.434 1272.15 313.624C1274.35 312.162 1279.99 309.837 1282.57 309.323C1283.63 309.113 1283.63 309.117 1283.23 310.612C1281.94 315.34 1278.18 320.629 1275.24 321.847C1273.5 322.566 1270.44 322.538 1269.05 321.798ZM1046.27 319.475C1044.99 316.687 1046.32 312.895 1049.61 310.03C1052.51 307.497 1056.49 305.17 1056.85 305.802C1057.29 306.584 1056.55 311.949 1055.68 314.197C1054.15 318.179 1051.44 320.465 1048.25 320.465C1047 320.465 1046.65 320.29 1046.27 319.475ZM1261.61 319.672C1259.81 318.73 1258.34 316.852 1257.32 314.197C1256.45 311.949 1255.71 306.583 1256.15 305.802C1256.51 305.171 1260.49 307.497 1263.39 310.03C1266.68 312.895 1268.02 316.687 1266.73 319.475C1266.35 320.305 1266.02 320.462 1264.67 320.449C1263.79 320.441 1262.41 320.09 1261.61 319.672ZM1035.18 306.54C1033.11 305.241 1031.28 302.573 1030.2 299.28C1029.34 296.678 1028.71 292.887 1029.13 292.887C1029.76 292.887 1035.88 296.254 1037.65 297.572C1040.64 299.79 1042.01 301.9 1042.21 304.545C1042.36 306.753 1042.36 306.767 1041.09 307.206C1038.94 307.949 1037.09 307.743 1035.18 306.54ZM1271.75 307.181C1270.67 306.79 1270.64 306.705 1270.79 304.551C1270.99 301.898 1272.36 299.792 1275.35 297.572C1277.12 296.253 1283.24 292.887 1283.87 292.887C1284.29 292.887 1283.66 296.677 1282.8 299.279C1280.69 305.726 1276.34 308.834 1271.75 307.181ZM1043.71 305.91C1043.25 304.716 1043.45 301.765 1044.08 300.445C1044.43 299.731 1045.57 298.344 1046.63 297.364C1048.66 295.489 1054.94 292.195 1055.17 292.885C1055.52 293.935 1054.24 299.029 1053.01 301.462C1051.19 305.054 1049.66 306.208 1046.41 306.412C1044.39 306.534 1043.93 306.453 1043.71 305.91ZM1263.72 305.838C1262.15 305.067 1260.87 303.473 1259.57 300.649C1258.63 298.609 1257.54 293.755 1257.83 292.903C1258.07 292.202 1264.32 295.478 1266.37 297.373C1267.43 298.353 1268.57 299.739 1268.92 300.454C1269.54 301.754 1269.75 304.719 1269.3 305.877C1268.98 306.712 1265.46 306.689 1263.72 305.838ZM1036.9 292.465C1036.2 292.267 1035.01 291.473 1034.26 290.702C1032.2 288.607 1031.23 285.678 1030.99 280.873L1030.79 276.811L1031.92 277.525C1034.32 279.033 1037.29 281.449 1038.63 282.965C1040.63 285.239 1041.48 287.287 1041.49 289.868L1041.5 292.083L1040.02 292.487C1039.21 292.712 1038.46 292.877 1038.35 292.858C1038.25 292.85 1037.59 292.665 1036.9 292.465ZM1272.78 292.466C1271.53 292.105 1271.5 292.052 1271.51 289.876C1271.52 287.287 1272.37 285.242 1274.37 282.966C1275.71 281.45 1278.68 279.033 1281.08 277.526L1282.21 276.812L1282.01 280.874C1281.78 285.167 1281.14 287.518 1279.54 289.799C1277.91 292.133 1275.25 293.181 1272.78 292.466ZM1043.17 292.273C1042.39 291.933 1042.56 288.42 1043.44 286.728C1043.86 285.916 1044.86 284.674 1045.67 283.969C1047.17 282.666 1051.78 280.33 1053.79 279.855C1054.89 279.596 1054.89 279.601 1054.61 281.1C1053.81 285.38 1051.7 289.546 1049.5 291.212C1048.42 292.025 1047.58 292.296 1045.87 292.383C1044.65 292.431 1043.44 292.391 1043.17 292.261V292.273ZM1264.64 291.898C1263.99 291.564 1263.13 290.998 1262.73 290.638C1261.11 289.186 1259.06 284.678 1258.39 281.1C1258.11 279.603 1258.11 279.596 1259.21 279.855C1261.22 280.329 1265.83 282.665 1267.33 283.969C1268.14 284.672 1269.15 285.915 1269.56 286.728C1270.53 288.592 1270.61 291.93 1269.7 292.273C1268.55 292.713 1265.82 292.508 1264.64 291.898ZM1044.3 278.056C1043.47 277.645 1043.4 277.411 1043.61 275.872C1044.22 271.476 1048.07 268.268 1054.6 266.715C1055.68 266.458 1055.72 266.498 1055.51 267.544C1054.77 271.207 1052.15 275.938 1050.05 277.423C1048.66 278.403 1045.66 278.732 1044.3 278.056ZM1263.74 277.883C1262.31 277.182 1260.63 275.237 1259.43 272.896C1258.46 270.978 1257.16 266.955 1257.43 266.687C1257.71 266.41 1261.57 267.582 1263.46 268.516C1267.19 270.366 1268.92 272.531 1269.39 275.921C1269.61 277.449 1269.53 277.628 1268.58 278.058C1267.16 278.701 1265.28 278.632 1263.74 277.883ZM1037.42 276.938C1034.95 275.018 1033.75 270.192 1034.46 265.069C1034.7 263.392 1035.03 261.875 1035.2 261.697C1035.66 261.232 1040.48 267.043 1041.72 269.56C1042.81 271.756 1043.14 274.592 1042.56 276.683C1042.29 277.662 1042.11 277.75 1040.37 277.75C1039.03 277.75 1038.15 277.51 1037.42 276.938ZM1270.44 276.704C1269.86 274.612 1270.19 271.776 1271.28 269.58C1272.52 267.063 1277.34 261.253 1277.8 261.718C1278.49 262.421 1278.97 268.1 1278.56 270.668C1277.77 275.515 1275.89 277.772 1272.64 277.772C1270.89 277.772 1270.71 277.684 1270.44 276.704ZM1047.86 264.486C1046.23 264.058 1045.99 263.43 1046.6 261.247C1047.57 257.835 1051.44 254.751 1056.05 253.726C1056.99 253.516 1057.84 253.42 1057.93 253.512C1058.23 253.805 1055.94 258.851 1054.56 260.936C1052.58 263.95 1050.33 265.138 1047.86 264.486ZM1262.83 264.534C1261.1 264.063 1259.81 263.001 1258.44 260.917C1257.06 258.832 1254.77 253.785 1255.07 253.493C1255.39 253.178 1258.65 254.084 1260.75 255.064C1264.03 256.599 1266.79 260.279 1266.79 263.11C1266.79 264.166 1264.51 264.988 1262.83 264.534ZM1041.59 262.788C1039.45 261.291 1038.76 257.727 1039.72 253.185C1040.07 251.531 1040.66 249.447 1041.05 248.557L1041.74 246.937L1042.91 248.847C1045.83 253.603 1046.88 258.376 1045.71 261.632C1045.22 262.989 1044.98 263.2 1043.81 263.297C1043.05 263.345 1042.1 263.141 1041.59 262.788ZM1267.48 262.312C1267.22 261.724 1267.01 259.846 1267.01 258.137C1267.02 254.797 1267.7 252.726 1270.09 248.847L1271.26 246.937L1271.95 248.556C1272.34 249.447 1272.94 251.53 1273.28 253.185C1274.55 259.18 1272.88 263.38 1269.25 263.38C1268.21 263.38 1267.86 263.168 1267.48 262.312ZM1052.24 250.929C1050.61 250.329 1050.41 249.606 1051.33 247.493C1052.72 244.301 1056.79 241.22 1060.81 240.309L1061.88 240.067L1060.76 242.533C1057.98 248.674 1054.76 251.849 1052.24 250.929ZM1259.06 251.033C1257.6 250.808 1254.76 247.555 1253.07 244.189C1251.08 240.202 1251.07 240.023 1252.95 240.536C1256.8 241.582 1260.32 244.395 1261.67 247.499C1262.46 249.328 1262.48 249.519 1261.88 250.17C1261.15 250.969 1260.31 251.227 1259.06 251.033ZM1046.78 248.595C1046.16 247.924 1046.02 247.207 1046.03 244.983C1046.07 242.039 1047.09 239.022 1049.24 235.657L1050.27 234.053L1050.84 235.411C1051.16 236.176 1051.48 238.557 1051.57 240.849C1051.71 244.444 1051.62 245.181 1050.83 247.064C1050.05 248.926 1049.78 249.215 1048.74 249.316C1047.91 249.388 1047.31 249.179 1046.78 248.595ZM1262.36 247.551C1261.62 245.973 1261.5 245.058 1261.52 241.239C1261.56 238.19 1261.74 236.341 1262.14 235.413L1262.73 234.055L1263.76 235.659C1265.91 239.024 1266.94 242.041 1266.97 244.985C1267.01 248.192 1266.28 249.397 1264.35 249.397C1263.38 249.397 1263.09 249.132 1262.36 247.551ZM1057.38 237.585C1056.63 237.042 1056.63 237.01 1057.47 235.296C1058.95 232.269 1060.85 230.485 1065.6 227.644L1067.14 226.725L1065.23 230.298C1063.26 234 1060.34 237.532 1058.94 237.915C1058.5 238.037 1057.8 237.875 1057.38 237.585ZM1253.61 237.758C1252.26 237.218 1249.72 233.966 1247.73 230.233L1245.86 226.73L1247.4 227.647C1252.15 230.488 1254.05 232.273 1255.53 235.299C1256.37 237.01 1256.37 237.046 1255.62 237.587C1254.77 238.205 1254.74 238.208 1253.61 237.758ZM1054.05 235.395C1053.47 234.338 1053.87 232.619 1055.32 229.898C1056.42 227.835 1060.64 222.768 1060.98 223.104C1061.07 223.192 1060.7 224.938 1060.17 226.997C1059.29 230.417 1058.24 233.009 1056.78 235.32C1056.09 236.413 1054.62 236.455 1054.05 235.395ZM1256.23 235.323C1254.76 233.011 1253.71 230.419 1252.83 226.999C1252.3 224.94 1251.94 223.191 1252.02 223.111C1252.37 222.764 1256.5 227.699 1257.63 229.803C1259.12 232.618 1259.53 234.331 1258.96 235.397C1258.38 236.455 1256.92 236.413 1256.23 235.323ZM1064.66 224.825C1064.66 224.552 1064.95 223.896 1065.31 223.368C1065.89 222.507 1065.83 222.524 1064.73 223.541C1063.72 224.472 1063.46 224.564 1063.26 224.061C1062.75 222.728 1065.4 219.265 1069.12 216.431C1071.72 214.442 1072.31 214.383 1070.49 216.293C1069.73 217.095 1068.44 218.711 1067.62 219.886C1065.96 222.278 1065.97 222.273 1070.69 217.167L1072.66 215.031L1070.96 218.138C1068.93 221.843 1066.84 224.766 1065.99 225.089C1065.05 225.449 1064.66 225.369 1064.66 224.825ZM1246.89 225.066C1246.16 224.774 1243.93 221.592 1242.04 218.134L1240.34 215.027L1242.31 217.163C1247.03 222.269 1247.04 222.274 1245.38 219.882C1244.56 218.706 1243.27 217.09 1242.51 216.289C1240.69 214.379 1241.28 214.438 1243.89 216.427C1247.6 219.26 1250.25 222.724 1249.74 224.057C1249.54 224.559 1249.29 224.47 1248.27 223.536C1247.17 222.523 1247.11 222.506 1247.69 223.363C1248.78 224.955 1248.43 225.687 1246.89 225.066ZM1220.14 220.965C1217.79 218.958 1217.26 218.189 1218.9 219.175C1219.69 219.647 1219.88 219.549 1221.3 217.939C1222.14 216.978 1222.83 216.104 1222.82 215.997C1222.81 215.894 1221.97 215.143 1220.95 214.338C1218.15 212.118 1216.84 210.925 1217.01 210.756C1217.3 210.47 1232.39 207.069 1232.57 207.25C1232.68 207.354 1231.06 209.403 1228.99 211.812L1225.21 216.192L1226.45 217.246C1227.49 218.137 1227.58 218.339 1227.02 218.551C1226.66 218.689 1225.89 218.503 1225.31 218.117C1224.25 217.432 1224.25 217.432 1222.95 218.916C1221.49 220.584 1221.37 221.251 1222.31 222.278C1223.52 223.601 1222.52 222.998 1220.14 220.965ZM1226.53 211.853C1227.95 210.215 1229.06 208.825 1229 208.766C1228.95 208.718 1227.22 209.066 1225.18 209.568C1223.13 210.068 1220.93 210.602 1220.28 210.75L1219.1 211.023L1221.26 212.924C1222.45 213.969 1223.54 214.826 1223.69 214.828C1223.83 214.831 1225.11 213.492 1226.53 211.853ZM1094.49 218.771C1094.49 218.581 1094.75 218.205 1095.07 217.941C1095.4 217.675 1095.66 217.285 1095.66 217.071C1095.66 216.589 1086.64 205.123 1086.26 205.123C1086.1 205.123 1085.75 205.56 1085.46 206.095C1084.5 207.865 1084.36 207.101 1085.22 204.757C1085.69 203.486 1086.17 202.343 1086.3 202.215C1086.42 202.094 1088.57 204.569 1091.06 207.729C1097.87 216.364 1097.42 215.894 1098.42 215.293C1100.27 214.178 1099.48 215.245 1097.05 217.123C1095.64 218.222 1094.49 218.962 1094.49 218.771ZM1206.77 211.014C1204.52 209.58 1202.62 208.222 1202.54 207.999C1202.47 207.767 1203.65 207.405 1205.31 207.147C1213.15 205.942 1217.73 202.864 1217.73 198.805C1217.73 197.393 1216.31 195.72 1214.71 195.241C1213.77 194.961 1211.65 195.851 1211.32 196.665C1211.2 196.936 1211.11 196.985 1211.09 196.769C1211.04 196.093 1212.6 193.856 1213.11 193.86C1214.07 193.868 1217.54 195.703 1218.45 196.68C1219.64 197.96 1219.97 200.354 1219.17 201.892C1217.7 204.697 1213.91 206.7 1208.42 207.564C1206.85 207.811 1205.56 208.13 1205.56 208.272C1205.56 208.768 1211.01 211.724 1211.92 211.724C1212.43 211.724 1213.28 211.426 1213.82 211.064C1214.76 210.421 1214.77 210.422 1214.21 211.168C1213.39 212.248 1211.72 213.647 1211.26 213.639C1211.04 213.635 1209.02 212.45 1206.77 211.014ZM1103.66 212.503C1105.54 206.949 1105.55 203.495 1103.7 200.118C1101.07 195.333 1097.2 194.075 1095.32 197.391C1094.59 198.675 1094.97 200.084 1096.47 201.787C1098.39 203.95 1100.7 203.983 1102.43 201.875C1102.85 201.359 1103.11 201.243 1103.12 201.571C1103.12 201.86 1102.52 202.689 1101.79 203.416C1100.7 204.493 1100.15 204.736 1098.83 204.736C1095.44 204.736 1093.42 202.418 1093.82 198.967C1093.97 197.522 1094.31 196.918 1095.61 195.72C1096.98 194.46 1097.46 194.249 1099.01 194.249C1101.33 194.249 1102.85 195.052 1104.32 197.054C1106.81 200.451 1107.22 204.888 1105.49 209.475C1104.79 211.319 1103.13 214.072 1103.66 212.503ZM1116.56 203.96C1117.6 201.951 1117.86 200.961 1117.97 198.541C1118.19 193.849 1116.98 190.808 1114.14 188.916C1112.44 187.78 1111.7 187.804 1110.22 189.037C1106.51 192.122 1112.06 198.31 1115.87 195.345L1116.96 194.499L1116.5 195.345C1115.44 197.307 1112.53 198.144 1110.35 197.117C1108.52 196.262 1107.23 193.689 1107.62 191.674C1107.95 189.939 1109.86 187.808 1111.61 187.237C1116 185.804 1119.81 189.989 1119.79 196.229C1119.78 198.839 1119.61 199.52 1118.33 202.078C1117.54 203.67 1116.52 205.299 1116.08 205.696C1115.45 206.263 1115.55 205.895 1116.56 203.96ZM1195.39 205.224C1193.17 204.098 1192.41 202.718 1192.46 199.947C1192.58 193.552 1197.83 187.047 1202.21 187.861C1205.33 188.438 1206.84 191.496 1206 195.52C1204.56 202.386 1199.29 207.209 1195.39 205.224ZM1199.6 203.392C1202.64 200.673 1205.19 193.211 1204.02 190.425C1203.44 189.042 1201.98 188.307 1200.76 188.781C1197.85 189.903 1194.2 196.853 1194.19 201.284C1194.18 202.122 1194.51 203.1 1194.99 203.711C1196.16 205.179 1197.73 205.07 1199.6 203.392ZM1181.72 200.154C1179.07 199.392 1176.91 198.636 1176.91 198.475C1176.91 198.32 1178.52 197.341 1180.5 196.312C1186.55 193.158 1189.05 190.324 1189.07 186.61C1189.08 185.277 1188.87 184.818 1187.87 183.988C1187.12 183.364 1186.18 182.982 1185.41 182.982C1183.98 182.982 1182.4 183.913 1182.4 184.752C1182.4 185.061 1182.25 185.311 1182.04 185.311C1181.83 185.311 1181.88 184.608 1182.16 183.661C1182.56 182.297 1182.83 181.989 1183.71 181.886C1185.56 181.672 1188.93 182.879 1190 184.138C1191.57 185.984 1191.68 187.35 1190.45 189.833C1189.24 192.292 1186.41 194.589 1182.08 196.651L1179.47 197.89L1181.81 198.6C1186.01 199.878 1186.94 199.906 1188.08 198.775C1188.63 198.227 1189.09 197.947 1189.09 198.155C1189.09 198.714 1187.16 201.632 1186.83 201.582C1186.67 201.542 1184.37 200.915 1181.73 200.153L1181.72 200.154ZM1131.38 199.558C1132.43 199.019 1132.49 198.431 1131.75 195.737L1131.37 194.315L1127.64 195.31C1125.59 195.858 1123.83 196.228 1123.73 196.133C1123.53 195.931 1128.93 182.167 1129.41 181.681C1129.78 181.304 1129.76 181.253 1131.38 187.255C1132.04 189.712 1132.66 191.945 1132.76 192.217C1132.89 192.607 1133.23 192.589 1134.34 192.129C1135.71 191.561 1135.75 191.567 1135.63 192.397C1135.55 192.927 1135.13 193.335 1134.52 193.481C1133.72 193.673 1133.55 193.941 1133.59 194.903C1133.63 195.555 1133.89 196.592 1134.2 197.207C1134.63 198.089 1134.99 198.308 1135.86 198.246C1137.6 198.124 1136.71 198.601 1133.82 199.347C1130.62 200.174 1130.09 200.218 1131.38 199.558ZM1128.75 193.678C1130.56 193.179 1130.99 192.912 1130.84 192.385C1130.73 192.02 1130.26 190.268 1129.79 188.49C1129.31 186.712 1128.79 185.402 1128.64 185.577C1128.41 185.836 1127.07 189.176 1125.25 194C1125.04 194.582 1125.13 194.683 1125.73 194.515C1126.14 194.393 1127.5 194.024 1128.75 193.678ZM1148.65 193.142C1148.65 192.664 1149.37 187.085 1149.62 185.627C1149.78 184.701 1149.4 184.265 1146.25 181.778C1143.71 179.78 1142.85 178.888 1143.23 178.676C1143.53 178.521 1145.35 178.095 1147.29 177.745C1149.23 177.396 1151.11 177.024 1151.48 176.917C1151.85 176.813 1153.07 174.987 1154.2 172.862C1155.32 170.738 1156.36 169 1156.5 169C1156.64 169 1157.68 170.738 1158.81 172.862C1159.93 174.987 1161.15 176.811 1161.52 176.917C1161.89 177.021 1163.78 177.396 1165.71 177.745C1167.65 178.094 1169.48 178.514 1169.77 178.676C1170.15 178.888 1169.28 179.784 1166.74 181.789C1163.86 184.067 1163.21 184.764 1163.35 185.444C1163.71 187.132 1164.39 193.174 1164.23 193.326C1164.14 193.414 1162.38 192.501 1160.3 191.304L1156.52 189.127L1152.89 191.201C1148.56 193.676 1148.65 193.637 1148.65 193.142Z" fill="#FCF8F2"/>
</svg>
