<svg width="300" height="115" viewBox="0 0 300 115" fill="none" xmlns="http://www.w3.org/2000/svg">
<path d="M70.6719 1.69531C71.125 1.69531 71.5625 1.77344 71.9844 1.92969C72.4219 2.07031 72.8047 2.28125 73.1328 2.5625C73.4766 2.82812 73.75 3.16406 73.9531 3.57031C74.1562 3.96094 74.2578 4.40625 74.2578 4.90625C74.2578 5.875 73.9453 6.97656 73.3203 8.21094C72.6953 9.44531 71.8828 10.8906 70.8828 12.5469C69.8047 14.3125 68.7891 16.0781 67.8359 17.8438C66.8828 19.5938 65.9922 21.2891 65.1641 22.9297C64.3516 24.5547 63.6016 26.0938 62.9141 27.5469C62.2422 28.9844 61.6562 30.2734 61.1562 31.4141C61.7812 31.4922 62.4062 31.5547 63.0312 31.6016C63.6562 31.6484 64.2188 31.6641 64.7188 31.6484L64.7656 32.8672C64.6562 32.8672 64.2422 32.8672 63.5234 32.8672C62.8203 32.8516 61.8594 32.7578 60.6406 32.5859C60.1562 33.7109 59.7812 34.5859 59.5156 35.2109C59.2656 35.8359 59.1406 36.1641 59.1406 36.1953L56.3516 35.3281L57.7578 32.1172C56.7109 31.8828 55.6094 31.6094 54.4531 31.2969C53.2969 30.9844 52.1172 30.6328 50.9141 30.2422C49.7266 29.8359 48.5391 29.3828 47.3516 28.8828C46.1641 28.3828 45.0234 27.8359 43.9297 27.2422C42.9141 28.4141 41.8125 29.5703 40.625 30.7109C39.4375 31.8359 38.1641 32.8516 36.8047 33.7578C35.4453 34.6484 34 35.3672 32.4688 35.9141C30.9531 36.4766 29.3516 36.7578 27.6641 36.7578C26.1641 36.7578 24.6641 36.5312 23.1641 36.0781C21.6797 35.6406 20.3438 35 19.1562 34.1562C17.9844 33.2969 17.0312 32.2578 16.2969 31.0391C15.5625 29.8047 15.1953 28.4062 15.1953 26.8438C15.1953 25.6094 15.4297 24.5234 15.8984 23.5859C16.3516 22.6484 16.9766 21.8672 17.7734 21.2422C18.5859 20.6172 19.5312 20.1484 20.6094 19.8359C21.7031 19.5078 22.875 19.3438 24.125 19.3438C25.0781 19.3438 26.0625 19.4375 27.0781 19.625C28.1094 19.8125 29.1094 20.125 30.0781 20.5625C31.0469 21 31.9609 21.5781 32.8203 22.2969C33.6797 23.0156 34.4141 23.9062 35.0234 24.9688L33.9922 25.625C33.9766 25.5938 33.8828 25.4766 33.7109 25.2734C33.5547 25.0547 33.3125 24.7969 32.9844 24.5C32.6719 24.1875 32.2656 23.8594 31.7656 23.5156C31.2656 23.1719 30.6641 22.8594 29.9609 22.5781C29.2734 22.2812 28.4688 22.0391 27.5469 21.8516C26.6406 21.6484 25.6094 21.5469 24.4531 21.5469C23.2812 21.5469 22.2578 21.75 21.3828 22.1562C20.5078 22.5469 19.7734 23.0547 19.1797 23.6797C18.6016 24.2891 18.1641 24.9766 17.8672 25.7422C17.5859 26.5078 17.4453 27.25 17.4453 27.9688C17.4453 28.8125 17.5938 29.5859 17.8906 30.2891C18.1875 30.9766 18.5859 31.6016 19.0859 32.1641C19.6016 32.7266 20.1953 33.2188 20.8672 33.6406C21.5547 34.0469 22.2734 34.3906 23.0234 34.6719C23.7891 34.9531 24.5625 35.1641 25.3438 35.3047C26.1406 35.4453 26.9141 35.5156 27.6641 35.5156C29.2109 35.5156 30.6953 35.2656 32.1172 34.7656C33.5391 34.25 34.8828 33.5781 36.1484 32.75C37.4141 31.9062 38.6016 30.9531 39.7109 29.8906C40.8359 28.8281 41.875 27.7422 42.8281 26.6328C41.7656 25.9922 40.7812 25.3047 39.875 24.5703C38.9844 23.8203 38.2109 23.0234 37.5547 22.1797C36.8984 21.3203 36.3828 20.4062 36.0078 19.4375C35.6484 18.4531 35.4688 17.4141 35.4688 16.3203C35.4688 15.4141 35.6328 14.5625 35.9609 13.7656C36.3047 12.9688 36.7656 12.2734 37.3438 11.6797C37.9375 11.0703 38.6328 10.5938 39.4297 10.25C40.2422 9.89063 41.1094 9.71094 42.0312 9.71094C43.0625 9.71094 44.0391 9.875 44.9609 10.2031C45.8828 10.5156 46.7578 10.9531 47.5859 11.5156C48.4141 12.0625 49.1875 12.7188 49.9062 13.4844C50.6406 14.25 51.3281 15.0781 51.9688 15.9688C53.7188 14.0156 55.4609 12.1797 57.1953 10.4609C58.9453 8.72656 60.625 7.21094 62.2344 5.91406C63.8438 4.61719 65.3594 3.59375 66.7812 2.84375C68.2188 2.07812 69.5156 1.69531 70.6719 1.69531ZM52.6953 17.0469C53.4297 18.1719 54.1016 19.3359 54.7109 20.5391C55.3203 21.7422 55.8672 22.9219 56.3516 24.0781C56.8516 25.2344 57.2891 26.3359 57.6641 27.3828C58.0547 28.4141 58.3906 29.3281 58.6719 30.125C60.5 26.1406 62.4531 22.2344 64.5312 18.4062C66.6094 14.5781 68.9453 10.7969 71.5391 7.0625C71.9609 6.4375 72.2578 5.92187 72.4297 5.51562C72.6172 5.09375 72.7109 4.73438 72.7109 4.4375C72.7109 3.9375 72.5 3.5625 72.0781 3.3125C71.6562 3.04688 71.1719 2.91406 70.625 2.91406C68.8906 2.91406 66.5234 4.10156 63.5234 6.47656C60.5391 8.83594 56.9297 12.3594 52.6953 17.0469ZM37.6016 17.4453C37.6016 18.2734 37.7578 19.0625 38.0703 19.8125C38.3828 20.5469 38.8125 21.2578 39.3594 21.9453C39.9062 22.6172 40.5547 23.2578 41.3047 23.8672C42.0547 24.4609 42.8672 25.0234 43.7422 25.5547C44.9141 24.1328 46.1094 22.7031 47.3281 21.2656C48.5469 19.8281 49.7812 18.4062 51.0312 17C50.4844 16.2812 49.9141 15.6172 49.3203 15.0078C48.7422 14.3828 48.1328 13.8438 47.4922 13.3906C46.8516 12.9375 46.1875 12.5859 45.5 12.3359C44.8125 12.0859 44.1016 11.9609 43.3672 11.9609C42.5391 11.9609 41.7734 12.1016 41.0703 12.3828C40.3672 12.6641 39.7578 13.0547 39.2422 13.5547C38.7266 14.0391 38.3203 14.6172 38.0234 15.2891C37.7422 15.9453 37.6016 16.6641 37.6016 17.4453ZM57.6406 30.8047C57.4219 30.1016 57.125 29.25 56.75 28.25C56.3906 27.25 55.9609 26.1797 55.4609 25.0391C54.9766 23.8828 54.4219 22.7031 53.7969 21.5C53.1875 20.2969 52.5156 19.1484 51.7812 18.0547C50.7031 19.2734 49.5859 20.5547 48.4297 21.8984C47.2734 23.2422 46.0703 24.6719 44.8203 26.1875C45.9141 26.7969 47.0547 27.3516 48.2422 27.8516C49.4453 28.3359 50.6094 28.7734 51.7344 29.1641C52.875 29.5391 53.9531 29.8672 54.9688 30.1484C56 30.4297 56.8906 30.6484 57.6406 30.8047ZM87.7109 0.898438C88.2578 0.898438 88.7109 1.03125 89.0703 1.29688C89.4453 1.5625 89.6328 2.04688 89.6328 2.75C89.6328 3.23438 89.5312 3.8125 89.3281 4.48438C89.1406 5.15625 88.875 5.89062 88.5312 6.6875C88.2031 7.46875 87.8125 8.29688 87.3594 9.17188C86.9062 10.0313 86.4141 10.8906 85.8828 11.75C85.3672 12.6094 84.8203 13.4453 84.2422 14.2578C83.6797 15.0703 83.1172 15.8203 82.5547 16.5078C81.4297 17.8984 80.4531 19.0703 79.625 20.0234C78.8125 20.9766 78.1094 21.7891 77.5156 22.4609C76.9219 23.1172 76.4219 23.6562 76.0156 24.0781C75.6094 24.4844 75.25 24.8359 74.9375 25.1328C74.625 25.4297 74.3359 25.7031 74.0703 25.9531C73.8047 26.1875 73.5312 26.4531 73.25 26.75C73.125 27.3438 73.0625 27.9141 73.0625 28.4609C73.0781 28.9922 73.0859 29.4844 73.0859 29.9375C73.0859 31.2969 73.3047 32.3047 73.7422 32.9609C74.1797 33.6172 74.7969 33.9453 75.5938 33.9453C76.125 33.9453 76.6562 33.8125 77.1875 33.5469C77.7344 33.2656 78.2734 32.9062 78.8047 32.4688C79.3359 32.0312 79.8516 31.5391 80.3516 30.9922C80.8516 30.4297 81.3203 29.8672 81.7578 29.3047C82.2109 28.7266 82.6172 28.1719 82.9766 27.6406C83.3359 27.1094 83.6484 26.6484 83.9141 26.2578L84.7812 26.9141C84.7344 26.9766 84.5781 27.2266 84.3125 27.6641C84.0625 28.0859 83.7266 28.6016 83.3047 29.2109C82.8828 29.8203 82.3828 30.4766 81.8047 31.1797C81.2266 31.8672 80.6016 32.5078 79.9297 33.1016C79.2578 33.6953 78.5469 34.1875 77.7969 34.5781C77.0625 34.9688 76.3125 35.1641 75.5469 35.1641C74.9062 35.1641 74.2891 35.0469 73.6953 34.8125C73.1172 34.5625 72.6016 34.1797 72.1484 33.6641C71.7109 33.1328 71.3516 32.4609 71.0703 31.6484C70.8047 30.8359 70.6719 29.8594 70.6719 28.7188C70.6719 27.2969 70.8359 25.8125 71.1641 24.2656C71.5078 22.7031 71.9688 21.1406 72.5469 19.5781C73.125 18 73.8047 16.4453 74.5859 14.9141C75.3672 13.3828 76.1953 11.9297 77.0703 10.5547C77.9609 9.16406 78.8828 7.88281 79.8359 6.71094C80.8047 5.52344 81.75 4.5 82.6719 3.64062C83.6094 2.78125 84.5078 2.10938 85.3672 1.625C86.2266 1.14062 87.0078 0.898438 87.7109 0.898438ZM73.6719 24.6641C75 23.2891 76.2812 21.8984 77.5156 20.4922C78.7656 19.0703 79.9297 17.6719 81.0078 16.2969C82.1016 14.9062 83.1016 13.5625 84.0078 12.2656C84.9141 10.9531 85.6875 9.71875 86.3281 8.5625C86.9688 7.40625 87.4688 6.35156 87.8281 5.39844C88.1875 4.44531 88.3672 3.625 88.3672 2.9375C88.3672 2.8125 88.3047 2.64844 88.1797 2.44531C88.0547 2.22656 87.9062 2.11719 87.7344 2.11719C87.25 2.11719 86.6094 2.4375 85.8125 3.07812C85.0156 3.71875 84.1484 4.59375 83.2109 5.70312C82.2891 6.79688 81.3281 8.07812 80.3281 9.54688C79.3438 11.0156 78.4141 12.5859 77.5391 14.2578C76.6641 15.9297 75.8828 17.6562 75.1953 19.4375C74.5078 21.2188 74 22.9609 73.6719 24.6641ZM85.6953 29.6562C85.6641 29.8438 85.6406 30.0312 85.625 30.2188C85.6094 30.4062 85.6016 30.5938 85.6016 30.7812C85.6016 31.3438 85.6797 31.8828 85.8359 32.3984C86.0078 32.8984 86.25 33.3438 86.5625 33.7344C86.8906 34.1094 87.2891 34.4062 87.7578 34.625C88.2422 34.8438 88.7891 34.9531 89.3984 34.9531C91.4453 34.9531 93.4219 34.2578 95.3281 32.8672C97.2344 31.4766 99.1328 29.2734 101.023 26.2578L101.82 26.9609C100.789 28.6797 99.7422 30.1328 98.6797 31.3203C97.6172 32.4922 96.5547 33.4453 95.4922 34.1797C94.4453 34.9141 93.4141 35.4453 92.3984 35.7734C91.3828 36.1016 90.4141 36.2656 89.4922 36.2656C88.8203 36.2656 88.1094 36.1719 87.3594 35.9844C86.6094 35.7969 85.9141 35.4844 85.2734 35.0469C84.6484 34.6094 84.1328 34.0234 83.7266 33.2891C83.3047 32.5547 83.0938 31.6406 83.0938 30.5469C83.0938 29.375 83.2969 28.25 83.7031 27.1719C84.0938 26.0781 84.6094 25.0625 85.25 24.125C85.8906 23.1875 86.625 22.3359 87.4531 21.5703C88.2812 20.7891 89.1172 20.125 89.9609 19.5781C90.8203 19.0312 91.6562 18.6094 92.4688 18.3125C93.2812 18 94 17.8438 94.625 17.8438C95.0312 17.8438 95.4453 17.9062 95.8672 18.0312C96.2891 18.1562 96.6641 18.3516 96.9922 18.6172C97.3359 18.8828 97.6094 19.2344 97.8125 19.6719C98.0312 20.1094 98.1406 20.6328 98.1406 21.2422C98.1406 22.0703 97.9453 22.8516 97.5547 23.5859C97.1797 24.3047 96.6719 24.9766 96.0312 25.6016C95.3906 26.2109 94.6484 26.7656 93.8047 27.2656C92.9609 27.75 92.0781 28.1641 91.1562 28.5078C90.2344 28.8516 89.3047 29.125 88.3672 29.3281C87.4297 29.5312 86.5391 29.6406 85.6953 29.6562ZM85.8828 28.6484C86.9297 28.5391 87.9141 28.3203 88.8359 27.9922C89.7578 27.6641 90.6016 27.2656 91.3672 26.7969C92.1328 26.3125 92.8125 25.7891 93.4062 25.2266C94.0156 24.6641 94.5234 24.0938 94.9297 23.5156C95.3359 22.9375 95.6484 22.3828 95.8672 21.8516C96.0859 21.3203 96.1953 20.8438 96.1953 20.4219C96.1953 20 96.0781 19.6641 95.8438 19.4141C95.625 19.1641 95.3594 19.0391 95.0469 19.0391C94.3594 19.0391 93.5859 19.2891 92.7266 19.7891C91.8672 20.2734 91.0078 20.9531 90.1484 21.8281C89.2891 22.6875 88.4766 23.7031 87.7109 24.875C86.9609 26.0469 86.3516 27.3047 85.8828 28.6484ZM108.547 16.6016C108.469 16.7422 108.367 16.8984 108.242 17.0703C108.117 17.2266 107.992 17.4141 107.867 17.6328C107.758 17.8359 107.656 18.0781 107.562 18.3594C107.484 18.6406 107.445 18.9766 107.445 19.3672C107.445 19.6953 107.523 20.1406 107.68 20.7031C107.852 21.2656 108.031 21.9141 108.219 22.6484C108.406 23.3672 108.578 24.1562 108.734 25.0156C108.906 25.8594 108.992 26.7344 108.992 27.6406C108.992 28.9688 108.812 30.1406 108.453 31.1562C108.094 32.1719 107.617 33.0391 107.023 33.7578C108.242 33.1016 109.438 32.1641 110.609 30.9453C111.781 29.7109 112.961 28.1484 114.148 26.2578L114.945 26.9609C114.273 28.0703 113.508 29.1719 112.648 30.2656C111.805 31.3438 110.875 32.3203 109.859 33.1953C108.844 34.0547 107.75 34.75 106.578 35.2812C105.406 35.8281 104.164 36.1016 102.852 36.1016C101.68 36.1016 100.695 35.8203 99.8984 35.2578C99.0859 34.7109 98.5859 33.8828 98.3984 32.7734L99.2422 32.6094C99.2422 32.7031 99.2891 32.8594 99.3828 33.0781C99.4609 33.2812 99.5938 33.4844 99.7812 33.6875C99.9688 33.8906 100.227 34.0703 100.555 34.2266C100.867 34.3828 101.258 34.4609 101.727 34.4609C102.352 34.4609 102.906 34.3203 103.391 34.0391C103.875 33.7422 104.297 33.3594 104.656 32.8906C105.016 32.4219 105.32 31.8906 105.57 31.2969C105.82 30.6875 106.016 30.0625 106.156 29.4219C106.312 28.7812 106.422 28.1562 106.484 27.5469C106.547 26.9375 106.578 26.3828 106.578 25.8828C106.578 25.3828 106.555 24.8281 106.508 24.2188C106.477 23.6094 106.438 23.0312 106.391 22.4844C106.344 21.9219 106.297 21.4375 106.25 21.0312C106.219 20.6094 106.203 20.3359 106.203 20.2109V20.1641C106 20.3828 105.758 20.7031 105.477 21.125C105.195 21.5469 104.891 22.0078 104.562 22.5078C104.25 23.0078 103.93 23.5156 103.602 24.0312C103.289 24.5469 103 25.0156 102.734 25.4375C102.484 25.8594 102.273 26.2109 102.102 26.4922C101.945 26.7578 101.867 26.8984 101.867 26.9141L101.023 26.2578C101.039 26.2422 101.234 25.9062 101.609 25.25C101.984 24.5938 102.477 23.7656 103.086 22.7656C103.711 21.75 104.414 20.6328 105.195 19.4141C105.977 18.1797 106.781 16.9844 107.609 15.8281L108.547 16.6016ZM121.672 16.6016C121.594 16.7422 121.492 16.8984 121.367 17.0703C121.242 17.2266 121.117 17.4141 120.992 17.6328C120.883 17.8359 120.781 18.0781 120.688 18.3594C120.609 18.6406 120.57 18.9766 120.57 19.3672C120.57 19.6953 120.648 20.1406 120.805 20.7031C120.977 21.2656 121.156 21.9141 121.344 22.6484C121.531 23.3672 121.703 24.1562 121.859 25.0156C122.031 25.8594 122.117 26.7344 122.117 27.6406C122.117 28.9688 121.938 30.1406 121.578 31.1562C121.219 32.1719 120.742 33.0391 120.148 33.7578C121.367 33.1016 122.562 32.1641 123.734 30.9453C124.906 29.7109 126.086 28.1484 127.273 26.2578L128.07 26.9609C127.398 28.0703 126.633 29.1719 125.773 30.2656C124.93 31.3438 124 32.3203 122.984 33.1953C121.969 34.0547 120.875 34.75 119.703 35.2812C118.531 35.8281 117.289 36.1016 115.977 36.1016C114.805 36.1016 113.82 35.8203 113.023 35.2578C112.211 34.7109 111.711 33.8828 111.523 32.7734L112.367 32.6094C112.367 32.7031 112.414 32.8594 112.508 33.0781C112.586 33.2812 112.719 33.4844 112.906 33.6875C113.094 33.8906 113.352 34.0703 113.68 34.2266C113.992 34.3828 114.383 34.4609 114.852 34.4609C115.477 34.4609 116.031 34.3203 116.516 34.0391C117 33.7422 117.422 33.3594 117.781 32.8906C118.141 32.4219 118.445 31.8906 118.695 31.2969C118.945 30.6875 119.141 30.0625 119.281 29.4219C119.438 28.7812 119.547 28.1562 119.609 27.5469C119.672 26.9375 119.703 26.3828 119.703 25.8828C119.703 25.3828 119.68 24.8281 119.633 24.2188C119.602 23.6094 119.562 23.0312 119.516 22.4844C119.469 21.9219 119.422 21.4375 119.375 21.0312C119.344 20.6094 119.328 20.3359 119.328 20.2109V20.1641C119.125 20.3828 118.883 20.7031 118.602 21.125C118.32 21.5469 118.016 22.0078 117.688 22.5078C117.375 23.0078 117.055 23.5156 116.727 24.0312C116.414 24.5469 116.125 25.0156 115.859 25.4375C115.609 25.8594 115.398 26.2109 115.227 26.4922C115.07 26.7578 114.992 26.8984 114.992 26.9141L114.148 26.2578C114.164 26.2422 114.359 25.9062 114.734 25.25C115.109 24.5938 115.602 23.7656 116.211 22.7656C116.836 21.75 117.539 20.6328 118.32 19.4141C119.102 18.1797 119.906 16.9844 120.734 15.8281L121.672 16.6016ZM137.797 14.2109C137.797 14.5234 137.719 14.8516 137.562 15.1953C137.406 15.5234 137.203 15.8203 136.953 16.0859C136.719 16.3516 136.453 16.5703 136.156 16.7422C135.859 16.9141 135.562 17 135.266 17C135 17 134.797 16.9062 134.656 16.7188C134.516 16.5156 134.445 16.2734 134.445 15.9922C134.445 15.7422 134.492 15.4453 134.586 15.1016C134.68 14.7578 134.82 14.4375 135.008 14.1406C135.195 13.8281 135.422 13.5625 135.688 13.3438C135.953 13.125 136.258 13.0156 136.602 13.0156C136.93 13.0156 137.211 13.1406 137.445 13.3906C137.68 13.6406 137.797 13.9141 137.797 14.2109ZM133.414 19.4141C133.211 19.8203 132.922 20.3594 132.547 21.0312C132.188 21.6875 131.797 22.4141 131.375 23.2109C130.953 23.9922 130.523 24.8203 130.086 25.6953C129.648 26.5547 129.25 27.3984 128.891 28.2266C128.547 29.0391 128.266 29.8047 128.047 30.5234C127.828 31.2422 127.719 31.8516 127.719 32.3516C127.719 32.8047 127.812 33.1172 128 33.2891C128.188 33.4453 128.453 33.5234 128.797 33.5234C129.438 33.5234 130.062 33.3125 130.672 32.8906C131.281 32.4688 131.883 31.9219 132.477 31.25C133.086 30.5625 133.68 29.7812 134.258 28.9062C134.836 28.0312 135.414 27.1484 135.992 26.2578L136.836 26.9141C136.383 27.7266 135.867 28.5938 135.289 29.5156C134.727 30.4375 134.094 31.2969 133.391 32.0938C132.688 32.875 131.914 33.5234 131.07 34.0391C130.227 34.5547 129.305 34.8125 128.305 34.8125C127.367 34.8125 126.648 34.5312 126.148 33.9688C125.648 33.4062 125.398 32.6797 125.398 31.7891C125.398 30.7422 125.641 29.6484 126.125 28.5078C126.609 27.3672 127.211 26.2422 127.93 25.1328C128.664 24.0078 129.453 22.9297 130.297 21.8984C131.156 20.8672 131.945 19.9297 132.664 19.0859L133.414 19.4141ZM154.625 19.4141C154.422 19.8203 154.133 20.3516 153.758 21.0078C153.398 21.6641 153.008 22.3906 152.586 23.1875C152.164 23.9688 151.734 24.7891 151.297 25.6484C150.875 26.5078 150.484 27.3516 150.125 28.1797C149.781 28.9922 149.492 29.7656 149.258 30.5C149.039 31.2188 148.93 31.8281 148.93 32.3281C148.93 32.8281 149.023 33.1562 149.211 33.3125C149.414 33.4531 149.672 33.5234 149.984 33.5234C150.438 33.5234 150.898 33.3906 151.367 33.125C151.852 32.8594 152.32 32.5156 152.773 32.0938C153.242 31.6719 153.695 31.1953 154.133 30.6641C154.57 30.1328 154.977 29.6016 155.352 29.0703C155.742 28.5234 156.094 28.0078 156.406 27.5234C156.719 27.0234 156.984 26.6016 157.203 26.2578L158.047 26.9141C157.781 27.4141 157.469 27.9531 157.109 28.5312C156.75 29.1094 156.352 29.6953 155.914 30.2891C155.492 30.8672 155.031 31.4297 154.531 31.9766C154.031 32.5234 153.5 33.0078 152.938 33.4297C152.391 33.8516 151.812 34.1875 151.203 34.4375C150.594 34.6875 149.969 34.8125 149.328 34.8125C148.391 34.8125 147.703 34.5312 147.266 33.9688C146.828 33.4062 146.609 32.6797 146.609 31.7891C146.609 31.7266 146.609 31.5938 146.609 31.3906C146.625 31.1719 146.648 31 146.68 30.875C145.898 31.8594 145.148 32.6719 144.43 33.3125C143.727 33.9531 143.039 34.4609 142.367 34.8359C141.711 35.2109 141.07 35.4688 140.445 35.6094C139.836 35.7656 139.25 35.8438 138.688 35.8438C138.094 35.8438 137.531 35.7422 137 35.5391C136.484 35.3516 136.031 35.0703 135.641 34.6953C135.234 34.3203 134.922 33.8594 134.703 33.3125C134.469 32.7656 134.352 32.1328 134.352 31.4141C134.352 30.5234 134.555 29.5078 134.961 28.3672C135.352 27.2109 136.055 25.9688 137.07 24.6406C137.93 23.5 138.82 22.5391 139.742 21.7578C140.68 20.9766 141.594 20.3516 142.484 19.8828C143.391 19.3984 144.25 19.0547 145.062 18.8516C145.875 18.6484 146.602 18.5469 147.242 18.5469C148.68 18.5469 149.766 18.7891 150.5 19.2734C151.234 19.7422 151.68 20.4688 151.836 21.4531C152.148 21.0625 152.477 20.6719 152.82 20.2812C153.164 19.8906 153.516 19.4922 153.875 19.0859L154.625 19.4141ZM147.43 28.3203C147.633 27.9922 147.883 27.5781 148.18 27.0781C148.477 26.5625 148.789 26.0391 149.117 25.5078C149.445 24.9609 149.766 24.4375 150.078 23.9375C150.391 23.4375 150.664 23.0156 150.898 22.6719C150.898 22.5312 150.875 22.3047 150.828 21.9922C150.797 21.6797 150.695 21.3672 150.523 21.0547C150.352 20.7266 150.078 20.4453 149.703 20.2109C149.328 19.9766 148.805 19.8594 148.133 19.8594C147.648 19.8594 147.102 19.9375 146.492 20.0938C145.898 20.2344 145.258 20.4844 144.57 20.8438C143.898 21.1875 143.203 21.6484 142.484 22.2266C141.766 22.8047 141.047 23.5234 140.328 24.3828C139.25 25.6797 138.414 26.9844 137.82 28.2969C137.242 29.5938 136.953 30.7656 136.953 31.8125C136.953 32.7031 137.156 33.3906 137.562 33.875C137.969 34.3594 138.547 34.6016 139.297 34.6016C140.156 34.6016 140.961 34.4141 141.711 34.0391C142.461 33.6484 143.164 33.1484 143.82 32.5391C144.477 31.9297 145.102 31.2578 145.695 30.5234C146.289 29.7734 146.867 29.0391 147.43 28.3203ZM233.281 43.0859C233.234 43.1172 233.023 43.2266 232.648 43.4141C232.273 43.6016 231.781 43.8047 231.172 44.0234C230.562 44.2422 229.867 44.4375 229.086 44.6094C228.305 44.7969 227.492 44.8906 226.648 44.8906C225.273 44.8906 224.039 44.6484 222.945 44.1641C221.852 43.6797 220.922 42.9922 220.156 42.1016C219.406 41.2266 218.828 40.1641 218.422 38.9141C218.016 37.6797 217.812 36.3047 217.812 34.7891C217.812 33.3359 217.992 31.7422 218.352 30.0078C218.711 28.2578 219.18 26.4609 219.758 24.6172C220.336 22.7734 220.984 20.9297 221.703 19.0859C222.438 17.2422 223.172 15.4922 223.906 13.8359C224.656 12.1641 225.367 10.6406 226.039 9.26562C226.711 7.875 227.289 6.71875 227.773 5.79688C226.898 6.79688 225.898 7.95312 224.773 9.26562C223.648 10.5625 222.445 11.9922 221.164 13.5547C219.898 15.1016 218.578 16.7578 217.203 18.5234C215.828 20.2734 214.438 22.1016 213.031 24.0078C211.641 25.8984 210.258 27.8438 208.883 29.8438C207.508 31.8281 206.195 33.8281 204.945 35.8438L203.82 35.4688C204.055 32.9219 204.438 30.3984 204.969 27.8984C205.516 25.3828 206.125 22.9688 206.797 20.6562C207.484 18.3281 208.203 16.1484 208.953 14.1172C209.719 12.0703 210.445 10.2422 211.133 8.63281C210.086 10.0703 209.039 11.6328 207.992 13.3203C206.961 14.9922 205.914 16.7188 204.852 18.5C203.789 20.2656 202.695 22.0469 201.57 23.8438C200.445 25.625 199.273 27.3438 198.055 29C196.836 30.6406 195.547 32.1797 194.188 33.6172C192.844 35.0391 191.406 36.2734 189.875 37.3203C188.359 38.3828 186.734 39.2188 185 39.8281C183.281 40.4375 181.438 40.7422 179.469 40.7422C177.953 40.7422 176.578 40.5156 175.344 40.0625C174.109 39.6094 173.047 38.9844 172.156 38.1875C171.281 37.4062 170.609 36.4844 170.141 35.4219C169.656 34.3594 169.414 33.2109 169.414 31.9766C169.414 30.7734 169.609 29.6875 170 28.7188C170.375 27.7344 170.883 26.8672 171.523 26.1172C172.164 25.3516 172.906 24.6953 173.75 24.1484C174.609 23.5859 175.508 23.125 176.445 22.7656C177.383 22.4062 178.328 22.1406 179.281 21.9688C180.25 21.7969 181.172 21.7109 182.047 21.7109C183.859 21.7109 185.594 21.9297 187.25 22.3672C188.906 22.7891 190.5 23.5469 192.031 24.6406L191.211 25.5547C191.195 25.5391 190.992 25.3984 190.602 25.1328C190.211 24.8516 189.648 24.5469 188.914 24.2188C188.18 23.8906 187.266 23.5938 186.172 23.3281C185.094 23.0625 183.859 22.9297 182.469 22.9297C181.125 22.9297 179.82 23.1094 178.555 23.4688C177.305 23.8281 176.195 24.375 175.227 25.1094C174.273 25.8281 173.508 26.7422 172.93 27.8516C172.352 28.9453 172.062 30.2344 172.062 31.7188C172.062 32.7812 172.266 33.7656 172.672 34.6719C173.094 35.5781 173.672 36.3594 174.406 37.0156C175.141 37.6875 176.023 38.2109 177.055 38.5859C178.086 38.9609 179.227 39.1484 180.477 39.1484C182.352 39.1484 184.148 38.75 185.867 37.9531C187.586 37.1562 189.242 36.0781 190.836 34.7188C192.43 33.3594 193.961 31.7734 195.43 29.9609C196.914 28.1484 198.336 26.2344 199.695 24.2188C201.07 22.2031 202.398 20.1328 203.68 18.0078C204.961 15.8828 206.203 13.8359 207.406 11.8672C208.609 9.88281 209.781 8.03125 210.922 6.3125C212.062 4.57812 213.18 3.08594 214.273 1.83594L215.328 2.46875C214.641 4.5625 214.047 6.40625 213.547 8C213.047 9.57812 212.609 10.9688 212.234 12.1719C211.875 13.375 211.562 14.4141 211.297 15.2891C211.047 16.1641 210.828 16.9453 210.641 17.6328C210.453 18.3203 210.281 18.9453 210.125 19.5078C209.984 20.0547 209.836 20.6016 209.68 21.1484C209.539 21.6953 209.375 22.2734 209.188 22.8828C209 23.4922 208.773 24.2031 208.508 25.0156C208.242 25.8125 207.93 26.7422 207.57 27.8047C207.211 28.8516 206.773 30.0938 206.258 31.5312C207.57 29.5469 208.914 27.5938 210.289 25.6719C211.68 23.75 213.062 21.8906 214.438 20.0938C215.812 18.2969 217.156 16.5781 218.469 14.9375C219.797 13.2969 221.047 11.7734 222.219 10.3672C223.406 8.96094 224.492 7.6875 225.477 6.54688C226.477 5.39063 227.344 4.40625 228.078 3.59375C228.812 2.78125 229.383 2.14844 229.789 1.69531C230.211 1.24219 230.43 1.00781 230.445 0.992188L231.43 1.71875C230.508 4 229.594 6.28906 228.688 8.58594C227.781 10.8672 226.906 13.0938 226.062 15.2656C225.234 17.4375 224.461 19.5312 223.742 21.5469C223.023 23.5625 222.398 25.4531 221.867 27.2188C221.336 28.9688 220.914 30.5703 220.602 32.0234C220.305 33.4609 220.156 34.6953 220.156 35.7266C220.156 36.9453 220.297 38.0469 220.578 39.0312C220.875 40.0156 221.297 40.8516 221.844 41.5391C222.391 42.2266 223.062 42.75 223.859 43.1094C224.672 43.4844 225.586 43.6719 226.602 43.6719C227.367 43.6719 228.109 43.5859 228.828 43.4141C229.562 43.2422 230.211 43.0547 230.773 42.8516C231.336 42.6484 231.789 42.4609 232.133 42.2891C232.477 42.1172 232.656 42.0312 232.672 42.0312L233.281 43.0859ZM247.953 19.4141C247.75 19.8203 247.461 20.3516 247.086 21.0078C246.727 21.6641 246.336 22.3906 245.914 23.1875C245.492 23.9688 245.062 24.7891 244.625 25.6484C244.203 26.5078 243.812 27.3516 243.453 28.1797C243.109 28.9922 242.82 29.7656 242.586 30.5C242.367 31.2188 242.258 31.8281 242.258 32.3281C242.258 32.8281 242.352 33.1562 242.539 33.3125C242.742 33.4531 243 33.5234 243.312 33.5234C243.766 33.5234 244.227 33.3906 244.695 33.125C245.18 32.8594 245.648 32.5156 246.102 32.0938C246.57 31.6719 247.023 31.1953 247.461 30.6641C247.898 30.1328 248.305 29.6016 248.68 29.0703C249.07 28.5234 249.422 28.0078 249.734 27.5234C250.047 27.0234 250.312 26.6016 250.531 26.2578L251.375 26.9141C251.109 27.4141 250.797 27.9531 250.438 28.5312C250.078 29.1094 249.68 29.6953 249.242 30.2891C248.82 30.8672 248.359 31.4297 247.859 31.9766C247.359 32.5234 246.828 33.0078 246.266 33.4297C245.719 33.8516 245.141 34.1875 244.531 34.4375C243.922 34.6875 243.297 34.8125 242.656 34.8125C241.719 34.8125 241.031 34.5312 240.594 33.9688C240.156 33.4062 239.938 32.6797 239.938 31.7891C239.938 31.7266 239.938 31.5938 239.938 31.3906C239.953 31.1719 239.977 31 240.008 30.875C239.227 31.8594 238.477 32.6719 237.758 33.3125C237.055 33.9531 236.367 34.4609 235.695 34.8359C235.039 35.2109 234.398 35.4688 233.773 35.6094C233.164 35.7656 232.578 35.8438 232.016 35.8438C231.422 35.8438 230.859 35.7422 230.328 35.5391C229.812 35.3516 229.359 35.0703 228.969 34.6953C228.562 34.3203 228.25 33.8594 228.031 33.3125C227.797 32.7656 227.68 32.1328 227.68 31.4141C227.68 30.5234 227.883 29.5078 228.289 28.3672C228.68 27.2109 229.383 25.9688 230.398 24.6406C231.258 23.5 232.148 22.5391 233.07 21.7578C234.008 20.9766 234.922 20.3516 235.812 19.8828C236.719 19.3984 237.578 19.0547 238.391 18.8516C239.203 18.6484 239.93 18.5469 240.57 18.5469C242.008 18.5469 243.094 18.7891 243.828 19.2734C244.562 19.7422 245.008 20.4688 245.164 21.4531C245.477 21.0625 245.805 20.6719 246.148 20.2812C246.492 19.8906 246.844 19.4922 247.203 19.0859L247.953 19.4141ZM240.758 28.3203C240.961 27.9922 241.211 27.5781 241.508 27.0781C241.805 26.5625 242.117 26.0391 242.445 25.5078C242.773 24.9609 243.094 24.4375 243.406 23.9375C243.719 23.4375 243.992 23.0156 244.227 22.6719C244.227 22.5312 244.203 22.3047 244.156 21.9922C244.125 21.6797 244.023 21.3672 243.852 21.0547C243.68 20.7266 243.406 20.4453 243.031 20.2109C242.656 19.9766 242.133 19.8594 241.461 19.8594C240.977 19.8594 240.43 19.9375 239.82 20.0938C239.227 20.2344 238.586 20.4844 237.898 20.8438C237.227 21.1875 236.531 21.6484 235.812 22.2266C235.094 22.8047 234.375 23.5234 233.656 24.3828C232.578 25.6797 231.742 26.9844 231.148 28.2969C230.57 29.5938 230.281 30.7656 230.281 31.8125C230.281 32.7031 230.484 33.3906 230.891 33.875C231.297 34.3594 231.875 34.6016 232.625 34.6016C233.484 34.6016 234.289 34.4141 235.039 34.0391C235.789 33.6484 236.492 33.1484 237.148 32.5391C237.805 31.9297 238.43 31.2578 239.023 30.5234C239.617 29.7734 240.195 29.0391 240.758 28.3203ZM255.312 15.6641C255.469 15.3984 255.742 14.9375 256.133 14.2812C256.539 13.625 257.008 12.8984 257.539 12.1016C258.086 11.3047 258.672 10.5078 259.297 9.71094C259.938 8.89844 260.562 8.21094 261.172 7.64844L262.227 8.28125C261.555 9.39062 260.867 10.5703 260.164 11.8203C259.461 13.0547 258.766 14.3359 258.078 15.6641H265.719L265.25 16.8828H257.445C256.742 18.2891 256.078 19.6875 255.453 21.0781C254.844 22.4688 254.305 23.7969 253.836 25.0625C253.367 26.3281 253 27.5156 252.734 28.625C252.469 29.7188 252.336 30.6719 252.336 31.4844C252.336 32.5 252.57 33.2344 253.039 33.6875C253.508 34.125 254.086 34.3438 254.773 34.3438C255.383 34.3438 256.008 34.1641 256.648 33.8047C257.289 33.4297 257.914 32.9609 258.523 32.3984C259.148 31.8359 259.734 31.2188 260.281 30.5469C260.844 29.875 261.336 29.2422 261.758 28.6484C262.195 28.0547 262.555 27.5391 262.836 27.1016C263.117 26.6484 263.289 26.3672 263.352 26.2578L264.219 26.9141C263.672 27.8203 263.055 28.7812 262.367 29.7969C261.68 30.8125 260.914 31.7578 260.07 32.6328C259.242 33.4922 258.336 34.2109 257.352 34.7891C256.367 35.3516 255.305 35.6328 254.164 35.6328C253.461 35.6328 252.844 35.5078 252.312 35.2578C251.797 35.0078 251.359 34.6641 251 34.2266C250.641 33.7734 250.375 33.2422 250.203 32.6328C250.016 32.0234 249.922 31.3594 249.922 30.6406C249.922 30.1719 250 29.5078 250.156 28.6484C250.297 27.7891 250.547 26.7734 250.906 25.6016C251.266 24.4141 251.742 23.0859 252.336 21.6172C252.945 20.1484 253.711 18.5703 254.633 16.8828H250.742L251.211 15.6641H255.312ZM268.109 15.6641C268.266 15.3984 268.539 14.9375 268.93 14.2812C269.336 13.625 269.805 12.8984 270.336 12.1016C270.883 11.3047 271.469 10.5078 272.094 9.71094C272.734 8.89844 273.359 8.21094 273.969 7.64844L275.023 8.28125C274.352 9.39062 273.664 10.5703 272.961 11.8203C272.258 13.0547 271.562 14.3359 270.875 15.6641H278.516L278.047 16.8828H270.242C269.539 18.2891 268.875 19.6875 268.25 21.0781C267.641 22.4688 267.102 23.7969 266.633 25.0625C266.164 26.3281 265.797 27.5156 265.531 28.625C265.266 29.7188 265.133 30.6719 265.133 31.4844C265.133 32.5 265.367 33.2344 265.836 33.6875C266.305 34.125 266.883 34.3438 267.57 34.3438C268.18 34.3438 268.805 34.1641 269.445 33.8047C270.086 33.4297 270.711 32.9609 271.32 32.3984C271.945 31.8359 272.531 31.2188 273.078 30.5469C273.641 29.875 274.133 29.2422 274.555 28.6484C274.992 28.0547 275.352 27.5391 275.633 27.1016C275.914 26.6484 276.086 26.3672 276.148 26.2578L277.016 26.9141C276.469 27.8203 275.852 28.7812 275.164 29.7969C274.477 30.8125 273.711 31.7578 272.867 32.6328C272.039 33.4922 271.133 34.2109 270.148 34.7891C269.164 35.3516 268.102 35.6328 266.961 35.6328C266.258 35.6328 265.641 35.5078 265.109 35.2578C264.594 35.0078 264.156 34.6641 263.797 34.2266C263.438 33.7734 263.172 33.2422 263 32.6328C262.812 32.0234 262.719 31.3594 262.719 30.6406C262.719 30.1719 262.797 29.5078 262.953 28.6484C263.094 27.7891 263.344 26.7734 263.703 25.6016C264.062 24.4141 264.539 23.0859 265.133 21.6172C265.742 20.1484 266.508 18.5703 267.43 16.8828H263.539L264.008 15.6641H268.109ZM286.672 14.2109C286.672 14.5234 286.594 14.8516 286.438 15.1953C286.281 15.5234 286.078 15.8203 285.828 16.0859C285.594 16.3516 285.328 16.5703 285.031 16.7422C284.734 16.9141 284.438 17 284.141 17C283.875 17 283.672 16.9062 283.531 16.7188C283.391 16.5156 283.32 16.2734 283.32 15.9922C283.32 15.7422 283.367 15.4453 283.461 15.1016C283.555 14.7578 283.695 14.4375 283.883 14.1406C284.07 13.8281 284.297 13.5625 284.562 13.3438C284.828 13.125 285.133 13.0156 285.477 13.0156C285.805 13.0156 286.086 13.1406 286.32 13.3906C286.555 13.6406 286.672 13.9141 286.672 14.2109ZM282.289 19.4141C282.086 19.8203 281.797 20.3594 281.422 21.0312C281.062 21.6875 280.672 22.4141 280.25 23.2109C279.828 23.9922 279.398 24.8203 278.961 25.6953C278.523 26.5547 278.125 27.3984 277.766 28.2266C277.422 29.0391 277.141 29.8047 276.922 30.5234C276.703 31.2422 276.594 31.8516 276.594 32.3516C276.594 32.8047 276.688 33.1172 276.875 33.2891C277.062 33.4453 277.328 33.5234 277.672 33.5234C278.312 33.5234 278.938 33.3125 279.547 32.8906C280.156 32.4688 280.758 31.9219 281.352 31.25C281.961 30.5625 282.555 29.7812 283.133 28.9062C283.711 28.0312 284.289 27.1484 284.867 26.2578L285.711 26.9141C285.258 27.7266 284.742 28.5938 284.164 29.5156C283.602 30.4375 282.969 31.2969 282.266 32.0938C281.562 32.875 280.789 33.5234 279.945 34.0391C279.102 34.5547 278.18 34.8125 277.18 34.8125C276.242 34.8125 275.523 34.5312 275.023 33.9688C274.523 33.4062 274.273 32.6797 274.273 31.7891C274.273 30.7422 274.516 29.6484 275 28.5078C275.484 27.3672 276.086 26.2422 276.805 25.1328C277.539 24.0078 278.328 22.9297 279.172 21.8984C280.031 20.8672 280.82 19.9297 281.539 19.0859L282.289 19.4141Z" fill="#F1F2F6"/>
<rect y="61" width="300" height="4" fill="#F1F2F6"/>
<path d="M44.9937 92.06C46.1697 92.06 46.9817 92.032 47.4297 91.976V92.536C46.9257 92.648 46.4963 92.9187 46.1417 93.348C45.787 93.7587 45.4603 94.412 45.1617 95.308L40.3457 109.14H39.8977L35.5857 98.472L31.0217 109.14H30.5737L24.8617 94.328C24.4137 93.1707 23.7697 92.5733 22.9297 92.536V91.976C23.6763 92.032 24.675 92.06 25.9257 92.06C27.531 92.06 28.7257 92.032 29.5097 91.976V92.536C28.8003 92.5733 28.2963 92.6667 27.9977 92.816C27.7177 92.9467 27.5777 93.1893 27.5777 93.544C27.5777 93.824 27.6803 94.272 27.8857 94.888L31.8617 105.724L35.2497 97.688L33.9057 94.328C33.4203 93.1707 32.7763 92.5733 31.9737 92.536V91.976C32.739 92.032 33.7377 92.06 34.9697 92.06C36.575 92.06 37.7697 92.032 38.5537 91.976V92.536C37.8443 92.5733 37.3403 92.6667 37.0417 92.816C36.743 92.9467 36.5937 93.1987 36.5937 93.572C36.5937 93.8893 36.7057 94.328 36.9297 94.888L40.9897 105.528L43.9857 96.764C44.3403 95.7187 44.5177 94.8973 44.5177 94.3C44.5177 93.684 44.3403 93.2453 43.9857 92.984C43.6497 92.7227 43.1363 92.5733 42.4457 92.536V91.976C43.0057 92.032 43.855 92.06 44.9937 92.06ZM62.4676 105.696C62.4676 106.667 62.533 107.768 62.6636 109C61.4503 108.944 59.4063 108.916 56.5316 108.916C53.0783 108.916 50.465 108.944 48.6916 109V108.44C49.3636 108.403 49.849 108.328 50.1476 108.216C50.465 108.104 50.6796 107.889 50.7916 107.572C50.9036 107.255 50.9596 106.741 50.9596 106.032V94.944C50.9596 94.2347 50.9036 93.7213 50.7916 93.404C50.6796 93.0867 50.465 92.872 50.1476 92.76C49.849 92.648 49.3636 92.5733 48.6916 92.536V91.976C50.465 92.032 53.0783 92.06 56.5316 92.06C59.145 92.06 61.0023 92.032 62.1036 91.976C61.973 93.096 61.9076 94.104 61.9076 95C61.9076 95.728 61.9356 96.3067 61.9916 96.736H61.3476C61.217 95.2053 60.8903 94.1413 60.3676 93.544C59.8636 92.928 59.033 92.62 57.8756 92.62H55.8316C55.1596 92.62 54.665 92.676 54.3476 92.788C54.049 92.8813 53.8436 93.0867 53.7316 93.404C53.6196 93.7213 53.5636 94.2347 53.5636 94.944V100.152H55.8876C56.485 100.152 56.9423 100.003 57.2596 99.704C57.577 99.3867 57.7916 99.0507 57.9036 98.696C58.0156 98.3227 58.1183 97.856 58.2116 97.296H58.8556C58.7996 97.9307 58.7716 98.6213 58.7716 99.368V100.432C58.7716 101.16 58.8276 102.205 58.9396 103.568H58.2956C58.1836 102.672 57.969 101.972 57.6516 101.468C57.3343 100.964 56.7463 100.712 55.8876 100.712H53.5636V106.032C53.5636 106.741 53.6196 107.255 53.7316 107.572C53.8436 107.889 54.049 108.104 54.3476 108.216C54.665 108.309 55.1596 108.356 55.8316 108.356H57.8756C58.809 108.356 59.5463 108.207 60.0876 107.908C60.629 107.609 61.0396 107.133 61.3196 106.48C61.5996 105.808 61.7956 104.875 61.9076 103.68H62.5516C62.4956 104.184 62.4676 104.856 62.4676 105.696ZM72.988 91.976C75.9 91.976 78.084 92.6853 79.54 94.104C81.0146 95.504 81.752 97.5573 81.752 100.264C81.752 102.019 81.3973 103.559 80.688 104.884C79.9786 106.191 78.9426 107.208 77.58 107.936C76.236 108.645 74.6213 109 72.736 109L71.112 108.972C70.0666 108.935 69.3013 108.916 68.816 108.916C67.2853 108.916 66.128 108.944 65.344 109V108.44C66.016 108.403 66.5013 108.328 66.8 108.216C67.1173 108.104 67.332 107.889 67.444 107.572C67.556 107.255 67.612 106.741 67.612 106.032V94.944C67.612 94.2347 67.556 93.7213 67.444 93.404C67.332 93.0867 67.1173 92.872 66.8 92.76C66.5013 92.648 66.016 92.5733 65.344 92.536V91.976C65.9973 92.032 66.9026 92.06 68.06 92.06L70.44 92.032C71.7093 91.9947 72.5586 91.976 72.988 91.976ZM72.288 92.48C71.7093 92.48 71.2706 92.5453 70.972 92.676C70.692 92.8067 70.496 93.04 70.384 93.376C70.272 93.712 70.216 94.216 70.216 94.888V106.088C70.216 106.76 70.272 107.264 70.384 107.6C70.496 107.936 70.692 108.169 70.972 108.3C71.2706 108.431 71.7186 108.496 72.316 108.496C74.0146 108.496 75.3493 108.197 76.32 107.6C77.2906 106.984 77.972 106.088 78.364 104.912C78.756 103.736 78.952 102.224 78.952 100.376C78.952 97.6507 78.448 95.6533 77.44 94.384C76.432 93.1147 74.7146 92.48 72.288 92.48ZM91.8552 91.976C94.7672 91.976 96.9512 92.6853 98.4072 94.104C99.8818 95.504 100.619 97.5573 100.619 100.264C100.619 102.019 100.264 103.559 99.5552 104.884C98.8458 106.191 97.8098 107.208 96.4472 107.936C95.1032 108.645 93.4885 109 91.6032 109L89.9792 108.972C88.9338 108.935 88.1685 108.916 87.6832 108.916C86.1525 108.916 84.9952 108.944 84.2112 109V108.44C84.8832 108.403 85.3685 108.328 85.6672 108.216C85.9845 108.104 86.1992 107.889 86.3112 107.572C86.4232 107.255 86.4792 106.741 86.4792 106.032V94.944C86.4792 94.2347 86.4232 93.7213 86.3112 93.404C86.1992 93.0867 85.9845 92.872 85.6672 92.76C85.3685 92.648 84.8832 92.5733 84.2112 92.536V91.976C84.8645 92.032 85.7698 92.06 86.9272 92.06L89.3072 92.032C90.5765 91.9947 91.4258 91.976 91.8552 91.976ZM91.1552 92.48C90.5765 92.48 90.1378 92.5453 89.8392 92.676C89.5592 92.8067 89.3632 93.04 89.2512 93.376C89.1392 93.712 89.0832 94.216 89.0832 94.888V106.088C89.0832 106.76 89.1392 107.264 89.2512 107.6C89.3632 107.936 89.5592 108.169 89.8392 108.3C90.1378 108.431 90.5858 108.496 91.1832 108.496C92.8818 108.496 94.2165 108.197 95.1872 107.6C96.1578 106.984 96.8392 106.088 97.2312 104.912C97.6232 103.736 97.8192 102.224 97.8192 100.376C97.8192 97.6507 97.3152 95.6533 96.3072 94.384C95.2992 93.1147 93.5818 92.48 91.1552 92.48ZM110.218 92.536C109.546 92.5733 109.052 92.648 108.734 92.76C108.436 92.872 108.23 93.0867 108.118 93.404C108.006 93.7213 107.95 94.2347 107.95 94.944V106.032C107.95 106.741 108.006 107.255 108.118 107.572C108.23 107.889 108.436 108.104 108.734 108.216C109.052 108.328 109.546 108.403 110.218 108.44V109C109.36 108.944 108.174 108.916 106.662 108.916C105.057 108.916 103.862 108.944 103.078 109V108.44C103.75 108.403 104.236 108.328 104.534 108.216C104.852 108.104 105.066 107.889 105.178 107.572C105.29 107.255 105.346 106.741 105.346 106.032V94.944C105.346 94.2347 105.29 93.7213 105.178 93.404C105.066 93.0867 104.852 92.872 104.534 92.76C104.236 92.648 103.75 92.5733 103.078 92.536V91.976C103.862 92.032 105.057 92.06 106.662 92.06C108.156 92.06 109.341 92.032 110.218 91.976V92.536ZM129.591 92.536C128.937 92.5733 128.452 92.676 128.135 92.844C127.817 92.9933 127.603 93.2547 127.491 93.628C127.379 93.9827 127.323 94.5147 127.323 95.224V109.14H126.679L115.479 93.628V105.752C115.479 106.48 115.535 107.021 115.647 107.376C115.777 107.731 116.02 107.992 116.375 108.16C116.729 108.309 117.28 108.403 118.027 108.44V109C117.355 108.944 116.403 108.916 115.171 108.916C114.051 108.916 113.183 108.944 112.567 109V108.44C113.22 108.403 113.705 108.309 114.023 108.16C114.34 107.992 114.555 107.731 114.667 107.376C114.779 107.003 114.835 106.461 114.835 105.752V94.944C114.835 94.2347 114.779 93.7213 114.667 93.404C114.555 93.0867 114.34 92.872 114.023 92.76C113.724 92.648 113.239 92.5733 112.567 92.536V91.976C113.183 92.032 114.051 92.06 115.171 92.06C116.179 92.06 117.037 92.032 117.747 91.976L126.679 104.408V95.224C126.679 94.496 126.613 93.9547 126.483 93.6C126.371 93.2453 126.137 92.9933 125.783 92.844C125.428 92.676 124.877 92.5733 124.131 92.536V91.976C124.803 92.032 125.755 92.06 126.987 92.06C128.107 92.06 128.975 92.032 129.591 91.976V92.536ZM140.086 91.584C141.132 91.584 141.972 91.7333 142.606 92.032C143.26 92.3307 143.95 92.788 144.678 93.404C144.921 93.5907 145.108 93.684 145.238 93.684C145.593 93.684 145.826 93.1147 145.938 91.976H146.582C146.508 93.04 146.47 94.9067 146.47 97.576H145.826C145.677 96.8667 145.49 96.2413 145.266 95.7C145.061 95.1587 144.781 94.6827 144.426 94.272C143.81 93.5627 143.166 93.0213 142.494 92.648C141.822 92.2747 141.001 92.088 140.03 92.088C138.91 92.088 137.94 92.4333 137.118 93.124C136.297 93.796 135.662 94.7667 135.214 96.036C134.766 97.3053 134.542 98.7987 134.542 100.516C134.542 103.372 135.065 105.472 136.11 106.816C137.156 108.16 138.714 108.832 140.786 108.832C141.589 108.832 142.308 108.757 142.942 108.608C143.278 108.533 143.502 108.412 143.614 108.244C143.745 108.076 143.81 107.843 143.81 107.544V105.136C143.81 104.352 143.736 103.783 143.586 103.428C143.437 103.073 143.176 102.831 142.802 102.7C142.429 102.569 141.822 102.485 140.982 102.448V101.888C141.99 101.944 143.306 101.972 144.93 101.972C146.2 101.972 147.17 101.944 147.842 101.888V102.448C147.413 102.485 147.105 102.56 146.918 102.672C146.732 102.784 146.601 102.999 146.526 103.316C146.452 103.633 146.414 104.147 146.414 104.856V109H145.854C145.817 108.552 145.677 108.328 145.434 108.328C145.322 108.328 145.117 108.393 144.818 108.524C144.52 108.655 144.314 108.739 144.202 108.776C143.008 109.187 141.785 109.392 140.534 109.392C137.734 109.392 135.569 108.645 134.038 107.152C132.508 105.64 131.742 103.531 131.742 100.824C131.742 98.9573 132.097 97.3333 132.806 95.952C133.516 94.552 134.496 93.4787 135.746 92.732C137.016 91.9667 138.462 91.584 140.086 91.584ZM161.763 102.112V106.032C161.763 106.741 161.819 107.255 161.931 107.572C162.043 107.889 162.248 108.104 162.547 108.216C162.864 108.328 163.359 108.403 164.031 108.44V109C163.172 108.944 161.987 108.916 160.475 108.916C158.87 108.916 157.675 108.944 156.891 109V108.44C157.563 108.403 158.048 108.328 158.347 108.216C158.664 108.104 158.879 107.889 158.991 107.572C159.103 107.255 159.159 106.741 159.159 106.032V94.944C159.159 94.2347 159.103 93.7213 158.991 93.404C158.879 93.0867 158.664 92.872 158.347 92.76C158.048 92.648 157.563 92.5733 156.891 92.536V91.976C157.675 92.032 158.814 92.06 160.307 92.06L163.331 92.032C163.686 92.0133 164.087 92.004 164.535 92.004C166.532 92.004 168.063 92.4333 169.127 93.292C170.191 94.132 170.723 95.2613 170.723 96.68C170.723 97.576 170.499 98.4347 170.051 99.256C169.622 100.077 168.875 100.759 167.811 101.3C166.766 101.841 165.375 102.112 163.639 102.112H161.763ZM163.835 92.536C163.256 92.536 162.818 92.6013 162.519 92.732C162.239 92.8627 162.043 93.096 161.931 93.432C161.819 93.768 161.763 94.272 161.763 94.944V101.552H163.359C165.076 101.552 166.262 101.141 166.915 100.32C167.587 99.4987 167.923 98.388 167.923 96.988C167.923 95.476 167.606 94.356 166.971 93.628C166.336 92.9 165.291 92.536 163.835 92.536ZM179.781 92.536C179.109 92.5733 178.614 92.648 178.297 92.76C177.998 92.872 177.793 93.0867 177.681 93.404C177.569 93.7213 177.513 94.2347 177.513 94.944V106.032C177.513 106.741 177.569 107.255 177.681 107.572C177.793 107.889 177.998 108.104 178.297 108.216C178.614 108.309 179.109 108.356 179.781 108.356H181.545C182.833 108.356 183.832 107.973 184.541 107.208C185.269 106.443 185.708 105.173 185.857 103.4H186.501C186.445 103.979 186.417 104.744 186.417 105.696C186.417 106.667 186.482 107.768 186.613 109C185.4 108.944 183.356 108.916 180.481 108.916C177.028 108.916 174.414 108.944 172.641 109V108.44C173.313 108.403 173.798 108.328 174.097 108.216C174.414 108.104 174.629 107.889 174.741 107.572C174.853 107.255 174.909 106.741 174.909 106.032V94.944C174.909 94.2347 174.853 93.7213 174.741 93.404C174.629 93.0867 174.414 92.872 174.097 92.76C173.798 92.648 173.313 92.5733 172.641 92.536V91.976C173.425 92.032 174.62 92.06 176.225 92.06C177.718 92.06 178.904 92.032 179.781 91.976V92.536ZM202.916 106.648C203.42 107.805 204.064 108.403 204.848 108.44V109C204.101 108.944 203.102 108.916 201.852 108.916C200.246 108.916 199.052 108.944 198.268 109V108.44C198.958 108.403 199.462 108.309 199.78 108.16C200.116 108.011 200.284 107.759 200.284 107.404C200.284 107.105 200.153 106.667 199.892 106.088L198.464 102.896H191.66L190.708 104.996C190.39 105.724 190.232 106.321 190.232 106.788C190.232 107.273 190.4 107.656 190.736 107.936C191.09 108.197 191.65 108.365 192.416 108.44V109C191.856 108.944 191.006 108.916 189.868 108.916C188.729 108.916 187.917 108.944 187.432 109V108.44C187.936 108.309 188.365 108.029 188.72 107.6C189.074 107.152 189.41 106.564 189.728 105.836L195.916 91.836H196.364L202.916 106.648ZM198.24 102.336L195.076 95.224L191.884 102.336H198.24ZM222.97 92.536C222.316 92.5733 221.831 92.676 221.514 92.844C221.196 92.9933 220.982 93.2547 220.87 93.628C220.758 93.9827 220.702 94.5147 220.702 95.224V109.14H220.058L208.858 93.628V105.752C208.858 106.48 208.914 107.021 209.026 107.376C209.156 107.731 209.399 107.992 209.754 108.16C210.108 108.309 210.659 108.403 211.406 108.44V109C210.734 108.944 209.782 108.916 208.55 108.916C207.43 108.916 206.562 108.944 205.946 109V108.44C206.599 108.403 207.084 108.309 207.402 108.16C207.719 107.992 207.934 107.731 208.046 107.376C208.158 107.003 208.214 106.461 208.214 105.752V94.944C208.214 94.2347 208.158 93.7213 208.046 93.404C207.934 93.0867 207.719 92.872 207.402 92.76C207.103 92.648 206.618 92.5733 205.946 92.536V91.976C206.562 92.032 207.43 92.06 208.55 92.06C209.558 92.06 210.416 92.032 211.126 91.976L220.058 104.408V95.224C220.058 94.496 219.992 93.9547 219.862 93.6C219.75 93.2453 219.516 92.9933 219.162 92.844C218.807 92.676 218.256 92.5733 217.51 92.536V91.976C218.182 92.032 219.134 92.06 220.366 92.06C221.486 92.06 222.354 92.032 222.97 91.976V92.536ZM241.973 92.536C241.32 92.5733 240.835 92.676 240.517 92.844C240.2 92.9933 239.985 93.2547 239.873 93.628C239.761 93.9827 239.705 94.5147 239.705 95.224V109.14H239.061L227.861 93.628V105.752C227.861 106.48 227.917 107.021 228.029 107.376C228.16 107.731 228.403 107.992 228.757 108.16C229.112 108.309 229.663 108.403 230.409 108.44V109C229.737 108.944 228.785 108.916 227.553 108.916C226.433 108.916 225.565 108.944 224.949 109V108.44C225.603 108.403 226.088 108.309 226.405 108.16C226.723 107.992 226.937 107.731 227.049 107.376C227.161 107.003 227.217 106.461 227.217 105.752V94.944C227.217 94.2347 227.161 93.7213 227.049 93.404C226.937 93.0867 226.723 92.872 226.405 92.76C226.107 92.648 225.621 92.5733 224.949 92.536V91.976C225.565 92.032 226.433 92.06 227.553 92.06C228.561 92.06 229.42 92.032 230.129 91.976L239.061 104.408V95.224C239.061 94.496 238.996 93.9547 238.865 93.6C238.753 93.2453 238.52 92.9933 238.165 92.844C237.811 92.676 237.26 92.5733 236.513 92.536V91.976C237.185 92.032 238.137 92.06 239.369 92.06C240.489 92.06 241.357 92.032 241.973 91.976V92.536ZM257.729 105.696C257.729 106.667 257.795 107.768 257.925 109C256.712 108.944 254.668 108.916 251.793 108.916C248.34 108.916 245.727 108.944 243.953 109V108.44C244.625 108.403 245.111 108.328 245.409 108.216C245.727 108.104 245.941 107.889 246.053 107.572C246.165 107.255 246.221 106.741 246.221 106.032V94.944C246.221 94.2347 246.165 93.7213 246.053 93.404C245.941 93.0867 245.727 92.872 245.409 92.76C245.111 92.648 244.625 92.5733 243.953 92.536V91.976C245.727 92.032 248.34 92.06 251.793 92.06C254.407 92.06 256.264 92.032 257.365 91.976C257.235 93.096 257.169 94.104 257.169 95C257.169 95.728 257.197 96.3067 257.253 96.736H256.609C256.479 95.2053 256.152 94.1413 255.629 93.544C255.125 92.928 254.295 92.62 253.137 92.62H251.093C250.421 92.62 249.927 92.676 249.609 92.788C249.311 92.8813 249.105 93.0867 248.993 93.404C248.881 93.7213 248.825 94.2347 248.825 94.944V100.152H251.149C251.747 100.152 252.204 100.003 252.521 99.704C252.839 99.3867 253.053 99.0507 253.165 98.696C253.277 98.3227 253.38 97.856 253.473 97.296H254.117C254.061 97.9307 254.033 98.6213 254.033 99.368V100.432C254.033 101.16 254.089 102.205 254.201 103.568H253.557C253.445 102.672 253.231 101.972 252.913 101.468C252.596 100.964 252.008 100.712 251.149 100.712H248.825V106.032C248.825 106.741 248.881 107.255 248.993 107.572C249.105 107.889 249.311 108.104 249.609 108.216C249.927 108.309 250.421 108.356 251.093 108.356H253.137C254.071 108.356 254.808 108.207 255.349 107.908C255.891 107.609 256.301 107.133 256.581 106.48C256.861 105.808 257.057 104.875 257.169 103.68H257.813C257.757 104.184 257.729 104.856 257.729 105.696ZM277.126 107.824C276.771 108.328 276.36 108.72 275.894 109C275.446 109.261 274.904 109.392 274.27 109.392C272.702 109.392 271.74 108.683 271.386 107.264L270.518 103.764C270.256 102.719 269.864 102.019 269.342 101.664C268.838 101.309 268.082 101.132 267.074 101.132H265.478V106.032C265.478 106.741 265.534 107.255 265.646 107.572C265.758 107.889 265.963 108.104 266.262 108.216C266.579 108.328 267.074 108.403 267.746 108.44V109C266.887 108.944 265.702 108.916 264.19 108.916C262.584 108.916 261.39 108.944 260.606 109V108.44C261.278 108.403 261.763 108.328 262.062 108.216C262.379 108.104 262.594 107.889 262.706 107.572C262.818 107.255 262.874 106.741 262.874 106.032V94.944C262.874 94.2347 262.818 93.7213 262.706 93.404C262.594 93.0867 262.379 92.872 262.062 92.76C261.763 92.648 261.278 92.5733 260.606 92.536V91.976C261.39 92.032 262.528 92.06 264.022 92.06L266.878 92.032C267.195 92.0133 267.559 92.004 267.97 92.004C270.06 92.004 271.656 92.396 272.758 93.18C273.878 93.964 274.438 94.9813 274.438 96.232C274.438 97.3147 273.999 98.304 273.122 99.2C272.263 100.096 270.844 100.665 268.866 100.908C269.239 100.945 269.556 100.983 269.818 101.02C270.807 101.169 271.591 101.468 272.17 101.916C272.748 102.364 273.159 103.083 273.402 104.072L274.018 106.62C274.167 107.273 274.326 107.74 274.494 108.02C274.68 108.281 274.914 108.412 275.194 108.412C275.66 108.412 276.174 108.095 276.734 107.46L277.126 107.824ZM267.27 92.536C266.766 92.536 266.383 92.6013 266.122 92.732C265.879 92.8627 265.711 93.096 265.618 93.432C265.524 93.768 265.478 94.272 265.478 94.944V100.572H267.354C268.996 100.572 270.116 100.227 270.714 99.536C271.33 98.8267 271.638 97.828 271.638 96.54C271.638 95.196 271.292 94.1973 270.602 93.544C269.93 92.872 268.819 92.536 267.27 92.536Z" fill="#F1F2F6"/>
</svg>
