<svg width="905" height="87" viewBox="0 0 905 87" fill="none" xmlns="http://www.w3.org/2000/svg">
<path d="M23.1934 9.17251V84.7593H8.97442V9.17251H23.1934ZM54.079 80.5479L56.0603 84.7593H22.8438V80.5479H54.079ZM59.9981 70.573L56.4099 84.7593H34.6152L38.811 80.5479C42.7737 80.5479 46.1925 79.901 49.0674 78.6044C56.2023 75.2098 58.4926 70.5938 58.4926 70.5938L59.9981 70.573ZM9.32408 76.8766V84.7593H0.000144979V83.6791H1.51544C3.53562 83.6791 5.24499 83.031 6.64358 81.7355C8.11987 80.3677 8.89688 78.748 8.97458 76.8762L9.32408 76.8766ZM9.32408 17.0552H8.97432C8.89695 15.1836 8.11929 13.5998 6.64333 12.3041C5.24474 10.9363 3.53537 10.2524 1.51518 10.2524H0V9.17227H9.32394L9.32408 17.0552ZM22.8438 17.0552V9.17251H32.1677V10.2527H30.6525C28.6323 10.2527 26.8841 10.9369 25.4078 12.3043C24.0092 13.6 23.2711 15.1838 23.1934 17.0554L22.8438 17.0552ZM94.0973 9.17251V84.7593H79.8783V9.17251H94.0973ZM124.983 80.5479L126.964 84.7593H93.7477V80.5479H124.983ZM120.554 45.4541V49.5574H93.7477V45.4541H120.554ZM126.032 9.17251V13.3839H93.7477V9.17251H126.032ZM129.841 70.5725L127.314 84.7593H105.519L109.715 80.5479C113.678 80.5479 117.096 79.901 119.971 78.6044C124.45 76.3149 126.821 74.3148 128.171 70.5809L129.841 70.5725ZM120.554 49.3415V58.628H119.388V57.4402C119.388 55.2084 118.573 53.3368 116.941 51.8251C115.309 50.3133 113.289 49.5574 110.88 49.5574V49.3417L120.554 49.3415ZM120.554 36.3838V45.6702H110.88V45.4544C113.289 45.3863 115.309 44.5937 116.941 43.0789C118.573 41.5673 119.388 39.6955 119.388 37.4639V36.3838H120.554ZM126.032 13.0598V23.4186H124.866V22.7784C124.866 20.0428 123.934 17.8113 122.069 16.0836C120.204 14.2839 117.718 13.3482 114.61 13.2762V13.0598L126.032 13.0598ZM126.032 7.22897V10.3604L111.813 9.17251C113.522 9.17251 115.309 9.0707 117.174 8.84791C119.117 8.63214 120.904 8.37993 122.535 8.09234C124.167 7.80488 125.333 7.51752 126.032 7.22897ZM80.2279 76.8766V84.7593H70.904V83.6791H72.4191C74.4393 83.6791 76.1486 83.031 77.5472 81.7355C79.0235 80.3677 79.8006 78.748 79.8782 76.8762L80.2279 76.8766ZM80.2279 17.0552H79.8783C79.8009 15.1836 79.0234 13.5998 77.5473 12.3041C76.1487 10.9363 74.4393 10.2524 72.4191 10.2524H70.9041V9.17227H80.228L80.2279 17.0552ZM223.745 54.5246V72.3414C221.958 74.501 219.316 76.6608 215.819 78.8203C212.401 80.9799 208.244 82.7796 203.349 84.2193C198.454 85.5871 192.898 86.271 186.682 86.271C178.135 86.2029 170.598 84.5827 164.072 81.4119C157.545 78.1724 152.456 73.6372 148.804 67.8062C145.229 61.9034 143.442 54.9205 143.442 46.8579C143.442 38.9394 145.229 32.0286 148.804 26.1255C152.456 20.2226 157.545 15.6874 164.072 12.52C170.676 9.28052 178.368 7.66086 187.148 7.66086C191.422 7.66086 195.462 7.94833 199.269 8.52503C203.154 9.10186 206.69 9.89301 209.875 10.9006C213.139 11.8371 215.897 12.8803 218.15 14.032L219.083 31.4169H218.034C216.635 26.7378 214.537 22.9945 211.74 20.1869C209.02 17.3075 205.757 15.1839 201.95 13.8162C198.143 12.4483 194.024 11.7644 189.596 11.7644C183.147 11.7644 177.63 13.2402 173.046 16.1917C168.539 19.0711 165.081 23.1744 162.673 28.5016C160.264 33.7566 159.06 40.0196 159.06 47.2903C159.06 54.3449 160.186 60.4998 162.44 65.755C164.771 70.938 168.073 74.9692 172.346 77.8488C176.698 80.6563 181.826 82.096 187.731 82.1681C190.839 82.1681 193.791 81.7722 196.589 80.9802C199.386 80.1885 201.911 79.0367 204.164 77.5249C206.495 75.9411 208.321 74.0695 209.642 71.9099L209.76 54.525C209.76 51.2856 207.778 49.6658 203.816 49.6658H201.951V48.5856H231.321V49.6658H229.573C225.533 49.6658 223.589 51.2852 223.745 54.5246ZM246.272 7.55286L318.416 73.6371L319.698 86.271L247.554 20.2946L246.272 7.55286ZM246.739 77.0926V84.7593H237.065V83.6791H239.28C241.222 83.6791 242.893 83.031 244.291 81.7355C245.69 80.4396 246.389 78.892 246.389 77.0923L246.739 77.0926ZM259.326 77.0926C259.326 78.8923 260.025 80.4399 261.424 81.7357C262.822 83.0315 264.493 83.6795 266.435 83.6795H268.65V84.7596H258.976V77.0929L259.326 77.0926ZM246.272 7.55286L259.209 20.6185L259.327 84.7593H246.39V21.0506C246.39 17.1631 246.157 13.9598 245.691 11.4401L245.108 7.55286H246.272ZM319.465 9.17251V72.4495C319.465 75.041 319.583 77.3806 319.815 79.4681C320.048 81.5559 320.242 83.2114 320.398 84.4353L320.747 86.271H319.698L306.761 72.7733V9.17251H319.465ZM328.789 9.17251V10.2527H326.691C324.749 10.2527 323.078 10.8996 321.679 12.1963C320.281 13.4201 319.543 14.9678 319.465 16.8394H319.115V9.17283L328.789 9.17251ZM297.321 9.17251H306.994V16.8392H306.762C306.684 14.9676 305.945 13.4198 304.547 12.1961C303.226 10.9003 301.556 10.2524 299.535 10.2524H297.321L297.321 9.17251ZM383.953 7.66086C392.967 7.66086 400.814 9.28052 407.496 12.52C414.256 15.6874 419.462 20.2226 423.114 26.1255C426.766 32.0286 428.592 38.9754 428.592 46.9658C428.592 54.9565 426.766 61.9034 423.114 67.8062C419.462 73.7092 414.256 78.2805 407.496 81.5199C400.814 84.6873 392.967 86.271 383.953 86.271C375.018 86.271 367.209 84.6873 360.527 81.5199C353.845 78.2805 348.678 73.7092 345.026 67.8062C341.374 61.9034 339.548 54.9565 339.548 46.9658C339.548 38.9754 341.374 32.0286 345.026 26.1255C348.678 20.2226 353.845 15.6874 360.527 12.52C367.209 9.28052 375.018 7.66086 383.953 7.66086ZM383.953 82.1677C389.859 82.1677 394.948 80.7279 399.221 77.8485C403.573 74.9689 406.914 70.9017 409.245 65.6466C411.653 60.3915 412.858 54.1646 412.858 46.9658C412.858 39.7671 411.653 33.5403 409.245 28.2853C406.914 23.0301 403.573 18.9628 399.221 16.0833C394.948 13.2038 389.859 11.7641 383.953 11.7641C378.204 11.7641 373.153 13.2038 368.802 16.0833C364.529 18.9628 361.188 23.0301 358.779 28.2853C356.448 33.5403 355.282 39.7671 355.282 46.9658C355.282 54.1646 356.448 60.3915 358.779 65.6466C361.188 70.9017 364.529 74.9689 368.802 77.8485C373.153 80.7279 378.204 82.1677 383.953 82.1677ZM438.532 9.8204H454.266L473.963 63.8109L468.602 86.4868L438.532 9.8204ZM494.709 7.44485L496.457 17.4872L472.448 74.501L471.749 76.3367C471.283 77.5605 470.816 79.1084 470.35 80.9799C469.961 82.7796 469.729 84.6153 469.651 86.4868H468.602L465.804 74.717L493.66 7.44485H494.709ZM494.709 7.54666L520 63.6969L515.455 86.4808L488.065 25.7954L494.709 7.54666ZM540.629 9.81429L518.718 74.4949L518.135 76.4385C517.747 77.7343 517.358 79.3181 516.97 81.1897C516.659 82.9894 516.504 84.7529 516.504 86.4808H515.455L512.774 75.7907L533.054 9.81429H540.629ZM530.839 16.9411C531.46 14.7814 531.266 13.1258 530.256 11.9739C529.246 10.8222 527.964 10.2463 526.41 10.2463H525.361V9.16608H549.37V10.2463H548.438C546.65 10.2463 544.708 10.7872 542.61 11.8659C540.512 12.8737 539.036 14.5656 538.181 16.9411H530.839ZM457.063 16.9411H441.329C440.319 14.5656 438.804 12.8738 436.784 11.8659C434.764 10.7857 432.86 10.2462 431.073 10.2462H430.14V9.16604H462.424V10.2462H461.375C459.899 10.2462 458.578 10.8218 457.413 11.9739C456.325 13.1258 456.209 14.7814 457.063 16.9411ZM597.45 7.65466C606.463 7.65466 614.311 9.27444 620.993 12.5138C627.753 15.6812 632.959 20.2165 636.611 26.1195C640.263 32.0223 642.089 38.9691 642.089 46.9597C642.089 54.9503 640.263 61.8971 636.611 67.8C632.959 73.7031 627.753 78.2743 620.993 81.5137C614.311 84.6811 606.463 86.2648 597.45 86.2648C588.515 86.2648 580.706 84.6811 574.024 81.5137C567.342 78.2743 562.175 73.7031 558.523 67.8C554.871 61.8971 553.045 54.9503 553.045 46.9597C553.045 38.9691 554.871 32.0223 558.523 26.1195C562.175 20.2165 567.342 15.6812 574.024 12.5138C580.706 9.27444 588.515 7.65466 597.45 7.65466ZM597.45 82.1616C603.355 82.1616 608.445 80.7218 612.718 77.8422C617.069 74.9629 620.41 70.8956 622.741 65.6404C625.15 60.3853 626.354 54.1585 626.354 46.9597C626.354 39.761 625.151 33.5341 622.741 28.2791C620.41 23.024 617.069 18.9566 612.718 16.0772C608.445 13.1977 603.355 11.758 597.45 11.758C591.7 11.758 586.65 13.1977 582.299 16.0772C578.025 18.9566 574.684 23.024 572.276 28.2791C569.945 33.5341 568.779 39.761 568.779 46.9597C568.779 54.1585 569.945 60.3853 572.276 65.6404C574.684 70.8956 578.025 74.9629 582.299 77.8422C586.65 80.7218 591.7 82.1616 597.45 82.1616ZM674.756 9.16644H690.257C693.753 9.16644 697.056 9.56213 700.164 10.3541C703.349 11.1459 706.146 12.3698 708.555 14.0255C710.964 15.6813 712.829 17.8049 714.15 20.3965C715.548 22.9161 716.247 25.9395 716.247 29.4668C716.247 32.6343 715.509 35.7657 714.033 38.8611C712.557 41.9567 710.381 44.5482 707.506 46.6358C704.631 48.6515 701.096 49.8032 696.9 50.0911C698.998 50.7381 700.979 51.9627 702.844 53.7625C704.787 55.4903 706.379 57.2178 707.623 58.9457C707.693 59.0137 708.163 59.6978 709.021 60.9973C709.954 62.2211 711.08 63.7329 712.401 65.5325C713.722 67.3321 715.082 69.1319 716.48 70.9316C717.957 72.7312 719.239 74.243 720.327 75.4667C721.958 77.3384 723.512 78.8861 724.989 80.1099C726.465 81.2616 728.019 82.1616 729.65 82.8094C731.282 83.3863 733.147 83.6736 735.245 83.6736V84.7537H725.571C721.531 84.7537 717.918 84.3583 714.732 83.5658C711.624 82.773 708.905 81.5862 706.574 80.0025C704.243 78.4189 702.223 76.4391 700.513 74.0636C700.047 73.4166 699.386 72.444 698.532 71.148C697.677 69.7803 696.745 68.2686 695.735 66.6129C694.724 64.9572 693.715 63.3734 692.704 61.8617C691.772 60.2781 690.956 58.8742 690.257 57.6504C689.634 56.4266 689.209 55.5629 688.975 55.0589C686.906 51.5846 677.359 51.8411 675.308 51.7822C673.257 51.7246 672.238 47.9682 670.529 47.8242V46.744C670.685 46.744 671.19 46.7754 672.044 46.8456C672.9 46.8456 673.87 46.8142 674.958 46.744C677.056 46.6765 688.742 46.3162 690.84 45.6639C692.937 45.0169 694.841 43.8283 696.551 42.1006C698.338 40.3728 699.62 37.8892 700.397 34.6498C700.553 34.0029 700.707 33.1742 700.862 32.1663C701.018 31.1585 701.054 30.1146 700.967 29.0349C700.735 23.9957 699.336 20.1804 696.772 17.5888C694.208 14.9972 690.944 13.6294 686.981 13.4854C685.505 13.4176 683.951 13.3836 682.32 13.3836H675.909L675.559 12.3035C675.403 11.583 675.209 10.8995 674.975 10.2518L674.756 9.16644ZM676.271 9.16644V84.7531H662.052V9.16644H676.271ZM662.402 76.8704V84.7531H653.078V83.6729H654.593C656.613 83.6729 658.322 83.0248 659.721 81.7293C661.197 80.3615 661.974 78.7418 662.052 76.8701L662.402 76.8704ZM662.402 17.0491H662.052C661.981 15.1774 661.199 13.5936 659.721 12.2979C658.322 10.9302 656.613 10.2463 654.593 10.2463H653.078V9.16608H662.402L662.402 17.0491ZM675.921 76.8704H676.272C676.272 78.7421 677.01 80.3619 678.487 81.7297C679.963 83.0254 681.711 83.6733 683.731 83.6733H685.128V84.7534H675.92L675.921 76.8704ZM769.6 39.9411L800.952 77.7342C802.661 79.678 804.409 81.1537 806.196 82.1616C808.061 83.0981 810.198 83.6012 812.607 83.6733V84.7534H804.565C803.71 84.7534 802.389 84.722 800.602 84.6518C798.815 84.5083 796.795 84.2197 794.541 83.7877C792.366 83.2844 790.151 82.492 787.898 81.4121C785.645 80.3319 783.664 78.7845 781.954 76.7687C781.722 76.409 780.982 75.509 779.74 74.0694C778.574 72.5577 777.098 70.7578 775.311 68.6702C773.524 66.5106 771.659 64.2791 769.716 61.9755C767.852 59.6 766.065 57.4044 764.355 55.3887C762.724 53.373 761.364 51.7172 760.276 50.4215L758.761 48.4778L769.6 39.9411ZM800.252 9.92225L765.288 48.0396L758.761 48.4716L790.812 9.92245L800.252 9.92225ZM808.411 9.16664V10.1383H807.944C805.38 10.1383 802.972 10.6062 800.718 11.5419C798.543 12.4785 796.678 13.7735 795.124 15.4294L786.383 15.2136C787.315 13.9898 787.471 12.8381 786.849 11.7583C786.227 10.6781 785.139 10.1384 783.586 10.1384H782.42V9.16688L808.411 9.16664ZM760.587 9.16664V84.7532H746.368V9.16664H760.587ZM746.717 76.8707V84.7532H737.393V83.6731H738.908C740.928 83.6731 742.637 83.0251 744.036 81.7295C745.512 80.3618 746.289 78.742 746.367 76.8703L746.717 76.8707ZM746.717 17.0492H746.367C746.296 15.1776 745.515 13.5938 744.036 12.2981C742.637 10.9304 740.928 10.2465 738.908 10.2465H737.393V9.16632H746.717L746.717 17.0492ZM760.237 76.8707H760.587C760.658 78.7424 761.398 80.3621 762.801 81.7299C764.278 83.0257 766.026 83.6735 768.046 83.6735H769.561V84.7537H760.237L760.237 76.8707ZM760.237 17.0492V9.16664H769.561V10.2468H768.047C766.027 10.2468 764.279 10.9311 762.802 12.2984C761.404 13.5942 760.666 15.178 760.588 17.0496L760.237 17.0492Z" fill="#FCF8F2"/>
<path d="M855.843 13.9244C855.843 13.9244 855.232 16.1095 860.9 16.8409C860.9 16.8409 862.942 19.679 848.803 29.6915C848.279 30.0429 847.104 32.4348 850.519 31.5836C850.519 31.5836 857.41 29.95 855.178 35.4466C855.178 35.4466 853.135 40.177 847.577 41.9113C847.577 41.9113 840.957 45.3803 841.937 47.3512C841.937 47.3512 843 47.9031 844.798 47.2716C844.798 47.2716 850.415 45.4794 848.926 51.0573C848.926 51.0573 849.293 55.2345 836.789 60.3591C836.789 60.3591 835.317 62.5666 839.731 62.9608C839.731 62.9608 845.591 64.068 855.322 61.7186C855.322 61.7186 865.723 60.9879 863.434 65.6399C863.434 65.6399 862.005 70.5329 862.332 71.1636C862.332 71.1636 861.717 75.1017 862.365 77.7033C862.365 77.7033 861.873 81.5664 848.551 82.2759C847.597 82.3021 845.377 84.1836 850.126 85.526C850.126 85.526 853.328 86.045 860.378 84.422C863.148 83.7844 866.654 83.3588 870.518 83.5444C874.384 83.359 877.889 83.7837 880.659 84.422C887.71 86.0451 890.911 85.526 890.911 85.526C895.66 84.1836 893.44 82.2985 892.486 82.2759C879.164 81.5667 878.673 77.7033 878.673 77.7033C879.322 75.1017 878.705 71.1636 878.705 71.1636C879.032 70.5323 877.603 65.6399 877.603 65.6399C875.314 60.9879 885.716 61.7186 885.716 61.7186C895.446 64.068 901.306 62.9608 901.306 62.9608C905.72 62.5659 904.249 60.3591 904.249 60.3591C891.744 55.2345 892.111 51.0573 892.111 51.0573C890.622 45.4794 896.239 47.2716 896.239 47.2716C898.037 47.9029 899.099 47.3512 899.099 47.3512C900.08 45.3803 893.46 41.9113 893.46 41.9113C887.902 40.177 885.859 35.4466 885.859 35.4466C883.627 29.95 890.518 31.5836 890.518 31.5836C893.933 32.4354 892.758 30.0433 892.234 29.6915C878.095 19.679 880.137 16.8409 880.137 16.8409C885.806 16.1091 885.193 13.9244 885.193 13.9244C872.07 8.86106 871.157 0 870.514 0C869.872 0 868.958 8.86106 855.834 13.9244H855.843Z" fill="#FCF8F2"/>
</svg>
