<svg width="46" height="46" viewBox="0 0 46 46" fill="none" xmlns="http://www.w3.org/2000/svg">
<path fill-rule="evenodd" clip-rule="evenodd" d="M43 23C43 34.0457 34.0457 43 23 43C11.9543 43 3 34.0457 3 23C3 11.9543 11.9543 3 23 3C34.0457 3 43 11.9543 43 23ZM45 23C45 35.1503 35.1503 45 23 45C10.8497 45 1 35.1503 1 23C1 10.8497 10.8497 1 23 1C35.1503 1 45 10.8497 45 23ZM31.7998 26.3984C32.3521 26.3984 32.7998 26.8462 32.7998 27.3984C32.7998 27.9507 32.3521 28.3984 31.7998 28.3984H22.9998C22.4475 28.3984 21.9998 27.9507 21.9998 27.3984V11.9984C21.9998 11.4462 22.4475 10.9984 22.9998 10.9984C23.5521 10.9984 23.9998 11.4462 23.9998 11.9984V26.3984H31.7998Z" fill="#FCF8F2"/>
<path d="M21.9998 27.3984L22.9998 27.3984V27.3984H21.9998ZM23.9998 26.3984H22.9998V27.3984H23.9998V26.3984ZM23 44C34.598 44 44 34.598 44 23H42C42 33.4934 33.4934 42 23 42V44ZM2 23C2 34.598 11.402 44 23 44V42C12.5066 42 4 33.4934 4 23H2ZM23 2C11.402 2 2 11.402 2 23H4C4 12.5066 12.5066 4 23 4V2ZM44 23C44 11.402 34.598 2 23 2V4C33.4934 4 42 12.5066 42 23H44ZM23 46C35.7025 46 46 35.7025 46 23H44C44 34.598 34.598 44 23 44V46ZM0 23C0 35.7025 10.2975 46 23 46V44C11.402 44 2 34.598 2 23H0ZM23 0C10.2975 0 0 10.2975 0 23H2C2 11.402 11.402 2 23 2V0ZM46 23C46 10.2975 35.7025 0 23 0V2C34.598 2 44 11.402 44 23H46ZM33.7998 27.3984C33.7998 26.2939 32.9044 25.3984 31.7998 25.3984V27.3984H33.7998ZM31.7998 29.3984C32.9044 29.3984 33.7998 28.503 33.7998 27.3984H31.7998V29.3984ZM22.9998 29.3984H31.7998V27.3984H22.9998V29.3984ZM20.9998 27.3984C20.9998 28.503 21.8952 29.3984 22.9998 29.3984V27.3984L22.9998 27.3984L20.9998 27.3984ZM20.9998 11.9984V27.3984H22.9998V11.9984H20.9998ZM22.9998 9.99844C21.8952 9.99844 20.9998 10.8939 20.9998 11.9984H22.9998V11.9984V9.99844ZM24.9998 11.9984C24.9998 10.8939 24.1044 9.99844 22.9998 9.99844V11.9984V11.9984H24.9998ZM24.9998 26.3984V11.9984H22.9998V26.3984H24.9998ZM31.7998 25.3984H23.9998V27.3984H31.7998V25.3984Z" fill="#FCF8F2"/>
</svg>
