<svg width="48" height="48" viewBox="0 0 48 48" fill="none" xmlns="http://www.w3.org/2000/svg">
<path d="M35.5177 27.5828C35.5087 27.5785 35.4677 27.5584 35.4004 27.5254C34.7733 27.2182 31.8647 25.7931 31.3031 25.591C31.0492 25.4998 30.7773 25.4108 30.488 25.4108C30.0155 25.4108 29.6186 25.6463 29.3094 26.1089C28.9598 26.6285 27.9016 27.8654 27.5747 28.2349C27.532 28.2837 27.4737 28.342 27.4388 28.342C27.4074 28.342 26.8659 28.1189 26.7019 28.0477C22.9481 26.4171 20.0988 22.4959 19.7081 21.8347C19.6577 21.7488 19.6509 21.7053 19.6498 21.6977C19.6496 21.6969 19.6496 21.6965 19.6495 21.6965C19.6632 21.6461 19.7895 21.5196 19.8546 21.4543C20.045 21.2659 20.2513 21.0176 20.4509 20.7773L20.4515 20.7767C20.5461 20.6627 20.6408 20.5487 20.7339 20.4411C21.0235 20.1042 21.1525 19.8426 21.302 19.5397L21.3024 19.5388L21.3808 19.3812C21.7461 18.6555 21.4341 18.043 21.3333 17.8452C21.2704 17.7194 20.4019 15.6296 19.9196 14.4692C19.7673 14.1027 19.6536 13.829 19.6159 13.739C19.2381 12.835 18.7389 12.4141 18.0453 12.4141C18.0274 12.4141 18.0194 12.4141 18.0115 12.4143C17.9909 12.4149 17.9703 12.4172 17.7753 12.4254C17.4467 12.4393 15.6568 12.6749 14.8654 13.1738C14.0262 13.7029 12.6064 15.3894 12.6064 18.3555C12.6064 21.0249 14.3005 23.5454 15.0278 24.504C15.0428 24.5241 15.0684 24.5615 15.1043 24.614C15.1115 24.6246 15.1191 24.6359 15.1272 24.6477C17.9126 28.7155 21.385 31.7302 24.9051 33.1363C28.2939 34.49 29.8986 34.6465 30.8109 34.6465H30.8111C31.1945 34.6465 31.5013 34.6164 31.772 34.5898L31.9438 34.5734C33.1145 34.4696 35.6871 33.1365 36.2723 31.5103C36.7333 30.2294 36.8549 28.8299 36.5482 28.322C36.3381 27.9767 35.9762 27.803 35.518 27.583L35.5177 27.5828Z" fill="#182825"/>
<path d="M24.4261 0C11.4262 0 0.849939 10.4967 0.849939 23.3989C0.849939 27.5719 1.96672 31.6568 4.0823 35.2318L0.0330028 47.1765C-0.0424258 47.3992 0.0136781 47.6455 0.178406 47.8131C0.297315 47.9345 0.458614 48 0.623341 48C0.686458 48 0.750042 47.9905 0.812068 47.9707L13.2671 44.0129C16.6755 45.8339 20.5276 46.7952 24.4262 46.7952C37.4249 46.7953 48 36.2997 48 23.3989C48 10.4967 37.4249 0 24.4261 0ZM24.4261 41.9211C20.7576 41.9211 17.2045 40.8619 14.1503 38.8577C14.0476 38.7902 13.9284 38.7556 13.8084 38.7556C13.745 38.7556 13.6814 38.7653 13.6195 38.7849L7.38028 40.7682L9.39441 34.826C9.45956 34.6337 9.42698 34.4216 9.30698 34.2577C6.98116 31.0797 5.75171 27.3249 5.75171 23.3989C5.75171 13.1844 14.129 4.87418 24.4259 4.87418C34.7216 4.87418 43.0979 13.1844 43.0979 23.3989C43.0981 33.6122 34.7219 41.9211 24.4261 41.9211Z" fill="#182825"/>
</svg>
