<svg width="127" height="136" viewBox="0 0 127 136" fill="none" xmlns="http://www.w3.org/2000/svg">
<path d="M16.098 135.906L0 72.953H11.3315L22.3034 115.986L33.2752 72.953H43.3027L54.2745 115.986L65.2014 72.953H76.5329L60.5249 135.906H48.0691L38.2665 97.7745L28.5987 135.906H16.098Z" fill="#eae0d5"/>
<path d="M60.4349 -5.13741e-05L76.5329 62.953H65.2014L54.2295 19.9201L43.2577 62.953H33.2302L22.2584 19.9201L11.3315 62.953H-6.35173e-06L16.008 -5.13741e-05H28.4638L38.2664 38.1315L47.9342 -5.13741e-05H60.4349Z" fill="#eae0d5"/>
<path d="M100.937 65.2913C96.6801 65.2913 92.6781 64.4519 88.9309 62.7732C85.1837 61.0645 81.8861 58.7112 79.0383 55.7134C76.2204 52.7157 74.002 49.2533 72.3832 45.3262C70.7944 41.3691 70 37.1423 70 32.6457C70 28.119 70.7944 23.8922 72.3832 19.9651C74.002 16.0081 76.2204 12.5456 79.0383 9.57786C81.8861 6.58009 85.1837 4.24184 88.9309 2.56309C92.6781 0.854363 96.6801 0 100.937 0C106.033 0 110.725 1.18412 115.011 3.55236C119.298 5.89061 122.851 9.02328 125.668 12.9503L115.866 18.2114C114.097 16.0231 111.894 14.2694 109.256 12.9503C106.648 11.6313 103.875 10.9718 100.937 10.9718C98.179 10.9718 95.5859 11.5414 93.1577 12.6805C90.7295 13.7897 88.6011 15.3486 86.7725 17.3571C84.9439 19.3356 83.5199 21.6439 82.5007 24.2819C81.4814 26.8899 80.9718 29.6779 80.9718 32.6457C80.9718 35.6434 81.4814 38.4463 82.5007 41.0544C83.5499 43.6624 84.9888 45.9707 86.8175 47.9792C88.6461 49.9577 90.7595 51.5166 93.1577 52.6557C95.5859 53.7649 98.179 54.3195 100.937 54.3195C103.935 54.3195 106.723 53.66 109.301 52.341C111.909 50.992 114.097 49.2233 115.866 47.0349L125.668 52.341C122.851 56.2381 119.298 59.3707 115.011 61.739C110.725 64.1072 106.033 65.2913 100.937 65.2913Z" fill="#eae0d5"/>
<path d="M74 72.953V83.9393H84.9707V83.9237H94.8633C97.6812 83.9237 100.319 84.4636 102.777 85.5428C105.236 86.5921 107.41 88.0605 109.299 89.9491C111.187 91.8377 112.671 94.0124 113.75 96.4706C114.829 98.9287 115.369 101.582 115.369 104.43C115.369 107.277 114.829 109.945 113.75 112.433C112.671 114.892 111.187 117.064 109.299 118.953C107.41 120.812 105.221 122.28 102.732 123.359C100.274 124.408 97.6512 124.933 94.8633 124.933H84.9707V108.928H74V135.906H94.8633C99.21 135.906 103.272 135.095 107.049 133.476C110.856 131.828 114.2 129.565 117.078 126.687C119.986 123.78 122.248 120.437 123.867 116.66C125.516 112.853 126.34 108.776 126.34 104.43C126.34 100.083 125.516 96.0212 123.867 92.244C122.248 88.4369 119.986 85.0926 117.078 82.2147C114.2 79.3069 110.856 77.0445 107.049 75.4257C103.272 73.7769 99.21 72.953 94.8633 72.953H74Z" fill="#eae0d5"/>
</svg>
