<svg width="46" height="46" viewBox="0 0 46 46" fill="none" xmlns="http://www.w3.org/2000/svg">
<path fill-rule="evenodd" clip-rule="evenodd" d="M43 23C43 34.0457 34.0457 43 23 43C11.9543 43 3 34.0457 3 23C3 11.9543 11.9543 3 23 3C34.0457 3 43 11.9543 43 23ZM45 23C45 35.1503 35.1503 45 23 45C10.8497 45 1 35.1503 1 23C1 10.8497 10.8497 1 23 1C35.1503 1 45 10.8497 45 23ZM31.1998 17.7992C31.6416 17.4678 32.2684 17.5574 32.5998 17.9992C32.9312 18.441 32.8416 19.0678 32.3998 19.3992L23.5998 25.9992C23.2968 26.2265 22.8914 26.263 22.5526 26.0936C22.2138 25.9243 21.9998 25.578 21.9998 25.1992V9.79922C21.9998 9.24693 22.4475 8.79922 22.9998 8.79922C23.5521 8.79922 23.9998 9.24693 23.9998 9.79922V23.1992L31.1998 17.7992Z" fill="#FCF8F2"/>
<path d="M32.5998 17.9992L31.7998 18.5992L31.7998 18.5992L32.5998 17.9992ZM31.1998 17.7992L31.7998 18.5992L31.1998 17.7992ZM32.3998 19.3992L32.9998 20.1992L32.3998 19.3992ZM23.5998 25.9992L22.9998 25.1992L22.9998 25.1992L23.5998 25.9992ZM22.5526 26.0936L22.9998 25.1992L22.9998 25.1992L22.5526 26.0936ZM21.9998 25.1992L22.9998 25.1992V25.1992H21.9998ZM23.9998 23.1992H22.9998V25.1992L24.5998 23.9992L23.9998 23.1992ZM23 44C34.598 44 44 34.598 44 23H42C42 33.4934 33.4934 42 23 42V44ZM2 23C2 34.598 11.402 44 23 44V42C12.5066 42 4 33.4934 4 23H2ZM23 2C11.402 2 2 11.402 2 23H4C4 12.5066 12.5066 4 23 4V2ZM44 23C44 11.402 34.598 2 23 2V4C33.4934 4 42 12.5066 42 23H44ZM23 46C35.7025 46 46 35.7025 46 23H44C44 34.598 34.598 44 23 44V46ZM0 23C0 35.7025 10.2975 46 23 46V44C11.402 44 2 34.598 2 23H0ZM23 0C10.2975 0 0 10.2975 0 23H2C2 11.402 11.402 2 23 2V0ZM46 23C46 10.2975 35.7025 0 23 0V2C34.598 2 44 11.402 44 23H46ZM33.3998 17.3992C32.7371 16.5156 31.4835 16.3365 30.5998 16.9992L31.7998 18.5992L31.7998 18.5992L33.3998 17.3992ZM32.9998 20.1992C33.8835 19.5365 34.0625 18.2829 33.3998 17.3992L31.7998 18.5992V18.5992L32.9998 20.1992ZM24.1998 26.7992L32.9998 20.1992L31.7998 18.5992L22.9998 25.1992L24.1998 26.7992ZM22.1054 26.9881C22.7829 27.3269 23.5938 27.2537 24.1998 26.7992L22.9998 25.1992H22.9998L22.1054 26.9881ZM20.9998 25.1992C20.9998 25.9568 21.4278 26.6493 22.1054 26.9881L22.9998 25.1992L22.9998 25.1992L20.9998 25.1992ZM20.9998 9.79922V25.1992H22.9998V9.79922H20.9998ZM22.9998 7.79922C21.8952 7.79922 20.9998 8.69465 20.9998 9.79922H22.9998V9.79922V7.79922ZM24.9998 9.79922C24.9998 8.69465 24.1044 7.79922 22.9998 7.79922V9.79922V9.79922H24.9998ZM24.9998 23.1992V9.79922H22.9998V23.1992H24.9998ZM30.5998 16.9992L23.3998 22.3992L24.5998 23.9992L31.7998 18.5992L30.5998 16.9992Z" fill="#FCF8F2"/>
</svg>
